<svg width="105" height="108" viewBox="0 0 105 108" fill="none" xmlns="http://www.w3.org/2000/svg">
<path fill-rule="evenodd" clip-rule="evenodd" d="M52.5005 2.35736C81.4756 2.35736 105 25.8818 105 54.8569C105 83.833 81.4756 107.357 52.5005 107.357C23.5244 107.357 0 83.833 0 54.8569C0 25.8818 23.5244 2.35736 52.5005 2.35736Z" fill="#5F6D7E"/>
<path fill-rule="evenodd" clip-rule="evenodd" d="M52.5005 7.50946C78.6318 7.50946 99.8469 28.7255 99.8469 54.8569C99.8469 80.9882 78.6318 102.204 52.5005 102.204C26.3682 102.204 5.15307 80.9882 5.15307 54.8569C5.15307 28.7255 26.3682 7.50946 52.5005 7.50946Z" fill="white"/>
<path fill-rule="evenodd" clip-rule="evenodd" d="M55.1159 2.57298H50.3232L51.5222 0.975418H53.9169L55.1159 2.57298Z" fill="#5F6D7E"/>
<path fill-rule="evenodd" clip-rule="evenodd" d="M52.5004 92.4767L53.5086 98.2578H51.4904L52.5004 92.4767Z" fill="#263238"/>
<path fill-rule="evenodd" clip-rule="evenodd" d="M52.5004 16.9863L51.4904 11.206H53.5086L52.5004 16.9863Z" fill="#263238"/>
<path fill-rule="evenodd" clip-rule="evenodd" d="M90.2447 54.7315L96.0259 53.7224V55.7406L90.2447 54.7315Z" fill="#263238"/>
<path fill-rule="evenodd" clip-rule="evenodd" d="M14.7543 54.7315L8.97411 55.7406V53.7224L14.7543 54.7315Z" fill="#263238"/>
<path fill-rule="evenodd" clip-rule="evenodd" d="M71.3726 22.0429L73.3889 16.5332L75.1375 17.5413L71.3726 22.0429Z" fill="#263238"/>
<path fill-rule="evenodd" clip-rule="evenodd" d="M33.6274 87.42L31.6111 92.9306L29.8635 91.9225L33.6274 87.42Z" fill="#263238"/>
<path fill-rule="evenodd" clip-rule="evenodd" d="M33.6274 22.0429L29.8635 17.5413L31.6111 16.5332L33.6274 22.0429Z" fill="#263238"/>
<path fill-rule="evenodd" clip-rule="evenodd" d="M71.3726 87.42L75.1375 91.9225L73.3889 92.9306L71.3726 87.42Z" fill="#263238"/>
<path fill-rule="evenodd" clip-rule="evenodd" d="M19.8119 35.8593L14.3004 33.8421L15.3094 32.0954L19.8119 35.8593Z" fill="#263238"/>
<path fill-rule="evenodd" clip-rule="evenodd" d="M85.189 73.6045L90.6987 75.6208L89.6906 77.3685L85.189 73.6045Z" fill="#263238"/>
<path fill-rule="evenodd" clip-rule="evenodd" d="M85.189 35.8593L89.6906 32.0954L90.6987 33.8421L85.189 35.8593Z" fill="#263238"/>
<path fill-rule="evenodd" clip-rule="evenodd" d="M19.8119 73.6045L15.3094 77.3685L14.3004 75.6208L19.8119 73.6045Z" fill="#263238"/>
</svg>
