<svg width="24" height="24" viewBox="0 0 24 24" fill="none" xmlns="http://www.w3.org/2000/svg">
<circle cx="12" cy="12" r="12" fill="#3A5BCD" fill-opacity="0.15"/>
<path d="M8.66667 18V16.6667H11.3333V14.6C10.7889 14.4778 10.3027 14.2471 9.87467 13.908C9.44667 13.5689 9.13289 13.144 8.93333 12.6333C8.1 12.5333 7.40267 12.1696 6.84133 11.542C6.28 10.9144 5.99956 10.1782 6 9.33333V8.66667C6 8.3 6.13067 7.986 6.392 7.72467C6.65333 7.46333 6.96711 7.33289 7.33333 7.33333H8.66667V6H15.3333V7.33333H16.6667C17.0333 7.33333 17.3473 7.464 17.6087 7.72533C17.87 7.98667 18.0004 8.30044 18 8.66667V9.33333C18 10.1778 17.7193 10.914 17.158 11.542C16.5967 12.17 15.8996 12.5338 15.0667 12.6333C14.8667 13.1444 14.5527 13.5696 14.1247 13.9087C13.6967 14.2478 13.2107 14.4782 12.6667 14.6V16.6667H15.3333V18H8.66667ZM8.66667 11.2V8.66667H7.33333V9.33333C7.33333 9.75556 7.45556 10.1362 7.7 10.4753C7.94445 10.8144 8.26667 11.056 8.66667 11.2ZM12 13.3333C12.5556 13.3333 13.0278 13.1389 13.4167 12.75C13.8056 12.3611 14 11.8889 14 11.3333V7.33333H10V11.3333C10 11.8889 10.1944 12.3611 10.5833 12.75C10.9722 13.1389 11.4444 13.3333 12 13.3333ZM15.3333 11.2C15.7333 11.0556 16.0556 10.8138 16.3 10.4747C16.5444 10.1356 16.6667 9.75511 16.6667 9.33333V8.66667H15.3333V11.2Z" fill="#3A5BCD"/>
</svg>
