<svg width="147" height="45" viewBox="0 0 147 45" fill="none" xmlns="http://www.w3.org/2000/svg">
<g clip-path="url(#clip0_8625_18645)">
<path d="M58.8037 11.0508H60.405V18.7114H65.6624V20.2006H58.8037V11.0508Z" fill="#114D9C"/>
<path d="M67.1573 14.2517C67.4859 13.9365 67.907 13.6899 68.4207 13.5117C68.9391 13.3335 69.4759 13.2422 70.0452 13.2422C70.943 13.2422 71.6418 13.4843 72.1324 13.9731C72.623 14.4619 72.8683 15.1471 72.8683 16.0378V20.1948H71.3595V19.4502C70.8551 19.9984 70.147 20.2724 69.226 20.2724C68.467 20.2724 67.8607 20.0806 67.4072 19.6923C66.9536 19.304 66.7269 18.7832 66.7269 18.13C66.7269 17.4083 67.0184 16.8647 67.6062 16.5084C68.194 16.152 68.9715 15.9739 69.9434 15.9739C70.5172 15.9739 70.9893 16.0333 71.3595 16.1566C71.3688 15.6404 71.2577 15.2567 71.0263 15.0055C70.7949 14.7542 70.4154 14.6263 69.8739 14.6263C69.1936 14.6263 68.5364 14.8684 67.9024 15.3435L67.1619 14.2472L67.1573 14.2517ZM71.3549 18.0569V17.4037C70.9847 17.2804 70.5635 17.221 70.0961 17.221C68.8882 17.221 68.2819 17.5225 68.2819 18.1209C68.2819 18.3904 68.3976 18.6005 68.6244 18.7558C68.8511 18.9066 69.1612 18.9842 69.55 18.9842C70.3367 18.9842 70.9337 18.6736 71.3503 18.0569" fill="#114D9C"/>
<path d="M77.0751 11.0137H83.9616V12.5029H78.6811V14.8052H83.6192V16.2395H78.6811V18.6743H84.0959V20.1635H77.0751V11.0137Z" fill="#114D9C"/>
<path d="M89.9781 16.6451L92.7457 20.1625H90.8759L89.0108 17.7414L87.1041 20.1625H85.313L88.0714 16.6725L85.4473 13.3652H87.3031L89.0479 15.5488L90.7973 13.3652H92.6114L89.9781 16.6451Z" fill="#114D9C"/>
<path d="M100.095 18.6065C99.8219 19.1364 99.4146 19.5475 98.8778 19.8399C98.3409 20.1322 97.7624 20.2784 97.1423 20.2784C96.0315 20.2784 95.1337 19.9541 94.4534 19.31C93.7731 18.6659 93.4352 17.8116 93.4352 16.7473C93.4352 15.6829 93.7684 14.8835 94.4395 14.212C95.1106 13.5405 95.9853 13.207 97.059 13.207C97.7485 13.207 98.3548 13.3486 98.8778 13.6319C99.4007 13.9151 99.7802 14.2851 100.012 14.751L98.887 15.4819C98.4381 14.8881 97.8503 14.5912 97.1237 14.5912C96.499 14.5912 95.9853 14.7921 95.5872 15.1941C95.1892 15.5961 94.9902 16.1123 94.9902 16.7473C94.9902 17.3822 95.1985 17.8756 95.6196 18.2822C96.0408 18.6887 96.5915 18.8897 97.2811 18.8897C98.0031 18.8897 98.5816 18.5654 99.0166 17.9213L100.09 18.6019L100.095 18.6065Z" fill="#114D9C"/>
<path d="M107.338 18.8936C106.639 19.8164 105.709 20.2777 104.542 20.2777C103.376 20.2777 102.539 19.958 101.863 19.3184C101.187 18.6789 100.849 17.8201 100.849 16.7512C100.849 15.6823 101.159 14.8646 101.784 14.2022C102.409 13.5398 103.274 13.2109 104.385 13.2109C105.32 13.2109 106.093 13.4942 106.704 14.0652C107.315 14.6362 107.615 15.3899 107.615 16.3218C107.615 16.5502 107.588 16.8654 107.537 17.2765H102.427C102.488 17.8018 102.714 18.1993 103.103 18.4779C103.492 18.7566 103.982 18.8982 104.575 18.8982C105.352 18.8982 105.963 18.5967 106.417 17.9983L107.342 18.8982L107.338 18.8936ZM103.075 14.9331C102.747 15.1843 102.539 15.5361 102.441 15.9792H106.056C105.996 15.5178 105.815 15.1661 105.514 14.9194C105.214 14.6773 104.816 14.5539 104.325 14.5539C103.834 14.5539 103.409 14.6819 103.08 14.9331" fill="#114D9C"/>
<path d="M110.874 10.6211H109.365V20.1638H110.874V10.6211Z" fill="#114D9C"/>
<path d="M114.451 10.6211H112.942V20.1638H114.451V10.6211Z" fill="#114D9C"/>
<path d="M122.684 18.8936C121.986 19.8164 121.055 20.2777 119.889 20.2777C118.723 20.2777 117.885 19.958 117.209 19.3184C116.534 18.6789 116.196 17.8201 116.196 16.7512C116.196 15.6823 116.506 14.8646 117.131 14.2022C117.756 13.5398 118.621 13.2109 119.732 13.2109C120.667 13.2109 121.439 13.4942 122.05 14.0652C122.661 14.6362 122.962 15.3899 122.962 16.3218C122.962 16.5502 122.934 16.8654 122.883 17.2765H117.774C117.834 17.8018 118.061 18.1993 118.45 18.4779C118.838 18.7566 119.329 18.8982 119.921 18.8982C120.699 18.8982 121.31 18.5967 121.763 17.9983L122.689 18.8982L122.684 18.8936ZM118.422 14.9331C118.093 15.1843 117.885 15.5361 117.788 15.9792H121.402C121.342 15.5178 121.162 15.1661 120.861 14.9194C120.56 14.6773 120.162 14.5539 119.671 14.5539C119.181 14.5539 118.755 14.6819 118.427 14.9331" fill="#114D9C"/>
<path d="M124.711 13.3662H126.22V13.9829C126.739 13.4759 127.447 13.2246 128.34 13.2246C130.186 13.2246 131.107 14.257 131.107 16.3218V20.1635H129.599V16.4405C129.599 15.7964 129.46 15.3305 129.187 15.0427C128.914 14.7549 128.483 14.6133 127.9 14.6133C127.53 14.6133 127.197 14.7138 126.896 14.9194C126.595 15.1249 126.368 15.4036 126.22 15.7599V20.1635H124.711V13.3662Z" fill="#114D9C"/>
<path d="M139.479 18.6065C139.206 19.1364 138.799 19.5475 138.262 19.8399C137.725 20.1322 137.147 20.2784 136.527 20.2784C135.416 20.2784 134.518 19.9541 133.838 19.31C133.158 18.6659 132.82 17.8116 132.82 16.7473C132.82 15.6829 133.153 14.8835 133.824 14.212C134.495 13.5405 135.37 13.207 136.448 13.207C137.138 13.207 137.744 13.3486 138.267 13.6319C138.79 13.9151 139.169 14.2851 139.401 14.751L138.276 15.4819C137.827 14.8881 137.239 14.5912 136.513 14.5912C135.888 14.5912 135.374 14.7921 134.976 15.1941C134.578 15.5961 134.379 16.1123 134.379 16.7473C134.379 17.3822 134.588 17.8756 135.009 18.2822C135.43 18.6887 135.981 18.8897 136.67 18.8897C137.392 18.8897 137.971 18.5654 138.406 17.9213L139.479 18.6019V18.6065Z" fill="#114D9C"/>
<path d="M146.722 18.8936C146.023 19.8164 145.093 20.2777 143.927 20.2777C142.761 20.2777 141.918 19.958 141.247 19.3184C140.572 18.6789 140.234 17.8201 140.234 16.7512C140.234 15.6823 140.544 14.8646 141.169 14.2022C141.793 13.5398 142.659 13.2109 143.77 13.2109C144.704 13.2109 145.477 13.4942 146.088 14.0652C146.699 14.6362 147 15.3899 147 16.3218C147 16.5502 146.972 16.8654 146.921 17.2765H141.812C141.872 17.8018 142.099 18.1993 142.488 18.4779C142.876 18.7566 143.367 18.8982 143.959 18.8982C144.737 18.8982 145.348 18.5967 145.801 17.9983L146.727 18.8982L146.722 18.8936ZM142.46 14.9331C142.131 15.1843 141.923 15.5361 141.826 15.9792H145.44C145.38 15.5178 145.2 15.1661 144.899 14.9194C144.598 14.6773 144.2 14.5539 143.709 14.5539C143.219 14.5539 142.793 14.6819 142.465 14.9331" fill="#114D9C"/>
<path d="M94.0785 27.207H94.9162L97.7162 33.5018H96.5591L95.939 32.1086H93.0326L92.4217 33.5018H91.2832L94.0832 27.207H94.0785ZM93.4352 31.1767H95.5317L94.4858 28.783L93.4399 31.1767H93.4352Z" fill="#134E9B"/>
<path d="M102.793 32.4332C102.603 32.7987 102.326 33.0819 101.955 33.2829C101.585 33.4839 101.187 33.5844 100.761 33.5844C99.9978 33.5844 99.3776 33.3606 98.9102 32.9175C98.4428 32.4744 98.2067 31.8851 98.2067 31.1542C98.2067 30.4233 98.4381 29.8706 98.9009 29.4092C99.3637 28.9478 99.9654 28.7148 100.706 28.7148C101.178 28.7148 101.599 28.8108 101.96 29.0072C102.321 29.2036 102.58 29.4594 102.738 29.7746L101.965 30.2771C101.655 29.8706 101.252 29.665 100.752 29.665C100.322 29.665 99.97 29.802 99.697 30.0807C99.4239 30.3548 99.2851 30.7157 99.2851 31.1496C99.2851 31.5836 99.4285 31.9262 99.7155 32.2048C100.002 32.4835 100.387 32.6251 100.859 32.6251C101.358 32.6251 101.756 32.4013 102.053 31.9582L102.793 32.4241V32.4332Z" fill="#134E9B"/>
<path d="M103.788 29.4144C104.015 29.1997 104.302 29.0307 104.658 28.9073C105.015 28.784 105.385 28.7246 105.774 28.7246C106.394 28.7246 106.87 28.8936 107.208 29.2271C107.546 29.5651 107.713 30.0356 107.713 30.6478V33.5074H106.676V32.9958C106.329 33.3749 105.838 33.5622 105.209 33.5622C104.686 33.5622 104.269 33.4297 103.955 33.1602C103.64 32.8952 103.487 32.5344 103.487 32.0867C103.487 31.5888 103.691 31.2188 104.094 30.9721C104.496 30.7254 105.033 30.6021 105.704 30.6021C106.098 30.6021 106.426 30.6432 106.681 30.7254C106.685 30.3737 106.611 30.1087 106.454 29.9351C106.297 29.7616 106.033 29.6748 105.662 29.6748C105.195 29.6748 104.742 29.8392 104.306 30.1681L103.797 29.4144H103.788ZM106.681 32.0319V31.5842C106.426 31.502 106.135 31.4563 105.815 31.4563C104.982 31.4563 104.566 31.6619 104.566 32.0776C104.566 32.2649 104.644 32.411 104.802 32.5161C104.959 32.6212 105.172 32.6714 105.44 32.6714C105.982 32.6714 106.394 32.4567 106.681 32.0319Z" fill="#134E9B"/>
<path d="M112.512 32.9908C112.41 33.137 112.239 33.2695 112.007 33.3928C111.771 33.5162 111.498 33.5756 111.184 33.5756C110.499 33.5756 109.943 33.3609 109.527 32.936C109.106 32.5112 108.897 31.9219 108.897 31.1728C108.897 30.4236 109.129 29.8709 109.587 29.4095C110.045 28.9481 110.605 28.7151 111.258 28.7151C111.822 28.7151 112.244 28.8339 112.517 29.0669V26.9336H113.558V33.5025H112.517V32.9908H112.512ZM112.072 32.4016C112.281 32.2554 112.429 32.0864 112.512 31.8945V30.1861C112.271 29.8435 111.906 29.6744 111.429 29.6744C111.017 29.6744 110.67 29.8069 110.388 30.0764C110.11 30.3414 109.967 30.7068 109.967 31.1591C109.967 31.6113 110.096 31.963 110.355 32.228C110.614 32.4929 110.952 32.6254 111.373 32.6254C111.628 32.6254 111.859 32.5523 112.072 32.4061" fill="#134E9B"/>
<path d="M119.223 32.6336C118.741 33.2685 118.103 33.5883 117.302 33.5883C116.501 33.5883 115.923 33.369 115.455 32.9259C114.993 32.4828 114.757 31.8936 114.757 31.1581C114.757 30.4226 114.969 29.8608 115.4 29.404C115.826 28.9472 116.427 28.7188 117.191 28.7188C117.834 28.7188 118.366 28.9152 118.788 29.308C119.209 29.7009 119.417 30.2171 119.417 30.8612C119.417 31.0165 119.398 31.2358 119.361 31.519H115.844C115.886 31.8799 116.043 32.1539 116.307 32.3458C116.575 32.5377 116.913 32.6336 117.32 32.6336C117.853 32.6336 118.278 32.428 118.589 32.0123L119.227 32.6336H119.223ZM116.288 29.9064C116.062 30.08 115.918 30.3221 115.849 30.6282H118.339C118.297 30.3084 118.172 30.0663 117.964 29.9019C117.756 29.7329 117.482 29.6506 117.145 29.6506C116.807 29.6506 116.515 29.7374 116.288 29.911" fill="#134E9B"/>
<path d="M127.437 33.506H126.396V30.6921C126.396 30.0206 126.132 29.6826 125.605 29.6826C125.119 29.6826 124.767 29.9247 124.545 30.4043V33.506H123.508V30.4637C123.508 30.2307 123.439 30.0435 123.304 29.8973C123.166 29.7557 122.976 29.6826 122.735 29.6826C122.481 29.6826 122.259 29.7602 122.069 29.911C121.879 30.0617 121.745 30.2399 121.657 30.4454V33.506H120.62V28.8284H121.657V29.2349C121.898 28.9014 122.333 28.7324 122.953 28.7324C123.573 28.7324 123.976 28.9243 124.239 29.308C124.568 28.9243 125.045 28.7324 125.669 28.7324C126.229 28.7324 126.664 28.8695 126.975 29.1527C127.285 29.4313 127.442 29.8516 127.442 30.4089V33.5106L127.437 33.506Z" fill="#134E9B"/>
<path d="M129.441 34.3783C129.501 34.4149 129.571 34.4331 129.65 34.4331C129.936 34.4331 130.182 34.1728 130.399 33.652L130.561 33.2272L128.229 28.8281H129.432L131.061 31.9847L132.32 28.8281H133.431L131.57 33.3688C131.255 34.1316 130.959 34.657 130.682 34.9493C130.404 35.2417 130.071 35.3879 129.682 35.3879C129.427 35.3879 129.21 35.3422 129.025 35.2508L129.437 34.3783H129.441Z" fill="#134E9B"/>
<path d="M72.0167 26.8828H73.4653V33.5065H72.0167V26.8828Z" fill="#E75D24"/>
<path d="M77.1631 26.8828H78.5932L81.5134 33.5065H80.0417L79.5882 32.4559H76.182L75.7284 33.5065H74.2474L77.1677 26.8828H77.1631ZM79.13 31.3367L78.3525 29.4455C78.1442 28.943 77.8851 28.2806 77.8758 28.2624C77.8666 28.2806 77.6074 28.9476 77.3991 29.4455L76.6216 31.3367H79.1254H79.13Z" fill="#E75D24"/>
<path d="M82.0225 32.7171L82.5501 31.6116C83.087 31.9999 83.7303 32.338 84.753 32.338C85.313 32.338 85.9934 32.0822 85.9934 31.5614C85.9934 31.0406 85.3917 30.9173 84.804 30.7757C83.5498 30.4879 82.2585 30.0722 82.2585 28.6927C82.2585 27.4136 83.4711 26.7832 84.753 26.7832C85.7666 26.7832 86.5348 27.0481 87.2059 27.4867L86.6783 28.5922C86.1415 28.245 85.438 28.0623 84.753 28.0623C84.4013 28.0623 83.7395 28.1947 83.7395 28.6972C83.7395 29.1266 84.2255 29.2819 84.8873 29.4327C86.0767 29.7068 87.5067 30.1499 87.5067 31.5705C87.5067 32.9912 86.0998 33.6262 84.753 33.6262C83.1471 33.6262 82.3928 33.0232 82.0179 32.7263L82.0225 32.7171Z" fill="#E75D24"/>
<path d="M67.8515 30.2949H58.85V31.0304H67.8515V30.2949Z" fill="#134E9B"/>
<path d="M147 30.2949H137.998V31.0304H147V30.2949Z" fill="#134E9B"/>
<path d="M51.4544 1.63086H50.1771V43.3647H51.4544V1.63086Z" fill="#114D9C"/>
<path d="M32.4055 7.64788C31.3318 7.24589 30.2025 6.80279 29.0548 6.32771C27.8237 5.82066 26.7407 5.35015 25.7411 4.89334C24.9312 4.52333 24.0704 4.12134 23.2466 3.6554L22.4274 3.18945L21.6083 3.6554C20.7752 4.12591 19.919 4.52333 19.1138 4.89334C18.1095 5.35015 17.0265 5.82066 15.8001 6.32771C14.6477 6.80279 13.5231 7.24589 12.4494 7.64788C11.6117 7.96308 10.7139 8.29198 9.78829 8.57977L8.58963 8.95435L8.73773 21.9094H9.13574L8.99227 9.30152L9.89473 9.0183C10.8157 8.73051 11.7274 8.39705 12.5744 8.08185C13.6434 7.67986 14.7773 7.23676 15.9389 6.75711C17.17 6.25006 18.2576 5.77955 19.2665 5.31817C20.044 4.96186 20.9465 4.5416 21.7888 4.06195L22.4367 3.69651L23.0846 4.06195C23.9315 4.5416 24.8294 4.96186 25.6069 5.31817C26.6065 5.77498 27.6941 6.24549 28.9344 6.75711C30.0914 7.23219 31.2207 7.67986 32.2944 8.08185C33.1413 8.39705 34.053 8.73051 34.974 9.0183L35.8765 9.30152L35.733 21.7678C35.8302 21.8134 35.969 21.8683 36.1264 21.9231L36.2745 8.95435L35.0758 8.57977C34.1548 8.29198 33.2524 7.95851 32.4147 7.64788" fill="#114D9C"/>
<path d="M35.0851 8.41514C34.1641 8.12735 33.2662 7.79845 32.4332 7.48326C31.3641 7.08127 30.2395 6.63816 29.0871 6.16309C27.8561 5.65603 26.7778 5.19009 25.7781 4.73328C24.9728 4.36327 24.1166 3.96585 23.2928 3.4999L22.3858 2.98828L21.4787 3.4999C20.6549 3.96585 19.7987 4.36327 18.9934 4.73328C17.9938 5.19009 16.9108 5.6606 15.6844 6.16309C14.5274 6.63816 13.4028 7.08127 12.3383 7.48326C11.5053 7.79388 10.6121 8.12279 9.68645 8.41514L8.36746 8.83084L8.52019 22.0828H9.26067L9.1172 9.42925L9.89471 9.18714C10.8203 8.89936 11.732 8.56589 12.5836 8.24612C13.6666 7.83957 14.7958 7.39646 15.9528 6.92138C17.1885 6.41433 18.2807 5.93925 19.285 5.47788C20.0671 5.12157 20.9696 4.70131 21.8211 4.21709L22.3858 3.89733L22.9504 4.21709C23.8066 4.70131 24.709 5.12157 25.4865 5.47788C26.4862 5.93468 27.5784 6.40976 28.8187 6.92138C29.9757 7.39646 31.1096 7.84413 32.1879 8.24612C33.0348 8.56589 33.9512 8.89936 34.8722 9.18714L35.6497 9.42925L35.5062 21.8772L35.608 21.9229C35.7052 21.9686 35.8533 22.0234 36.0153 22.0828L36.2421 22.165L36.3948 8.83084L35.0758 8.41514H35.0851Z" fill="#114D9C"/>
<path d="M35.372 30.4595L35.335 30.5828C34.9879 31.8071 34.4232 32.9582 33.6642 34.0043C31.2484 37.3116 27.2498 39.148 23.7232 40.7651L22.7143 41.2264L21.6869 40.7559C20.2615 40.1027 18.7851 39.422 17.3736 38.6363C13.2269 36.3203 10.8944 33.6937 10.0289 30.3681L9.99652 30.2402H9.22827L9.27918 30.4549C9.33472 30.6833 9.39951 30.9117 9.46893 31.1264L9.5476 31.3731H9.52909L9.58926 31.7157H9.67256L9.71421 31.8254C10.8573 34.7718 13.25 37.2294 17.0358 39.3398C18.4704 40.1392 19.9792 40.8336 21.4416 41.5051L22.7143 42.0898L23.9408 41.5234C27.7635 39.7692 31.7205 37.9511 34.2474 34.4885C34.8537 33.6617 35.3442 32.7618 35.7098 31.8162L35.8394 31.4279C35.8626 31.3457 35.895 31.2681 35.9366 31.1813L35.9551 31.1219C36.0014 30.9803 36.0431 30.8249 36.0893 30.6651L36.1449 30.4504H35.3766L35.372 30.4595Z" fill="#114D9C"/>
<path fill-rule="evenodd" clip-rule="evenodd" d="M42.5316 28.5184L45.0261 23.7402H40.4813V21.7714H38.806L38.9865 6.87037L37.3111 6.34504C36.2791 6.02071 35.2563 5.65069 34.2428 5.26698C32.9423 4.77819 31.6464 4.26657 30.3599 3.73668C29.0733 3.20678 27.7913 2.65861 26.5232 2.07847C25.556 1.63537 24.5841 1.17856 23.6538 0.653233L22.5015 0L21.3491 0.653233C20.4189 1.17856 19.447 1.63537 18.4797 2.07847C17.2116 2.65861 15.9297 3.20678 14.6431 3.73668C13.3565 4.26657 12.0606 4.77819 10.7602 5.26698C9.74199 5.64613 8.72383 6.02071 7.69178 6.34504L6.01643 6.87037L6.19693 21.7714H4.52158V23.7402H0L2.49451 28.5184L1.06445 32.922H7.20121C8.7192 36.8369 11.9311 39.6005 15.8001 41.7612C17.6374 42.7845 19.5488 43.6433 21.4509 44.5204L22.4968 45L23.5428 44.5204C28.0366 42.451 32.9886 40.2766 36.0616 36.0649C36.7836 35.0736 37.3574 34.0229 37.7832 32.922H43.957L42.5269 28.5184H42.5316ZM7.27988 7.8525L8.04351 7.61496C9.09407 7.28606 10.1446 6.90234 11.1767 6.51863C12.491 6.02528 13.7961 5.50909 15.0966 4.97462C16.3971 4.44016 17.6976 3.88285 18.9795 3.29814C19.9746 2.84134 20.9881 2.36626 21.9461 1.82723L22.5015 1.51203L23.0568 1.82723C24.0102 2.36626 25.0284 2.8459 26.0234 3.30271C27.3054 3.88742 28.6012 4.44473 29.9063 4.97919C31.2068 5.51365 32.5119 6.02984 33.8262 6.5232C34.8629 6.91148 35.9089 7.29063 36.9594 7.61953L37.723 7.85707L37.5518 21.776H7.45112L7.27988 7.85707V7.8525ZM5.40091 22.7033H39.5974V29.834H5.40091V22.7033ZM2.19368 32.0952L3.37846 28.4408L1.35138 24.567H4.5077V30.7659H6.56254C6.6551 31.2227 6.7708 31.6658 6.90501 32.0952H2.19368ZM35.0619 35.2563C32.1648 39.2305 27.2822 41.3501 23.0383 43.3052L22.4968 43.5519L21.9554 43.3052C20.081 42.4419 18.1974 41.5968 16.3878 40.5872C12.292 38.3032 8.91358 35.3203 7.86302 30.7659H37.126C36.7512 32.3784 36.0708 33.8768 35.0619 35.2563ZM38.4219 30.7659H40.4813V24.567H43.6701L41.643 28.4408L42.8278 32.0952H38.0701C38.209 31.6613 38.3247 31.2181 38.4172 30.7659" fill="#114D9C"/>
<path d="M14.7773 32.4844L15.1522 33.2792L15.9852 33.4071L15.3836 34.0238L15.5224 34.8963L14.7773 34.4852L14.0322 34.8963L14.1756 34.0238L13.5694 33.4071L14.407 33.2792L14.7773 32.4844Z" fill="#114D9C"/>
<path d="M30.619 32.4844L30.9893 33.2792L31.8269 33.4071L31.2207 34.0238L31.3641 34.8963L30.619 34.4852L29.8693 34.8963L30.0127 34.0238L29.4111 33.4071L30.2441 33.2792L30.619 32.4844Z" fill="#114D9C"/>
<path d="M25.3246 18.5606V18.5469H19.6182C19.6043 18.6154 19.5951 18.6519 19.5904 18.6885C19.5812 18.8529 19.5719 18.958 19.5904 19.0265C19.5627 19.2321 19.6043 19.4239 19.7339 19.6204C20.0393 20.068 20.3726 20.4929 20.6549 20.9542C20.803 21.2009 20.9002 21.4933 20.9464 21.7765C20.9557 21.8267 20.9557 21.8724 20.9603 21.9181H21.5111C21.5111 21.612 21.4463 21.2969 21.2935 20.9817C21.1038 20.5934 20.8261 20.2416 20.5993 19.8716C20.4512 19.6295 20.3078 19.3874 20.1643 19.1453H24.9173C24.9173 19.1453 24.9265 19.1453 24.9312 19.1453C24.7877 19.3874 24.6442 19.6295 24.4961 19.867C24.2694 20.2416 23.9871 20.5888 23.7973 20.9771C23.6446 21.2923 23.5752 21.6075 23.5798 21.9135H24.1305C24.1305 21.8679 24.1305 21.8222 24.1444 21.7719C24.1907 21.4887 24.2879 21.1964 24.436 20.9497C24.7137 20.4883 25.0515 20.0635 25.357 19.6158C25.5884 19.2778 25.5467 18.9397 25.3292 18.5514" fill="#114D9C"/>
<path d="M24.2462 22.0404H23.4595V21.9216C23.4548 21.5927 23.5289 21.2593 23.6862 20.9349C23.8112 20.6791 23.9732 20.437 24.1305 20.204C24.2185 20.0761 24.3064 19.9437 24.3897 19.8112C24.5008 19.633 24.6072 19.4503 24.7183 19.2676H20.3679C20.4744 19.4503 20.5855 19.633 20.6965 19.8112C20.7752 19.9437 20.8631 20.0716 20.9511 20.204C21.1084 20.437 21.2704 20.6791 21.3954 20.9349C21.5527 21.2593 21.6314 21.5882 21.6268 21.9216V22.0404H20.84V21.9262C20.84 21.8851 20.8354 21.844 20.8261 21.7983C20.7752 21.5014 20.678 21.2319 20.5484 21.0172C20.3726 20.7294 20.1736 20.4462 19.9792 20.1766C19.8635 20.0168 19.7478 19.8523 19.6367 19.6879C19.4979 19.4823 19.4423 19.2676 19.4701 19.0346C19.4562 18.9524 19.4608 18.8519 19.4701 18.6829C19.4701 18.6555 19.4794 18.6281 19.484 18.587L19.5164 18.4316H25.4449V18.5321C25.6855 18.9752 25.6902 19.3453 25.4541 19.6924C25.3431 19.8569 25.2274 20.0168 25.1117 20.1812C24.9173 20.4507 24.7137 20.7339 24.5424 21.0217C24.4128 21.241 24.3156 21.5105 24.2647 21.8029C24.2601 21.844 24.2555 21.8851 24.2555 21.9308V22.045L24.2462 22.0404ZM23.7001 21.8029H24.0148C24.0148 21.8029 24.0148 21.7755 24.0194 21.7618C24.0565 21.5334 24.1444 21.2045 24.3249 20.8984C24.5054 20.6015 24.709 20.3183 24.908 20.0442C25.0237 19.8843 25.1394 19.7244 25.2505 19.56C25.431 19.295 25.431 19.0255 25.2459 18.6692H19.7154C19.7154 18.6692 19.7154 18.692 19.7108 18.7012C19.7015 18.8336 19.6969 18.9524 19.7108 19.0026V19.0255V19.0483C19.683 19.2356 19.7246 19.3955 19.8357 19.56C19.9468 19.7244 20.0625 19.8843 20.1782 20.0442C20.3772 20.3183 20.5808 20.606 20.7613 20.903C20.9464 21.209 21.0297 21.5425 21.0668 21.7663C21.0668 21.78 21.0668 21.7937 21.0714 21.8074H21.3861C21.3722 21.5516 21.3028 21.2958 21.1825 21.04C21.0668 20.7979 20.9048 20.5649 20.7567 20.3411C20.6688 20.2086 20.5762 20.0761 20.4929 19.9391C20.3448 19.697 20.2013 19.4549 20.0579 19.2128L19.9514 19.0346H25.1209L25.033 19.2128C24.8895 19.4549 24.746 19.697 24.598 19.9391C24.5146 20.0761 24.4267 20.2086 24.3342 20.3411C24.1814 20.5649 24.0241 20.7979 23.9037 21.04C23.7834 21.2912 23.714 21.5471 23.7001 21.8074" fill="#114D9C"/>
<path d="M23.6538 19.8203H21.4231V20.1355H23.6538V19.8203Z" fill="#114D9C"/>
<path d="M21.076 18.4649C20.9973 18.4375 20.914 18.4192 20.8354 18.3827C19.2156 17.6564 18.239 15.9845 18.3686 14.2258C18.4334 13.335 18.7342 12.5447 19.2618 11.8275C19.6182 11.3433 19.9838 10.8637 20.3541 10.3886C21.1917 9.31509 21.6499 8.11369 21.6406 6.74784C21.6406 6.70216 21.6499 6.66104 21.6592 6.56055C22.6634 7.10871 23.4502 7.8396 24.0194 8.78976C24.5887 9.73992 24.834 10.7769 24.797 11.8778L24.8756 11.9235C25.033 11.7362 25.2181 11.5626 25.3338 11.3524C25.4495 11.1469 25.5004 10.9002 25.593 10.6307C26.5464 12.2569 27.1989 13.906 26.6482 15.7835C26.2872 17.0123 25.468 17.8802 24.2786 18.4055C24.2323 18.4284 24.1768 18.4421 24.0981 18.4238C24.1351 18.3827 24.1675 18.337 24.2092 18.2959C25.1209 17.4462 25.3246 16.2266 24.7044 15.1348C24.4961 14.7694 24.237 14.4313 23.9778 14.0933C23.478 13.4355 23.0846 12.7366 23.1124 11.8732C22.3534 12.2478 21.4463 13.7735 21.6777 15.7561C21.1825 15.651 20.9326 15.2307 20.8076 14.2623C20.3541 14.9521 20.1273 15.6738 20.1227 16.4458C20.118 17.2452 20.4651 17.903 21.0714 18.4466" fill="#E75D24"/>
<path d="M32.8914 25.0508H32.4749V27.4307H32.8914V25.0508Z" fill="#E75D24"/>
<path d="M34.3585 25.0508H34.6732L35.733 27.4307H35.2933L35.0573 26.9054H33.9558L33.7244 27.4307H33.294L34.3538 25.0508H34.3585ZM34.1132 26.5537H34.9046L34.5065 25.6492L34.1085 26.5537H34.1132Z" fill="#E75D24"/>
<path d="M37.4639 26.6046C37.4083 26.5544 37.3389 26.5179 37.251 26.4859C37.1631 26.4585 37.0659 26.4311 36.9641 26.4082C36.8576 26.3854 36.7512 26.358 36.6447 26.3214C36.5383 26.2895 36.4411 26.2483 36.3578 26.2027C36.2698 26.157 36.2004 26.0885 36.1449 26.0017C36.0894 25.9149 36.0616 25.8144 36.0616 25.6956C36.0616 25.5083 36.1495 25.3484 36.33 25.216C36.5059 25.0835 36.7327 25.0195 37.0057 25.0195C37.4037 25.0195 37.7138 25.1337 37.9406 25.3621L37.7138 25.6545C37.5102 25.49 37.2741 25.4078 36.9965 25.4078C36.853 25.4078 36.7327 25.4307 36.6355 25.4763C36.5383 25.522 36.492 25.5905 36.492 25.6865C36.492 25.7596 36.529 25.8235 36.6031 25.8738C36.6771 25.924 36.7697 25.9606 36.8808 25.9834C36.9918 26.0062 37.1122 26.0382 37.2417 26.0748C37.3713 26.1113 37.4916 26.1524 37.5981 26.1981C37.7092 26.2438 37.8017 26.3123 37.8758 26.4082C37.9498 26.5042 37.9868 26.6229 37.9868 26.7554C37.9868 26.961 37.8989 27.13 37.7184 27.2625C37.5379 27.3949 37.3204 27.4589 37.0612 27.4589C36.8484 27.4589 36.6447 27.4178 36.4503 27.3355C36.256 27.2533 36.1032 27.1482 35.9968 27.0249L36.2467 26.7371C36.4642 26.9655 36.7465 27.0797 37.0983 27.0797C37.2417 27.0797 37.3574 27.0523 37.4361 27.0021C37.5148 26.9518 37.5564 26.8787 37.5564 26.7874C37.5564 26.7143 37.5287 26.6549 37.4731 26.6046" fill="#E75D24"/>
<path d="M6.80783 25.0371H7.24749V27.143H8.69144V27.5495H6.80783V25.0371Z" fill="#114D9C"/>
<path d="M9.10332 25.9147C9.19125 25.8279 9.30695 25.7594 9.45042 25.7137C9.59389 25.6635 9.74199 25.6406 9.89471 25.6406C10.14 25.6406 10.3344 25.7091 10.4686 25.8416C10.6028 25.9741 10.6722 26.166 10.6722 26.4081V27.5501H10.2557V27.3445C10.1169 27.4953 9.92248 27.5729 9.66794 27.5729C9.45968 27.5729 9.29307 27.5181 9.16811 27.413C9.04316 27.308 8.97836 27.1618 8.97836 26.9836C8.97836 26.7872 9.05704 26.6365 9.21902 26.5405C9.381 26.44 9.59389 26.3944 9.86232 26.3944C10.0197 26.3944 10.1493 26.4126 10.2511 26.4446C10.2511 26.303 10.2233 26.1979 10.1585 26.1294C10.0937 26.0609 9.9919 26.0243 9.8438 26.0243C9.65868 26.0243 9.47819 26.0883 9.30233 26.2208L9.09869 25.9193L9.10332 25.9147ZM10.2557 26.9608V26.7826C10.1539 26.7507 10.0382 26.7324 9.9086 26.7324C9.57538 26.7324 9.40877 26.8146 9.40877 26.9791C9.40877 27.0522 9.44117 27.1115 9.50133 27.1527C9.56612 27.1938 9.64943 27.2166 9.75587 27.2166C9.97339 27.2166 10.1354 27.1298 10.2511 26.9608" fill="#114D9C"/>
<path d="M11.8292 25.0234H13.7221V25.4346H12.2689V26.065H13.6295V26.4624H12.2689V27.1293H13.7591V27.5404H11.8292V25.0234Z" fill="#114D9C"/>
<path d="M15.3743 26.5718L16.1379 27.5402H15.6242L15.1105 26.8733L14.5875 27.5402H14.097L14.8513 26.5809L14.1294 25.6719H14.6384L15.1197 26.2703L15.6011 25.6719H16.1009L15.3743 26.5718Z" fill="#114D9C"/>
<path d="M18.1558 27.1122C18.0817 27.2584 17.9706 27.3726 17.8225 27.4503C17.6744 27.5325 17.5171 27.569 17.3459 27.569C17.0404 27.569 16.7951 27.4822 16.6054 27.3041C16.4202 27.1259 16.3231 26.893 16.3231 26.6006C16.3231 26.3083 16.4156 26.089 16.6007 25.9017C16.7859 25.719 17.0265 25.623 17.3227 25.623C17.5125 25.623 17.6791 25.6596 17.8225 25.7418C17.966 25.8195 18.0725 25.92 18.1326 26.0479L17.8225 26.2489C17.6976 26.0844 17.5356 26.0068 17.3366 26.0068C17.1654 26.0068 17.0219 26.0616 16.9154 26.1712C16.8044 26.2808 16.7535 26.4225 16.7535 26.6006C16.7535 26.7788 16.809 26.9112 16.9247 27.0209C17.0404 27.1305 17.1931 27.1899 17.3829 27.1899C17.5819 27.1899 17.7392 27.1031 17.8596 26.9249L18.1558 27.1122Z" fill="#114D9C"/>
<path d="M20.1458 27.1892C19.9561 27.445 19.6969 27.5684 19.3776 27.5684C19.0582 27.5684 18.8268 27.4816 18.6417 27.3034C18.4566 27.1298 18.364 26.8923 18.364 26.6C18.364 26.3076 18.4473 26.0792 18.6186 25.901C18.7898 25.7183 19.0258 25.627 19.3359 25.627C19.5951 25.627 19.8033 25.7046 19.9746 25.8599C20.1458 26.0152 20.2245 26.2254 20.2245 26.4812C20.2245 26.5451 20.2199 26.6319 20.2013 26.7416H18.799C18.8176 26.8832 18.8777 26.9974 18.9842 27.0705C19.0906 27.1481 19.2248 27.1847 19.3868 27.1847C19.5997 27.1847 19.7663 27.1024 19.8913 26.938L20.1458 27.1847V27.1892ZM18.9749 26.102C18.887 26.1706 18.8268 26.2665 18.799 26.3898H19.7941C19.7756 26.2619 19.7293 26.166 19.646 26.0975C19.5627 26.0289 19.4562 25.997 19.3174 25.997C19.1785 25.997 19.0628 26.0335 18.9749 26.102Z" fill="#114D9C"/>
<path d="M21.1223 24.918H20.7058V27.54H21.1223V24.918Z" fill="#114D9C"/>
<path d="M22.1034 24.918H21.6869V27.54H22.1034V24.918Z" fill="#114D9C"/>
<path d="M24.3666 27.1892C24.1768 27.445 23.9177 27.5684 23.5983 27.5684C23.279 27.5684 23.0476 27.4816 22.8625 27.3034C22.6773 27.1298 22.5848 26.8923 22.5848 26.6C22.5848 26.3076 22.6681 26.0792 22.8393 25.901C23.0106 25.7183 23.2466 25.627 23.5567 25.627C23.8158 25.627 24.0241 25.7046 24.1953 25.8599C24.3666 26.0152 24.4452 26.2254 24.4452 26.4812C24.4452 26.5451 24.4406 26.6319 24.4221 26.7416H23.0198C23.0383 26.8832 23.0985 26.9974 23.2049 27.0705C23.3114 27.1481 23.4456 27.1847 23.6076 27.1847C23.8205 27.1847 23.9871 27.1024 24.112 26.938L24.3666 27.1847V27.1892ZM23.1957 26.102C23.1077 26.1706 23.0476 26.2665 23.0198 26.3898H24.0148C23.9963 26.2619 23.95 26.166 23.8667 26.0975C23.7834 26.0289 23.677 25.997 23.5382 25.997C23.3993 25.997 23.2836 26.0335 23.1957 26.102Z" fill="#114D9C"/>
<path d="M24.9219 25.672H25.3385V25.841C25.4819 25.7039 25.6763 25.6309 25.9216 25.6309C26.4307 25.6309 26.6806 25.9141 26.6806 26.4805V27.5357H26.2641V26.5125C26.2641 26.3343 26.227 26.2064 26.153 26.1288C26.0789 26.0511 25.9586 26.01 25.8013 26.01C25.6994 26.01 25.6069 26.0374 25.5236 26.0968C25.4403 26.1516 25.3801 26.2293 25.3385 26.3298V27.5403H24.9219V25.672Z" fill="#114D9C"/>
<path d="M28.9807 27.1122C28.9067 27.2584 28.7956 27.3726 28.6475 27.4503C28.4994 27.5325 28.342 27.569 28.1708 27.569C27.8654 27.569 27.6201 27.4822 27.4303 27.3041C27.2452 27.1259 27.148 26.893 27.148 26.6006C27.148 26.3083 27.2406 26.089 27.4257 25.9017C27.6108 25.719 27.8515 25.623 28.1477 25.623C28.3374 25.623 28.504 25.6596 28.6475 25.7418C28.791 25.8195 28.8974 25.92 28.9576 26.0479L28.6475 26.2489C28.5225 26.0844 28.3606 26.0068 28.1615 26.0068C27.9903 26.0068 27.8468 26.0616 27.7404 26.1712C27.6293 26.2808 27.5784 26.4225 27.5784 26.6006C27.5784 26.7788 27.634 26.9112 27.7497 27.0209C27.8654 27.1305 28.0181 27.1899 28.2078 27.1899C28.4068 27.1899 28.5642 27.1031 28.6845 26.9249L28.9807 27.1122Z" fill="#114D9C"/>
<path d="M30.9708 27.1892C30.781 27.445 30.5218 27.5684 30.2025 27.5684C29.8832 27.5684 29.6518 27.4816 29.4666 27.3034C29.2815 27.1298 29.189 26.8923 29.189 26.6C29.189 26.3076 29.2723 26.0792 29.4435 25.901C29.6147 25.7183 29.8554 25.627 30.1608 25.627C30.42 25.627 30.6283 25.7046 30.7995 25.8599C30.9708 26.0152 31.0494 26.2254 31.0494 26.4812C31.0494 26.5451 31.0448 26.6319 31.0263 26.7416H29.624C29.6425 26.8832 29.7027 26.9974 29.8091 27.0705C29.9156 27.1481 30.0498 27.1847 30.2118 27.1847C30.4246 27.1847 30.5913 27.1024 30.7162 26.938L30.9708 27.1847V27.1892ZM29.7999 26.102C29.7119 26.1706 29.6518 26.2665 29.624 26.3898H30.619C30.6005 26.2619 30.5542 26.166 30.4709 26.0975C30.3876 26.0289 30.2812 25.997 30.1423 25.997C30.0035 25.997 29.8878 26.0335 29.7999 26.102Z" fill="#114D9C"/>
<path d="M22.6866 35.4297L23.3808 36.9052L24.9312 37.1427L23.8066 38.2893L24.075 39.911L22.6866 39.1435L21.2982 39.911L21.5666 38.2893L20.442 37.1427L21.9924 36.9052L22.6866 35.4297Z" fill="#114D9C"/>
<path d="M27.5599 33.1496H26.551V34.2094C26.4399 34.2185 26.3659 34.2231 26.2826 34.2277C26.2594 34.15 26.2409 34.0861 26.2178 34.0084C25.7735 34.1272 25.4125 34.0952 25.3986 33.5014C25.5328 33.4237 25.7365 33.3963 25.6624 33.1496H25.1302V34.2094H24.8525C24.8525 34.0541 24.8525 33.8942 24.8525 33.7343C24.8525 33.6064 24.8062 33.5425 24.6674 33.5836C24.5285 33.9582 24.3527 34.0998 24.0981 34.0358C23.839 33.9719 23.7603 33.7846 23.8251 33.3735C23.8853 33.3689 23.9547 33.3643 24.038 33.3552C24.0472 33.4328 24.0611 33.5014 24.0657 33.5699C24.0704 33.6749 24.0704 33.7983 24.2092 33.7846C24.2648 33.78 24.3203 33.6612 24.3481 33.5881C24.3712 33.5288 24.3619 33.4511 24.3666 33.3917C24.6504 33.343 24.8109 33.2608 24.8479 33.145H23.7001C23.6909 33.0491 23.6816 32.9852 23.6724 32.8984H27.5275C27.4905 32.6745 27.3378 32.638 27.1526 32.6334C27.148 32.5603 27.1434 32.5055 27.1388 32.4416C27.1712 32.4279 27.1989 32.4096 27.2267 32.405C27.4072 32.3959 27.5368 32.4735 27.6571 32.606C27.7543 32.7111 27.7728 32.9029 27.9764 32.8984C27.9764 32.9715 27.9857 33.0994 27.9718 33.1039C27.7867 33.145 27.8376 33.2821 27.8376 33.3963C27.8376 33.6612 27.8376 33.9216 27.8376 34.2094C27.7497 34.214 27.6802 34.2231 27.5738 34.2277V33.5699C27.4581 33.5699 27.3609 33.5425 27.2869 33.5744C27.2035 33.611 27.111 33.6886 27.0878 33.7663C27.0693 33.8211 27.1434 33.9536 27.2035 33.9719C27.3424 34.0175 27.347 34.0906 27.31 34.2003C26.9999 34.2185 26.8287 34.1043 26.787 33.8622C26.7454 33.6064 26.8703 33.4237 27.1526 33.3552C27.2498 33.3323 27.3563 33.3369 27.4535 33.3095C27.5044 33.2958 27.5368 33.2364 27.583 33.1999C27.5738 33.1816 27.5645 33.1633 27.5553 33.145M25.6532 33.6201C25.7411 33.8028 25.8522 33.8759 26.0095 33.844C26.1715 33.8074 26.2455 33.6978 26.2409 33.5379C26.2409 33.41 26.2409 33.2821 26.2409 33.1496H25.991C25.9679 33.3643 25.9216 33.5562 25.6532 33.6247" fill="#114D9C"/>
<path d="M18.7574 34.2249H18.4936C18.4705 34.1289 18.4427 34.0376 18.4149 33.9325C18.1558 33.9828 18.0586 34.3619 17.7161 34.2157C17.8503 34.0924 17.9799 33.9782 18.1141 33.8594C18.0169 33.7133 17.9244 33.6904 17.804 33.7955C17.693 33.8914 17.5634 33.9371 17.3829 33.8549C17.4939 33.7589 17.5865 33.6813 17.6791 33.6036C17.443 33.3158 17.4199 33.1468 17.5772 32.9869C17.693 32.8682 18.0077 32.8499 18.1511 32.9595C18.3085 33.0783 18.3085 33.261 18.1372 33.5579C18.2252 33.6036 18.3085 33.6493 18.4427 33.7224C18.4473 33.5579 18.4566 33.4346 18.4566 33.3113C18.4566 33.1925 18.4566 33.0692 18.4566 32.923H20.4744C20.4605 32.9915 20.4559 33.1103 20.4235 33.1148C20.2569 33.1514 20.2939 33.2747 20.2939 33.3752C20.2939 33.6493 20.2939 33.9188 20.2939 34.2157C20.2013 34.2203 20.1319 34.2249 20.0255 34.2294V33.6539C19.9329 33.6447 19.8681 33.6402 19.8033 33.6356C19.6691 34.0604 19.5627 34.1564 19.2942 34.1198C19.1045 34.0924 18.9842 33.9554 18.9795 33.7681C18.9795 33.5397 19.0906 33.4437 19.4794 33.3661V33.1559H18.7528V34.2294L18.7574 34.2249ZM17.8966 33.4392C18.0123 33.3478 18.0863 33.2564 17.966 33.1377C17.9382 33.1103 17.8133 33.1194 17.7855 33.1514C17.6744 33.2884 17.7763 33.3615 17.8966 33.4346M19.9977 33.3524C20.0039 33.2123 19.936 33.1499 19.7941 33.1651C19.7848 33.3021 19.8527 33.3646 19.9977 33.3524ZM19.4933 33.663C19.3961 33.6128 19.2989 33.5899 19.2619 33.7224C19.2526 33.7589 19.3174 33.8594 19.3544 33.864C19.4979 33.8823 19.5118 33.7818 19.4933 33.663Z" fill="#114D9C"/>
<path d="M23.3206 32.903C23.3114 32.9852 23.3206 33.072 23.2975 33.0812C23.0939 33.1451 23.1355 33.3096 23.1355 33.4512C23.1355 33.7024 23.1355 33.9537 23.1355 34.1866C22.9365 34.3008 22.8717 34.1866 22.8254 34.0587C22.5061 34.1455 22.3534 34.1181 22.2377 33.9491C22.1359 33.8029 22.1312 33.5699 22.2331 33.4283C22.395 33.2045 22.6126 33.2365 22.8301 33.3187C22.8902 33.1862 22.8486 33.1268 22.7236 33.1268C22.4691 33.1268 22.2145 33.1268 21.9831 33.1268C21.9137 33.3004 21.8212 33.4329 21.7841 33.5836C21.7564 33.6887 21.6545 33.6704 21.5574 33.643C21.3584 33.4146 21.7517 33.3598 21.6268 33.1497H21.2936C21.2936 33.337 21.2843 33.5288 21.2936 33.7161C21.3074 33.9445 21.4509 34.0313 21.6499 33.9125C21.7286 33.8669 21.7517 33.8486 21.8165 33.8806C22.0942 34.0176 21.6731 34.1684 21.5388 34.1729C21.2565 34.1729 21.0807 34.0998 21.0436 33.876C21.0159 33.7161 21.0298 33.5517 21.0205 33.3918C21.0159 33.2776 21.0529 33.1497 20.8863 33.0949C20.8539 33.0857 20.8539 32.9761 20.8354 32.8984H23.3253L23.3206 32.903ZM22.6542 33.8897C22.7792 33.8851 22.8717 33.7846 22.8578 33.6704C22.8393 33.5562 22.7745 33.4969 22.6496 33.4969C22.5107 33.4969 22.4321 33.5654 22.4367 33.6933C22.4367 33.8258 22.5292 33.8851 22.6542 33.8897Z" fill="#114D9C"/>
</g>
<defs>
<clipPath id="clip0_8625_18645">
<rect width="147" height="45" fill="white"/>
</clipPath>
</defs>
</svg>
