<svg width="512" height="512" viewBox="0 0 512 512" fill="none" xmlns="http://www.w3.org/2000/svg">
<rect width="512" height="512" rx="60" fill="url(#paint0_linear_2334_1282)"/>
<path d="M0 396H512V452C512 485.137 485.137 512 452 512H60C26.8629 512 0 485.137 0 452V396Z" fill="#E75D24"/>
<path d="M143.172 441.445V459.922C143.172 461.914 142.749 463.698 141.902 465.273C141.069 466.849 139.806 468.099 138.113 469.023C136.421 469.935 134.292 470.391 131.727 470.391C128.068 470.391 125.281 469.434 123.367 467.52C121.466 465.592 120.516 463.034 120.516 459.844V441.445H125.203V459.434C125.203 461.816 125.763 463.574 126.883 464.707C128.003 465.84 129.676 466.406 131.902 466.406C133.439 466.406 134.689 466.139 135.652 465.605C136.629 465.059 137.345 464.264 137.801 463.223C138.27 462.168 138.504 460.898 138.504 459.414V441.445H143.172ZM158.777 441.445C162.462 441.445 165.151 442.201 166.844 443.711C168.536 445.221 169.383 447.337 169.383 450.059C169.383 451.296 169.188 452.474 168.797 453.594C168.419 454.701 167.794 455.684 166.922 456.543C166.049 457.389 164.897 458.06 163.465 458.555C162.046 459.049 160.294 459.297 158.211 459.297H155.164V470H150.477V441.445H158.777ZM158.465 445.332H155.164V455.391H157.723C159.194 455.391 160.444 455.221 161.473 454.883C162.501 454.531 163.283 453.978 163.816 453.223C164.35 452.467 164.617 451.471 164.617 450.234C164.617 448.581 164.116 447.35 163.113 446.543C162.124 445.736 160.574 445.332 158.465 445.332ZM191.57 462.227C191.57 463.919 191.154 465.378 190.32 466.602C189.5 467.826 188.315 468.763 186.766 469.414C185.229 470.065 183.393 470.391 181.258 470.391C180.216 470.391 179.22 470.332 178.27 470.215C177.319 470.098 176.421 469.928 175.574 469.707C174.741 469.473 173.979 469.193 173.289 468.867V464.453C174.448 464.961 175.743 465.423 177.176 465.84C178.608 466.243 180.066 466.445 181.551 466.445C182.762 466.445 183.764 466.289 184.559 465.977C185.366 465.651 185.965 465.195 186.355 464.609C186.746 464.01 186.941 463.314 186.941 462.52C186.941 461.673 186.714 460.957 186.258 460.371C185.802 459.785 185.112 459.251 184.188 458.77C183.276 458.275 182.13 457.747 180.75 457.188C179.812 456.81 178.914 456.38 178.055 455.898C177.208 455.417 176.453 454.85 175.789 454.199C175.125 453.548 174.598 452.78 174.207 451.895C173.829 450.996 173.641 449.941 173.641 448.73C173.641 447.116 174.025 445.736 174.793 444.59C175.574 443.444 176.668 442.565 178.074 441.953C179.493 441.341 181.147 441.035 183.035 441.035C184.533 441.035 185.939 441.191 187.254 441.504C188.582 441.816 189.884 442.259 191.16 442.832L189.676 446.602C188.504 446.12 187.365 445.736 186.258 445.449C185.164 445.163 184.044 445.02 182.898 445.02C181.909 445.02 181.069 445.169 180.379 445.469C179.689 445.768 179.161 446.191 178.797 446.738C178.445 447.272 178.27 447.91 178.27 448.652C178.27 449.486 178.471 450.189 178.875 450.762C179.292 451.322 179.93 451.836 180.789 452.305C181.661 452.773 182.781 453.294 184.148 453.867C185.724 454.518 187.059 455.202 188.152 455.918C189.259 456.634 190.105 457.493 190.691 458.496C191.277 459.486 191.57 460.729 191.57 462.227ZM209.246 445.02C207.879 445.02 206.655 445.267 205.574 445.762C204.507 446.257 203.602 446.973 202.859 447.91C202.117 448.835 201.551 449.961 201.16 451.289C200.77 452.604 200.574 454.089 200.574 455.742C200.574 457.956 200.887 459.863 201.512 461.465C202.137 463.053 203.087 464.277 204.363 465.137C205.639 465.983 207.254 466.406 209.207 466.406C210.418 466.406 211.596 466.289 212.742 466.055C213.888 465.82 215.073 465.501 216.297 465.098V469.082C215.138 469.538 213.966 469.87 212.781 470.078C211.596 470.286 210.229 470.391 208.68 470.391C205.763 470.391 203.341 469.785 201.414 468.574C199.5 467.363 198.068 465.658 197.117 463.457C196.18 461.257 195.711 458.678 195.711 455.723C195.711 453.561 196.01 451.582 196.609 449.785C197.208 447.988 198.081 446.439 199.227 445.137C200.372 443.822 201.785 442.812 203.465 442.109C205.158 441.393 207.091 441.035 209.266 441.035C210.698 441.035 212.104 441.198 213.484 441.523C214.878 441.836 216.167 442.285 217.352 442.871L215.711 446.738C214.721 446.27 213.686 445.866 212.605 445.527C211.525 445.189 210.405 445.02 209.246 445.02ZM241.121 441.445C244.806 441.445 247.495 442.201 249.188 443.711C250.88 445.221 251.727 447.337 251.727 450.059C251.727 451.296 251.531 452.474 251.141 453.594C250.763 454.701 250.138 455.684 249.266 456.543C248.393 457.389 247.241 458.06 245.809 458.555C244.389 459.049 242.638 459.297 240.555 459.297H237.508V470H232.82V441.445H241.121ZM240.809 445.332H237.508V455.391H240.066C241.538 455.391 242.788 455.221 243.816 454.883C244.845 454.531 245.626 453.978 246.16 453.223C246.694 452.467 246.961 451.471 246.961 450.234C246.961 448.581 246.46 447.35 245.457 446.543C244.467 445.736 242.918 445.332 240.809 445.332ZM265.457 441.445C267.918 441.445 269.949 441.745 271.551 442.344C273.165 442.943 274.363 443.854 275.145 445.078C275.939 446.302 276.336 447.858 276.336 449.746C276.336 451.152 276.076 452.35 275.555 453.34C275.034 454.329 274.35 455.15 273.504 455.801C272.658 456.452 271.753 456.973 270.789 457.363L278.895 470H273.602L266.707 458.555H262.117V470H257.43V441.445H265.457ZM265.145 445.352H262.117V454.688H265.359C267.534 454.688 269.109 454.284 270.086 453.477C271.076 452.669 271.57 451.478 271.57 449.902C271.57 448.249 271.043 447.077 269.988 446.387C268.947 445.697 267.332 445.352 265.145 445.352ZM299.148 470H282.977V441.445H299.148V445.391H287.664V453.145H298.426V457.07H287.664V466.035H299.148V470ZM305.32 470V441.445H310.008V466.016H322.137V470H305.32ZM327.078 470V441.445H331.766V470H327.078ZM351.629 470L343.406 446.152H343.23C343.27 446.686 343.315 447.415 343.367 448.34C343.419 449.264 343.465 450.254 343.504 451.309C343.543 452.363 343.562 453.372 343.562 454.336V470H339.305V441.445H345.887L353.797 464.238H353.914L362.098 441.445H368.66V470H364.188V454.102C364.188 453.229 364.201 452.285 364.227 451.27C364.266 450.254 364.305 449.29 364.344 448.379C364.396 447.467 364.435 446.738 364.461 446.191H364.305L355.77 470H351.629ZM392.664 462.227C392.664 463.919 392.247 465.378 391.414 466.602C390.594 467.826 389.409 468.763 387.859 469.414C386.323 470.065 384.487 470.391 382.352 470.391C381.31 470.391 380.314 470.332 379.363 470.215C378.413 470.098 377.514 469.928 376.668 469.707C375.835 469.473 375.073 469.193 374.383 468.867V464.453C375.542 464.961 376.837 465.423 378.27 465.84C379.702 466.243 381.16 466.445 382.645 466.445C383.855 466.445 384.858 466.289 385.652 465.977C386.46 465.651 387.059 465.195 387.449 464.609C387.84 464.01 388.035 463.314 388.035 462.52C388.035 461.673 387.807 460.957 387.352 460.371C386.896 459.785 386.206 459.251 385.281 458.77C384.37 458.275 383.224 457.747 381.844 457.188C380.906 456.81 380.008 456.38 379.148 455.898C378.302 455.417 377.547 454.85 376.883 454.199C376.219 453.548 375.691 452.78 375.301 451.895C374.923 450.996 374.734 449.941 374.734 448.73C374.734 447.116 375.118 445.736 375.887 444.59C376.668 443.444 377.762 442.565 379.168 441.953C380.587 441.341 382.241 441.035 384.129 441.035C385.626 441.035 387.033 441.191 388.348 441.504C389.676 441.816 390.978 442.259 392.254 442.832L390.77 446.602C389.598 446.12 388.458 445.736 387.352 445.449C386.258 445.163 385.138 445.02 383.992 445.02C383.003 445.02 382.163 445.169 381.473 445.469C380.783 445.768 380.255 446.191 379.891 446.738C379.539 447.272 379.363 447.91 379.363 448.652C379.363 449.486 379.565 450.189 379.969 450.762C380.385 451.322 381.023 451.836 381.883 452.305C382.755 452.773 383.875 453.294 385.242 453.867C386.818 454.518 388.152 455.202 389.246 455.918C390.353 456.634 391.199 457.493 391.785 458.496C392.371 459.486 392.664 460.729 392.664 462.227Z" fill="white"/>
<path d="M319.517 108.21C312.84 105.675 305.818 102.882 298.68 99.8866C291.025 96.69 284.29 93.7237 278.074 90.8438C273.037 88.5111 267.684 85.9768 262.562 83.0393L257.468 80.1018L252.373 83.0393C247.193 86.0056 241.869 88.5111 236.861 90.8438C230.616 93.7237 223.881 96.69 216.255 99.8866C209.088 102.882 202.095 105.675 195.418 108.21C190.209 110.197 184.626 112.27 178.87 114.084L171.416 116.446L172.336 198.12H174.812L173.919 118.635L179.531 116.849C185.259 115.035 190.928 112.933 196.195 110.945C202.843 108.411 209.894 105.618 217.118 102.594C224.774 99.3971 231.537 96.4308 237.811 93.5221C242.646 91.2758 248.258 88.6263 253.496 85.6024L257.525 83.2985L261.554 85.6024C266.821 88.6263 272.404 91.2758 277.239 93.5221C283.456 96.402 290.219 99.3683 297.932 102.594C305.127 105.589 312.149 108.411 318.826 110.945C324.093 112.933 329.763 115.035 335.49 116.849L341.102 118.635L340.21 197.227C340.814 197.515 341.678 197.86 342.656 198.206L343.577 116.446L336.123 114.084C330.396 112.27 324.784 110.168 319.575 108.21" fill="white"/>
<path d="M336.181 113.047C330.454 111.233 324.871 109.159 319.69 107.172C313.042 104.638 306.049 101.845 298.882 98.8494C291.227 95.6528 284.521 92.7153 278.305 89.8354C273.297 87.5027 267.973 84.9972 262.85 82.0597L257.209 78.8342L251.568 82.0597C246.445 84.9972 241.121 87.5027 236.113 89.8354C229.897 92.7153 223.162 95.6816 215.536 98.8494C208.341 101.845 201.347 104.638 194.728 107.172C189.547 109.131 183.993 111.204 178.237 113.047L170.035 115.668L170.984 199.214H175.589L174.697 119.441L179.532 117.914C185.288 116.1 190.958 113.998 196.253 111.982C202.988 109.419 210.01 106.625 217.205 103.63C224.889 100.433 231.681 97.4383 237.927 94.5296C242.79 92.2833 248.402 89.6338 253.698 86.5811L257.209 84.5652L260.72 86.5811C266.045 89.6338 271.657 92.2833 276.492 94.5296C282.708 97.4095 289.5 100.405 297.213 103.63C304.408 106.625 311.459 109.447 318.165 111.982C323.432 113.998 329.13 116.1 334.857 117.914L339.692 119.441L338.8 197.918L339.433 198.206C340.038 198.494 340.959 198.839 341.966 199.214L343.376 199.732L344.326 115.668L336.124 113.047H336.181Z" fill="white"/>
<path d="M337.967 252.031L337.736 252.808C335.578 260.526 332.067 267.784 327.347 274.379C312.324 295.229 287.458 306.806 265.527 317.001L259.253 319.91L252.864 316.943C244 312.825 234.819 308.534 226.041 303.581C200.255 288.98 185.749 272.42 180.368 251.455L180.166 250.648H175.389L175.705 252.002C176.051 253.442 176.454 254.882 176.885 256.235L177.374 257.791H177.259L177.634 259.95H178.152L178.411 260.642C185.519 279.217 200.398 294.711 223.94 308.016C232.862 313.056 242.244 317.433 251.339 321.666L259.253 325.353L266.88 321.782C290.652 310.723 315.259 299.261 330.973 277.431C334.743 272.219 337.794 266.545 340.067 260.584L340.873 258.136C341.017 257.618 341.219 257.128 341.478 256.581L341.593 256.207C341.881 255.314 342.14 254.335 342.427 253.327L342.773 251.973H337.995L337.967 252.031Z" fill="white"/>
<path fill-rule="evenodd" clip-rule="evenodd" d="M382.488 239.791L398 209.668H369.738V197.255H359.32L360.442 103.314L350.024 100.002C343.606 97.9569 337.246 95.6242 330.943 93.2051C322.856 90.1236 314.797 86.8982 306.796 83.5575C298.796 80.2168 290.824 76.7609 282.938 73.1035C276.923 70.31 270.879 67.4301 265.094 64.1182L257.928 60L250.762 64.1182C244.977 67.4301 238.933 70.31 232.918 73.1035C225.033 76.7609 217.061 80.2168 209.06 83.5575C201.059 86.8982 193.001 90.1236 184.913 93.2051C178.582 95.5954 172.25 97.9569 165.832 100.002L155.414 103.314L156.536 197.255H146.118V209.668H118L133.512 239.791L124.619 267.553H162.782C172.221 292.234 192.195 309.657 216.255 323.279C227.68 329.73 239.566 335.144 251.395 340.674L257.899 343.698L264.404 340.674C292.349 327.628 323.143 313.92 342.253 287.367C346.743 281.118 350.312 274.494 352.959 267.553H391.352L382.459 239.791H382.488ZM163.271 109.505L168.02 108.008C174.553 105.934 181.086 103.515 187.504 101.096C195.677 97.9857 203.793 94.7314 211.88 91.362C219.967 87.9925 228.054 84.479 236.027 80.7928C242.214 77.9129 248.517 74.9178 254.474 71.5196L257.928 69.5324L261.382 71.5196C267.31 74.9178 273.642 77.9417 279.83 80.8216C287.802 84.5078 295.86 88.0213 303.976 91.3908C312.063 94.7602 320.179 98.0145 328.353 101.125C334.799 103.573 341.304 105.963 347.837 108.037L352.585 109.534L351.52 197.284H164.336L163.271 109.534V109.505ZM151.586 203.13H364.241V248.085H151.586V203.13ZM131.642 262.341L139.009 239.302L126.404 214.88H146.032V253.96H158.81C159.386 256.84 160.105 259.634 160.94 262.341H131.642ZM336.037 282.27C318.021 307.325 287.658 320.687 261.267 333.013L257.899 334.568L254.532 333.013C242.876 327.57 231.163 322.243 219.91 315.878C194.44 301.479 173.43 282.673 166.897 253.96H348.873C346.541 264.126 342.311 273.572 336.037 282.27ZM356.931 253.96H369.738V214.88H389.567L376.962 239.302L384.33 262.341H354.744C355.607 259.605 356.327 256.812 356.902 253.96" fill="white"/>
<path d="M209.894 264.789L212.225 269.8L217.405 270.606L213.664 274.494L214.527 279.995L209.894 277.403L205.26 279.995L206.152 274.494L202.382 270.606L207.591 269.8L209.894 264.789Z" fill="white"/>
<path d="M308.41 264.789L310.712 269.8L315.921 270.606L312.151 274.494L313.043 279.995L308.41 277.403L303.747 279.995L304.639 274.494L300.898 270.606L306.078 269.8L308.41 264.789Z" fill="white"/>
<path d="M275.485 177.01V176.923H239.999C239.913 177.355 239.855 177.586 239.826 177.816C239.769 178.853 239.711 179.515 239.826 179.947C239.654 181.243 239.913 182.453 240.718 183.691C242.618 186.513 244.69 189.192 246.446 192.1C247.367 193.655 247.971 195.499 248.259 197.284C248.316 197.601 248.316 197.889 248.345 198.177H251.77C251.77 196.247 251.367 194.26 250.417 192.273C249.237 189.825 247.51 187.608 246.1 185.275C245.179 183.749 244.287 182.222 243.395 180.696H272.952C272.952 180.696 273.009 180.696 273.038 180.696C272.146 182.222 271.254 183.749 270.333 185.246C268.923 187.608 267.167 189.796 265.987 192.244C265.037 194.231 264.606 196.219 264.635 198.148H268.059C268.059 197.86 268.059 197.572 268.146 197.255C268.433 195.47 269.038 193.627 269.959 192.071C271.686 189.163 273.787 186.485 275.686 183.662C277.125 181.531 276.866 179.4 275.513 176.952" fill="white"/>
<path d="M268.778 198.955H263.886V198.206C263.857 196.132 264.317 194.03 265.296 191.985C266.073 190.372 267.08 188.846 268.059 187.377C268.606 186.571 269.152 185.736 269.671 184.901C270.361 183.778 271.023 182.626 271.714 181.474H244.661C245.323 182.626 246.013 183.778 246.704 184.901C247.193 185.736 247.74 186.542 248.287 187.377C249.266 188.846 250.273 190.372 251.05 191.985C252.028 194.03 252.518 196.103 252.489 198.206V198.955H247.596V198.235C247.596 197.975 247.568 197.716 247.51 197.428C247.193 195.556 246.589 193.857 245.783 192.504C244.69 190.689 243.452 188.904 242.243 187.205C241.524 186.197 240.804 185.16 240.114 184.123C239.25 182.827 238.905 181.474 239.077 180.005C238.991 179.487 239.02 178.853 239.077 177.787C239.077 177.615 239.135 177.442 239.164 177.183L239.365 176.203H276.232V176.837C277.729 179.63 277.758 181.963 276.29 184.152C275.599 185.189 274.88 186.197 274.16 187.233C272.951 188.933 271.685 190.718 270.62 192.532C269.814 193.915 269.21 195.614 268.893 197.457C268.865 197.716 268.836 197.975 268.836 198.263V198.983L268.778 198.955ZM265.382 197.457H267.339C267.339 197.457 267.339 197.284 267.368 197.198C267.598 195.758 268.145 193.684 269.268 191.755C270.39 189.883 271.656 188.097 272.894 186.369C273.613 185.361 274.333 184.354 275.024 183.317C276.146 181.646 276.146 179.947 274.995 177.701H240.603C240.603 177.701 240.603 177.845 240.574 177.903C240.516 178.738 240.488 179.487 240.574 179.803V179.947V180.091C240.401 181.272 240.66 182.28 241.351 183.317C242.042 184.354 242.761 185.361 243.481 186.369C244.718 188.097 245.985 189.912 247.107 191.784C248.258 193.713 248.776 195.815 249.007 197.227C249.007 197.313 249.007 197.399 249.035 197.486H250.992C250.906 195.873 250.474 194.26 249.726 192.648C249.007 191.121 247.999 189.653 247.078 188.241C246.531 187.406 245.956 186.571 245.438 185.707C244.517 184.181 243.625 182.654 242.732 181.128L242.071 180.005H274.218L273.671 181.128C272.779 182.654 271.887 184.181 270.966 185.707C270.448 186.571 269.901 187.406 269.325 188.241C268.375 189.653 267.397 191.121 266.649 192.648C265.9 194.232 265.469 195.844 265.382 197.486" fill="white"/>
<path d="M265.095 184.958H251.223V186.945H265.095V184.958Z" fill="white"/>
<path d="M249.064 176.405C248.575 176.232 248.057 176.117 247.568 175.886C237.495 171.307 231.422 160.767 232.228 149.679C232.631 144.064 234.502 139.081 237.783 134.56C239.999 131.507 242.272 128.483 244.575 125.488C249.784 118.721 252.633 111.147 252.576 102.536C252.576 102.248 252.633 101.988 252.691 101.355C258.936 104.811 263.829 109.419 267.368 115.409C270.908 121.399 272.434 127.936 272.203 134.877L272.693 135.165C273.671 133.984 274.822 132.89 275.542 131.565C276.261 130.269 276.578 128.714 277.154 127.015C283.082 137.267 287.14 147.664 283.715 159.5C281.471 167.247 276.377 172.719 268.98 176.03C268.692 176.174 268.347 176.261 267.858 176.146C268.088 175.886 268.289 175.598 268.548 175.339C274.218 169.983 275.484 162.293 271.628 155.41C270.333 153.106 268.721 150.975 267.109 148.844C264.001 144.697 261.555 140.291 261.728 134.848C257.008 137.21 251.367 146.828 252.806 159.327C249.726 158.665 248.172 156.015 247.395 149.91C244.575 154.258 243.165 158.809 243.136 163.676C243.107 168.715 245.265 172.863 249.036 176.29" fill="#E75D24"/>
<path d="M322.539 217.933H319.949V232.937H322.539V217.933Z" fill="#E75D24"/>
<path d="M331.663 217.933H333.62L340.211 232.937H337.477L336.009 229.625H329.159L327.72 232.937H325.044L331.635 217.933H331.663ZM330.138 227.408H335.059L332.584 221.706L330.109 227.408H330.138Z" fill="#E75D24"/>
<path d="M350.973 227.725C350.628 227.408 350.196 227.178 349.649 226.976C349.103 226.803 348.498 226.631 347.865 226.487C347.203 226.343 346.541 226.17 345.879 225.939C345.217 225.738 344.613 225.479 344.095 225.191C343.548 224.903 343.116 224.471 342.771 223.924C342.426 223.376 342.253 222.743 342.253 221.994C342.253 220.813 342.8 219.805 343.922 218.97C345.016 218.135 346.426 217.732 348.124 217.732C350.599 217.732 352.527 218.452 353.938 219.892L352.527 221.735C351.261 220.698 349.793 220.18 348.067 220.18C347.174 220.18 346.426 220.324 345.822 220.612C345.217 220.9 344.93 221.332 344.93 221.936C344.93 222.397 345.16 222.8 345.62 223.117C346.081 223.434 346.656 223.664 347.347 223.808C348.038 223.952 348.786 224.154 349.592 224.384C350.398 224.615 351.146 224.874 351.808 225.162C352.499 225.45 353.074 225.882 353.535 226.487C353.995 227.091 354.225 227.84 354.225 228.675C354.225 229.971 353.679 231.037 352.556 231.872C351.434 232.707 350.081 233.11 348.469 233.11C347.146 233.11 345.879 232.851 344.671 232.333C343.462 231.814 342.512 231.152 341.85 230.374L343.404 228.56C344.757 230 346.512 230.72 348.7 230.72C349.592 230.72 350.311 230.547 350.801 230.23C351.29 229.914 351.549 229.453 351.549 228.877C351.549 228.416 351.376 228.042 351.031 227.725" fill="#E75D24"/>
<path d="M160.336 217.847H163.07V231.123H172.049V233.686H160.336V217.847Z" fill="white"/>
<path d="M174.61 223.376C175.157 222.829 175.876 222.397 176.769 222.109C177.661 221.792 178.582 221.648 179.531 221.648C181.057 221.648 182.266 222.08 183.1 222.915C183.935 223.75 184.366 224.96 184.366 226.486V233.686H181.776V232.39C180.913 233.34 179.704 233.83 178.121 233.83C176.826 233.83 175.79 233.484 175.013 232.822C174.236 232.16 173.833 231.238 173.833 230.115C173.833 228.877 174.322 227.926 175.33 227.321C176.337 226.688 177.661 226.4 179.33 226.4C180.308 226.4 181.114 226.515 181.747 226.717C181.747 225.824 181.575 225.161 181.172 224.729C180.769 224.298 180.136 224.067 179.215 224.067C178.064 224.067 176.941 224.47 175.848 225.305L174.581 223.405L174.61 223.376ZM181.776 229.971V228.848C181.143 228.646 180.424 228.531 179.618 228.531C177.546 228.531 176.51 229.049 176.51 230.086C176.51 230.547 176.711 230.921 177.085 231.18C177.488 231.44 178.006 231.584 178.668 231.584C180.021 231.584 181.028 231.036 181.747 229.971" fill="white"/>
<path d="M191.563 217.76H203.334V220.352H194.297V224.326H202.758V226.832H194.297V231.037H203.564V233.628H191.563V217.76Z" fill="white"/>
<path d="M213.607 227.523L218.356 233.628H215.161L211.966 229.424L208.714 233.628H205.664L210.355 227.581L205.865 221.85H209.031L212.024 225.622L215.017 221.85H218.125L213.607 227.523Z" fill="white"/>
<path d="M230.902 230.921C230.442 231.843 229.751 232.563 228.83 233.053C227.909 233.571 226.931 233.801 225.866 233.801C223.966 233.801 222.441 233.254 221.261 232.131C220.11 231.008 219.505 229.539 219.505 227.696C219.505 225.853 220.081 224.47 221.232 223.29C222.383 222.138 223.88 221.533 225.722 221.533C226.902 221.533 227.938 221.763 228.83 222.282C229.722 222.771 230.384 223.405 230.758 224.211L228.83 225.478C228.053 224.442 227.046 223.952 225.808 223.952C224.743 223.952 223.851 224.298 223.189 224.989C222.498 225.68 222.182 226.573 222.182 227.696C222.182 228.819 222.527 229.654 223.247 230.345C223.966 231.037 224.916 231.411 226.096 231.411C227.334 231.411 228.312 230.864 229.06 229.741L230.902 230.921Z" fill="white"/>
<path d="M243.279 231.411C242.099 233.024 240.487 233.801 238.502 233.801C236.516 233.801 235.077 233.254 233.926 232.131C232.774 231.037 232.199 229.539 232.199 227.696C232.199 225.853 232.717 224.413 233.782 223.29C234.846 222.138 236.314 221.562 238.243 221.562C239.854 221.562 241.149 222.051 242.214 223.031C243.279 224.01 243.768 225.334 243.768 226.947C243.768 227.35 243.739 227.898 243.624 228.589H234.904C235.019 229.481 235.393 230.201 236.055 230.662C236.717 231.152 237.552 231.382 238.559 231.382C239.883 231.382 240.919 230.864 241.696 229.827L243.279 231.382V231.411ZM235.998 224.557C235.451 224.989 235.077 225.594 234.904 226.371H241.092C240.977 225.565 240.689 224.96 240.171 224.528C239.653 224.096 238.991 223.894 238.127 223.894C237.264 223.894 236.545 224.125 235.998 224.557Z" fill="white"/>
<path d="M249.351 217.098H246.761V233.629H249.351V217.098Z" fill="white"/>
<path d="M255.453 217.098H252.863V233.629H255.453V217.098Z" fill="white"/>
<path d="M269.527 231.411C268.347 233.024 266.735 233.801 264.75 233.801C262.764 233.801 261.325 233.254 260.174 232.131C259.022 231.037 258.447 229.539 258.447 227.696C258.447 225.853 258.965 224.413 260.03 223.29C261.095 222.138 262.562 221.562 264.491 221.562C266.102 221.562 267.397 222.051 268.462 223.031C269.527 224.01 270.016 225.334 270.016 226.947C270.016 227.35 269.988 227.898 269.872 228.589H261.152C261.267 229.481 261.641 230.201 262.303 230.662C262.965 231.152 263.8 231.382 264.807 231.382C266.131 231.382 267.167 230.864 267.944 229.827L269.527 231.382V231.411ZM262.246 224.557C261.699 224.989 261.325 225.594 261.152 226.371H267.34C267.225 225.565 266.937 224.96 266.419 224.528C265.901 224.096 265.239 223.894 264.375 223.894C263.512 223.894 262.793 224.125 262.246 224.557Z" fill="white"/>
<path d="M272.98 221.85H275.571V222.915C276.463 222.051 277.672 221.591 279.197 221.591C282.363 221.591 283.917 223.376 283.917 226.947V233.6H281.327V227.149C281.327 226.026 281.096 225.219 280.636 224.73C280.175 224.24 279.427 223.981 278.449 223.981C277.816 223.981 277.24 224.154 276.722 224.528C276.204 224.874 275.83 225.363 275.571 225.997V233.629H272.98V221.85Z" fill="white"/>
<path d="M298.22 230.921C297.759 231.843 297.068 232.563 296.147 233.053C295.227 233.571 294.248 233.801 293.183 233.801C291.284 233.801 289.758 233.254 288.578 232.131C287.427 231.008 286.823 229.539 286.823 227.696C286.823 225.853 287.398 224.47 288.55 223.29C289.701 222.138 291.197 221.533 293.039 221.533C294.219 221.533 295.255 221.763 296.147 222.282C297.04 222.771 297.702 223.405 298.076 224.211L296.147 225.478C295.37 224.442 294.363 223.952 293.126 223.952C292.061 223.952 291.169 224.298 290.507 224.989C289.816 225.68 289.499 226.573 289.499 227.696C289.499 228.819 289.845 229.654 290.564 230.345C291.284 231.037 292.233 231.411 293.413 231.411C294.651 231.411 295.629 230.864 296.378 229.741L298.22 230.921Z" fill="white"/>
<path d="M310.596 231.411C309.416 233.024 307.804 233.801 305.818 233.801C303.833 233.801 302.394 233.254 301.242 232.131C300.091 231.037 299.516 229.539 299.516 227.696C299.516 225.853 300.034 224.413 301.099 223.29C302.163 222.138 303.66 221.562 305.559 221.562C307.171 221.562 308.466 222.051 309.531 223.031C310.596 224.01 311.085 225.334 311.085 226.947C311.085 227.35 311.056 227.898 310.941 228.589H302.221C302.336 229.481 302.71 230.201 303.372 230.662C304.034 231.152 304.869 231.382 305.876 231.382C307.2 231.382 308.236 230.864 309.013 229.827L310.596 231.382V231.411ZM303.315 224.557C302.768 224.989 302.394 225.594 302.221 226.371H308.409C308.294 225.565 308.006 224.96 307.488 224.528C306.97 224.096 306.308 223.894 305.444 223.894C304.581 223.894 303.861 224.125 303.315 224.557Z" fill="white"/>
<path d="M259.078 283.364L263.395 292.666L273.037 294.164L266.043 301.392L267.712 311.616L259.078 306.778L250.444 311.616L252.114 301.392L245.12 294.164L254.761 292.666L259.078 283.364Z" fill="white"/>
<path d="M289.385 268.994H283.111V275.675C282.42 275.733 281.959 275.761 281.441 275.79C281.297 275.301 281.182 274.897 281.038 274.408C278.276 275.157 276.031 274.955 275.944 271.211C276.779 270.722 278.045 270.549 277.585 268.994H274.275V275.675H272.548C272.548 274.696 272.548 273.688 272.548 272.68C272.548 271.874 272.261 271.47 271.397 271.73C270.534 274.091 269.44 274.984 267.857 274.581C266.246 274.178 265.756 272.997 266.159 270.405C266.533 270.376 266.965 270.347 267.483 270.29C267.541 270.779 267.627 271.211 267.656 271.643C267.685 272.306 267.685 273.083 268.548 272.997C268.893 272.968 269.239 272.219 269.411 271.758C269.555 271.384 269.498 270.894 269.526 270.52C271.292 270.213 272.289 269.694 272.52 268.965H265.382C265.325 268.36 265.267 267.957 265.209 267.41H289.183C288.953 265.999 288.003 265.768 286.852 265.739C286.823 265.279 286.794 264.933 286.766 264.53C286.967 264.443 287.14 264.328 287.312 264.299C288.435 264.242 289.241 264.731 289.989 265.567C290.593 266.229 290.708 267.439 291.975 267.41C291.975 267.871 292.032 268.677 291.946 268.706C290.795 268.965 291.111 269.829 291.111 270.549C291.111 272.219 291.111 273.861 291.111 275.675C290.565 275.704 290.133 275.761 289.471 275.79V271.643C288.751 271.643 288.147 271.47 287.687 271.672C287.169 271.902 286.593 272.392 286.449 272.882C286.334 273.227 286.794 274.062 287.169 274.178C288.032 274.466 288.061 274.926 287.83 275.617C285.902 275.733 284.837 275.013 284.578 273.486C284.319 271.874 285.096 270.722 286.852 270.29C287.456 270.146 288.118 270.174 288.723 270.002C289.039 269.915 289.241 269.541 289.529 269.31C289.471 269.195 289.413 269.08 289.356 268.965M277.527 271.96C278.074 273.112 278.765 273.573 279.743 273.371C280.751 273.141 281.211 272.45 281.182 271.442C281.182 270.635 281.182 269.829 281.182 268.994H279.628C279.484 270.347 279.197 271.557 277.527 271.989" fill="white"/>
<path d="M234.645 275.761H233.005C232.861 275.156 232.688 274.581 232.516 273.918C230.904 274.235 230.3 276.625 228.17 275.704C229.004 274.926 229.81 274.206 230.645 273.457C230.041 272.536 229.465 272.392 228.717 273.054C228.026 273.659 227.22 273.947 226.098 273.429C226.788 272.824 227.364 272.334 227.94 271.845C226.472 270.03 226.328 268.965 227.306 267.957C228.026 267.208 229.983 267.093 230.875 267.784C231.854 268.533 231.854 269.685 230.789 271.557C231.336 271.845 231.854 272.133 232.688 272.593C232.717 271.557 232.775 270.779 232.775 270.001C232.775 269.253 232.775 268.475 232.775 267.554H245.323C245.236 267.986 245.208 268.734 245.006 268.763C243.97 268.994 244.2 269.771 244.2 270.405C244.2 272.133 244.2 273.832 244.2 275.704C243.625 275.732 243.193 275.761 242.531 275.79V272.161C241.955 272.104 241.552 272.075 241.15 272.046C240.315 274.724 239.653 275.329 237.984 275.099C236.804 274.926 236.056 274.062 236.027 272.881C236.027 271.441 236.717 270.837 239.135 270.347V269.022H234.617V275.79L234.645 275.761ZM229.292 270.808C230.012 270.232 230.472 269.656 229.724 268.907C229.551 268.734 228.774 268.792 228.602 268.994C227.911 269.857 228.544 270.318 229.292 270.779M242.358 270.261C242.397 269.378 241.975 268.984 241.092 269.08C241.034 269.944 241.457 270.337 242.358 270.261ZM239.221 272.219C238.617 271.902 238.013 271.758 237.782 272.593C237.725 272.824 238.128 273.457 238.358 273.486C239.25 273.601 239.336 272.968 239.221 272.219Z" fill="white"/>
<path d="M263.023 267.438C262.965 267.957 263.023 268.504 262.879 268.562C261.612 268.965 261.872 270.002 261.872 270.894C261.872 272.478 261.872 274.062 261.872 275.531C260.634 276.251 260.231 275.531 259.943 274.725C257.957 275.272 257.008 275.099 256.288 274.033C255.655 273.112 255.626 271.643 256.259 270.75C257.267 269.339 258.619 269.541 259.972 270.059C260.346 269.224 260.087 268.85 259.31 268.85C257.727 268.85 256.144 268.85 254.705 268.85C254.274 269.944 253.698 270.779 253.468 271.729C253.295 272.392 252.662 272.277 252.058 272.104C250.82 270.664 253.266 270.318 252.489 268.994H250.417C250.417 270.174 250.36 271.384 250.417 272.565C250.503 274.005 251.396 274.552 252.633 273.803C253.122 273.515 253.266 273.4 253.669 273.601C255.396 274.465 252.777 275.416 251.942 275.444C250.187 275.444 249.093 274.984 248.863 273.573C248.69 272.565 248.777 271.528 248.719 270.52C248.69 269.8 248.921 268.994 247.884 268.648C247.683 268.59 247.683 267.899 247.568 267.41H263.051L263.023 267.438ZM258.878 273.659C259.655 273.63 260.231 272.997 260.145 272.277C260.03 271.557 259.627 271.182 258.85 271.182C257.986 271.182 257.497 271.614 257.526 272.421C257.526 273.256 258.101 273.63 258.878 273.659Z" fill="white"/>
<defs>
<linearGradient id="paint0_linear_2334_1282" x1="0" y1="0" x2="484.429" y2="518.085" gradientUnits="userSpaceOnUse">
<stop stop-color="#3A5BCD"/>
<stop offset="1" stop-color="#124D9C"/>
</linearGradient>
</defs>
</svg>
