<svg width="32" height="32" viewBox="0 0 32 32" fill="none" xmlns="http://www.w3.org/2000/svg">
<circle cx="16" cy="16" r="16" fill="#FFD558" fill-opacity="0.15"/>
<path d="M12.1111 23V21.4444H15.2222V19.0333C14.587 18.8907 14.0198 18.6216 13.5204 18.226C13.0211 17.8304 12.655 17.3347 12.4222 16.7389C11.45 16.6222 10.6364 16.1978 9.98156 15.4657C9.32667 14.7335 8.99948 13.8746 9 12.8889V12.1111C9 11.6833 9.15245 11.317 9.45733 11.0121C9.76222 10.7072 10.1283 10.555 10.5556 10.5556H12.1111V9H19.8889V10.5556H21.4444C21.8722 10.5556 22.2386 10.708 22.5434 11.0129C22.8483 11.3178 23.0005 11.6839 23 12.1111V12.8889C23 13.8741 22.6726 14.733 22.0177 15.4657C21.3628 16.1983 20.5495 16.6227 19.5778 16.7389C19.3444 17.3352 18.9781 17.8311 18.4788 18.2268C17.9794 18.6224 17.4124 18.8913 16.7778 19.0333V21.4444H19.8889V23H12.1111ZM12.1111 15.0667V12.1111H10.5556V12.8889C10.5556 13.3815 10.6981 13.8256 10.9833 14.2212C11.2685 14.6169 11.6444 14.8987 12.1111 15.0667ZM16 17.5556C16.6481 17.5556 17.1991 17.3287 17.6528 16.875C18.1065 16.4213 18.3333 15.8704 18.3333 15.2222V10.5556H13.6667V15.2222C13.6667 15.8704 13.8935 16.4213 14.3472 16.875C14.8009 17.3287 15.3519 17.5556 16 17.5556ZM19.8889 15.0667C20.3556 14.8981 20.7315 14.6161 21.0167 14.2204C21.3019 13.8248 21.4444 13.381 21.4444 12.8889V12.1111H19.8889V15.0667Z" fill="#FFD558"/>
</svg>
