<svg width="41" height="42" viewBox="0 0 41 42" fill="none" xmlns="http://www.w3.org/2000/svg">
<path d="M36.583 12.2294C36.1268 12.3281 35.8324 12.572 35.619 13.0079C35.4894 13.2805 35.4818 13.3355 35.1733 25.3996L34.8632 37.5249L35.9537 39.2327C36.555 40.1739 37.0627 40.941 37.0749 40.9413C37.0872 40.9416 37.6334 40.2014 38.282 39.2922L39.4584 37.6424L39.6889 28.6296L39.9194 19.6168L39.4599 19.605L39.0004 19.5933L38.7882 27.8892L38.5761 36.1852L38.3508 36.1243C38.2229 36.0903 38.0152 36.0605 37.8927 36.0574L37.6598 36.0514L37.6716 35.5919L37.6833 35.1324L37.2238 35.1206L36.7643 35.1089L36.7525 35.5684L36.7408 36.0279L36.5141 36.0221C36.3854 36.0188 36.1765 36.038 36.0531 36.0655L35.8189 36.1147L36.0663 26.4402L36.3138 16.7656L36.7733 16.7774L37.2328 16.7891L37.0103 25.4895L36.7878 34.1898L37.2473 34.2016L37.7068 34.2133L37.9293 25.513L38.1519 16.8126L38.6114 16.8244L39.0709 16.8361L39.0474 17.7552L39.0239 18.6742L39.4834 18.686L39.9429 18.6977L40.0108 16.0447L40.0787 13.3918L39.9218 13.0505C39.7413 12.6781 39.4114 12.3937 39.0276 12.2981C38.7474 12.2235 36.8542 12.1751 36.583 12.2294ZM38.9114 13.2454C39.0081 13.2969 39.0979 13.3851 39.1211 13.4347C39.1381 13.4903 39.1416 14.0729 39.1248 14.7284L39.0944 15.9171L37.7158 15.8818L36.3373 15.8466L36.3683 14.6334C36.4006 13.3713 36.4145 13.3042 36.6816 13.17C36.8805 13.0647 38.6997 13.1296 38.9114 13.2454ZM38.2412 37.0534C38.6237 37.198 38.6036 37.265 37.86 38.2944C37.4848 38.8182 37.149 39.2449 37.1183 39.2441C37.0082 39.2351 35.7949 37.2912 35.8344 37.188C35.9129 36.9938 36.2331 36.9407 37.1523 36.9581C37.6547 36.9709 38.1318 37.0138 38.2412 37.0534Z" fill="#9EBE5D"/>
<path d="M9.57863 28.3436H4.75328V29.1479L8.50633 33.437H9.57863V28.3436Z" fill="#9EBE5D"/>
<path d="M6.21678 1H28.22C29.3246 1 30.22 1.89543 30.22 3V31.9732C30.22 33.0778 29.3246 33.9732 28.22 33.9732H9.3102L4.21678 28.8798V3C4.21678 1.89543 5.11221 1 6.21678 1Z" fill="white"/>
<path d="M9.3102 33.9732H28.22C29.3246 33.9732 30.22 33.0778 30.22 31.9732V3C30.22 1.89543 29.3246 1 28.22 1H6.21678C5.11221 1 4.21678 1.89543 4.21678 3V28.8798M9.3102 33.9732V28.8798H4.21678M9.3102 33.9732L4.21678 28.8798" stroke="#9EBE5D" stroke-width="1.5"/>
<path d="M30.22 4.75305L31.9516 5.01945C32.952 5.17337 33.6798 6.05055 33.6463 7.06227L32.6979 35.7525C32.6617 36.8466 31.7527 37.7083 30.6582 37.686L8.32052 37.2301C7.23208 37.2079 6.36133 36.3192 6.36133 35.2305V30.7563" stroke="#9EBE5D" stroke-width="1.5"/>
<path d="M3.94882 7.96991H3.06721C1.93674 7.96991 1.03095 8.90614 1.0683 10.036L2.00705 38.4332C2.04322 39.5273 2.95228 40.389 4.04677 40.3667L26.3844 39.9108C27.4729 39.8886 28.3436 38.9999 28.3436 37.9112V37.7262" stroke="#9EBE5D" stroke-width="1.5"/>
<rect x="8.22006" y="3.39465" width="4.57078" height="4.57078" rx="1.75" stroke="#9EBE5D" stroke-width="0.5"/>
<path d="M11.7728 5.04614L10.232 6.50864C10.1494 6.58696 10.0157 6.58696 9.93316 6.50864L9.23743 5.84829" stroke="#9EBE5D" stroke-width="0.5" stroke-linecap="round"/>
<rect x="8.21988" y="11.0007" width="4.57078" height="4.57078" rx="1.75" stroke="#9EBE5D" stroke-width="0.5"/>
<rect x="8.21988" y="18.6069" width="4.57078" height="4.57078" rx="1.75" stroke="#9EBE5D" stroke-width="0.5"/>
<rect x="8.21988" y="26.2131" width="4.57078" height="4.57078" rx="1.75" stroke="#9EBE5D" stroke-width="0.5"/>
<path d="M15.576 4.41235L26.9853 4.41235" stroke="#9EBE5D" stroke-width="0.5" stroke-linecap="round"/>
<path d="M15.576 12.0184L26.9853 12.0184" stroke="#9EBE5D" stroke-width="0.5" stroke-linecap="round"/>
<path d="M15.576 19.6246L26.9853 19.6246" stroke="#9EBE5D" stroke-width="0.5" stroke-linecap="round"/>
<path d="M15.576 27.2308L26.9853 27.2308" stroke="#9EBE5D" stroke-width="0.5" stroke-linecap="round"/>
<path d="M15.576 6.94763L26.9853 6.94763" stroke="#9EBE5D" stroke-width="0.5" stroke-linecap="round"/>
<path d="M15.576 14.5538L26.9853 14.5538" stroke="#9EBE5D" stroke-width="0.5" stroke-linecap="round"/>
<path d="M15.576 22.16L26.9853 22.16" stroke="#9EBE5D" stroke-width="0.5" stroke-linecap="round"/>
<path d="M15.576 29.7662L26.9853 29.7662" stroke="#9EBE5D" stroke-width="0.5" stroke-linecap="round"/>
</svg>
