<svg width="26" height="26" viewBox="0 0 26 26" fill="none" xmlns="http://www.w3.org/2000/svg">
<path d="M18.4545 9.72727L11.4367 17.1523C11.1704 17.4341 10.7387 17.4341 10.4724 17.1523L7.54545 14.0555M7 23.3946C5.36323 22.4478 3.97085 21.1255 2.94065 19.5455M7 2.60539C5.36323 3.55221 3.97085 4.87452 2.94065 6.45455M1.31127 15.7273C1.10765 14.8511 1 13.9381 1 13C1 12.0619 1.10765 11.1489 1.31127 10.2727M10.8182 1.19786C11.5257 1.06791 12.2549 1 13 1C19.6274 1 25 6.37258 25 13C25 19.6274 19.6274 25 13 25C12.2549 25 11.5257 24.9321 10.8182 24.8021" stroke="#3A5BCD" stroke-width="2" stroke-linecap="round"/>
</svg>
