<svg width="40" height="40" viewBox="0 0 40 40" fill="none" xmlns="http://www.w3.org/2000/svg">
<path d="M9.36448 0C8.62736 0 8.0267 0.600664 8.0267 1.33778V5.35113C8.0267 6.08825 8.62736 6.68891 9.36448 6.68891C10.1016 6.68891 10.7023 6.08825 10.7023 5.35113V1.33778C10.7023 0.600664 10.1016 0 9.36448 0ZM25.4179 0C24.6807 0 24.0801 0.600664 24.0801 1.33778V5.35113C24.0801 6.08825 24.6807 6.68891 25.4179 6.68891C26.155 6.68891 26.7556 6.08825 26.7556 5.35113V1.33778C26.7556 0.600664 26.155 0 25.4179 0ZM4.01335 2.67557C1.79798 2.67557 0 4.47354 0 6.68891V30.769C0 32.9844 1.79798 34.7823 4.01335 34.7823H30.769C32.9844 34.7823 34.7823 32.9844 34.7823 30.769V6.68891C34.7823 4.47354 32.9844 2.67557 30.769 2.67557H28.0934V5.35113C28.0934 6.06073 27.8115 6.74127 27.3098 7.24304C26.808 7.74481 26.1275 8.0267 25.4179 8.0267C24.7083 8.0267 24.0277 7.74481 23.526 7.24304C23.0242 6.74127 22.7423 6.06073 22.7423 5.35113V2.67557H12.04V5.35113C12.04 6.06073 11.7582 6.74127 11.2564 7.24304C10.7546 7.74481 10.0741 8.0267 9.36448 8.0267C8.65487 8.0267 7.97433 7.74481 7.47257 7.24304C6.9708 6.74127 6.68891 6.06073 6.68891 5.35113V2.67557H4.01335ZM2.67557 12.04H32.1068V30.769C32.1068 31.5061 31.5061 32.1068 30.769 32.1068H4.01335C3.27623 32.1068 2.67557 31.5061 2.67557 30.769V12.04ZM22.6166 14.9243C22.5147 14.9434 22.4178 14.9829 22.3316 15.0403C22.2454 15.0978 22.1717 15.1721 22.1149 15.2587L15.5517 24.9577L12.5002 21.9477C12.4263 21.8732 12.3383 21.8142 12.2414 21.7739C12.1445 21.7336 12.0406 21.7128 11.9357 21.7128C11.8308 21.7128 11.7269 21.7336 11.63 21.7739C11.5331 21.8142 11.4451 21.8732 11.3712 21.9477L10.2006 23.0767C10.048 23.2334 9.96265 23.4434 9.96265 23.662C9.96265 23.8807 10.048 24.0907 10.2006 24.2473L14.8414 28.8881C15.1022 29.1463 15.5169 29.3469 15.8862 29.3469C16.2554 29.3469 16.6514 29.1115 16.8895 28.7623L24.7904 17.0982C24.9125 16.9208 24.959 16.7022 24.9199 16.4904C24.8808 16.2787 24.7591 16.0912 24.5818 15.9691L23.244 15.0501C23.0589 14.9286 22.8341 14.8836 22.6166 14.9243Z" fill="#3A5BCD"/>
<rect x="23.3335" y="23.3331" width="16.6665" height="16.6665" rx="8.33325" fill="#F5F7FC"/>
<path d="M33.504 27.5133H28.7094C27.987 27.5133 27.6258 27.5133 27.3509 27.6561C27.1192 27.7765 26.9303 27.9654 26.81 28.197C26.6672 28.4719 26.6672 28.8331 26.6672 29.5555V36.887C26.6672 37.6094 26.6672 37.9706 26.81 38.2455C26.9303 38.4772 27.1192 38.666 27.3509 38.7864C27.6258 38.9292 27.987 38.9292 28.7094 38.9292H30.4725H34.5462C35.0985 38.9292 35.5462 38.4815 35.5462 37.9292V33.5384V29.5555C35.5462 28.8331 35.5462 28.4719 35.4034 28.197C35.2831 27.9654 35.0942 27.7765 34.8625 27.6561C34.5876 27.5133 34.2264 27.5133 33.504 27.5133Z" fill="#F5F7FC"/>
<path d="M29.204 34.9321C28.7898 34.9321 28.454 35.2679 28.454 35.6821C28.454 36.0963 28.7898 36.4321 29.204 36.4321V34.9321ZM30.4725 36.4321C30.8867 36.4321 31.2225 36.0963 31.2225 35.6821C31.2225 35.2679 30.8867 34.9321 30.4725 34.9321V36.4321ZM29.204 32.3952C28.7898 32.3952 28.454 32.731 28.454 33.1452C28.454 33.5594 28.7898 33.8952 29.204 33.8952V32.3952ZM33.0093 33.8952C33.4236 33.8952 33.7593 33.5594 33.7593 33.1452C33.7593 32.731 33.4236 32.3952 33.0093 32.3952V33.8952ZM29.204 29.8584C28.7898 29.8584 28.454 30.1942 28.454 30.6084C28.454 31.0226 28.7898 31.3584 29.204 31.3584V29.8584ZM33.0093 31.3584C33.4236 31.3584 33.7593 31.0226 33.7593 30.6084C33.7593 30.1942 33.4236 29.8584 33.0093 29.8584V31.3584ZM27.3509 38.7864L27.6966 38.1208H27.6966L27.3509 38.7864ZM26.81 38.2455L26.1444 38.5912L26.1444 38.5912L26.81 38.2455ZM34.8625 27.6561L34.5168 28.3217L34.5168 28.3217L34.8625 27.6561ZM35.4034 28.197L36.069 27.8513L36.069 27.8513L35.4034 28.197ZM27.3509 27.6561L27.0052 26.9906L27.3509 27.6561ZM26.81 28.197L26.1444 27.8513L26.1444 27.8513L26.81 28.197ZM29.204 36.4321H30.4725V34.9321H29.204V36.4321ZM29.204 33.8952H33.0093V32.3952H29.204V33.8952ZM29.204 31.3584H33.0093V29.8584H29.204V31.3584ZM28.7094 28.2633H33.504V26.7633H28.7094V28.2633ZM34.7962 29.5555V33.5384H36.2962V29.5555H34.7962ZM30.4725 38.1792H28.7094V39.6792H30.4725V38.1792ZM27.4172 36.887V29.5555H25.9172V36.887H27.4172ZM28.7094 38.1792C28.3356 38.1792 28.1011 38.1786 27.9244 38.1639C27.7567 38.15 27.7092 38.1274 27.6966 38.1208L27.0052 39.452C27.2675 39.5882 27.5381 39.637 27.8003 39.6588C28.0535 39.6798 28.3608 39.6792 28.7094 39.6792V38.1792ZM25.9172 36.887C25.9172 37.2356 25.9166 37.5429 25.9376 37.7961C25.9594 38.0583 26.0081 38.3289 26.1444 38.5912L27.4755 37.8998C27.469 37.8872 27.4464 37.8397 27.4325 37.672C27.4178 37.4953 27.4172 37.2608 27.4172 36.887H25.9172ZM27.6966 38.1208C27.6019 38.0716 27.5247 37.9944 27.4755 37.8998L26.1444 38.5912C26.3359 38.9599 26.6365 39.2605 27.0052 39.452L27.6966 38.1208ZM33.504 28.2633C33.8778 28.2633 34.1123 28.2639 34.289 28.2786C34.4567 28.2925 34.5042 28.3151 34.5168 28.3217L35.2082 26.9906C34.9459 26.8543 34.6753 26.8055 34.4131 26.7837C34.1599 26.7627 33.8526 26.7633 33.504 26.7633V28.2633ZM36.2962 29.5555C36.2962 29.2069 36.2968 28.8996 36.2758 28.6464C36.254 28.3842 36.2052 28.1136 36.069 27.8513L34.7378 28.5428C34.7444 28.5553 34.767 28.6028 34.7809 28.7705C34.7956 28.9472 34.7962 29.1817 34.7962 29.5555H36.2962ZM34.5168 28.3217C34.6114 28.3709 34.6886 28.4481 34.7378 28.5428L36.069 27.8513C35.8775 27.4826 35.5769 27.1821 35.2082 26.9906L34.5168 28.3217ZM28.7094 26.7633C28.3608 26.7633 28.0535 26.7627 27.8003 26.7837C27.5381 26.8055 27.2675 26.8543 27.0052 26.9906L27.6966 28.3217C27.7092 28.3151 27.7567 28.2925 27.9244 28.2786C28.1011 28.2639 28.3356 28.2633 28.7094 28.2633V26.7633ZM27.4172 29.5555C27.4172 29.1817 27.4178 28.9472 27.4325 28.7705C27.4464 28.6028 27.469 28.5553 27.4755 28.5428L26.1444 27.8513C26.0081 28.1136 25.9594 28.3842 25.9376 28.6464C25.9166 28.8996 25.9172 29.2069 25.9172 29.5555H27.4172ZM27.0052 26.9906C26.6365 27.1821 26.3359 27.4826 26.1444 27.8513L27.4755 28.5428C27.5247 28.4481 27.6019 28.3709 27.6966 28.3217L27.0052 26.9906ZM30.4725 39.6792H34.5462V38.1792H30.4725V39.6792ZM36.2962 37.9292V33.5384H34.7962V37.9292H36.2962ZM34.5462 39.6792C35.5127 39.6792 36.2962 38.8957 36.2962 37.9292H34.7962C34.7962 38.0673 34.6843 38.1792 34.5462 38.1792V39.6792Z" fill="#3A5BCD"/>
<path d="M33.5174 26.0867L33.5174 28.3677" stroke="#3A5BCD" stroke-width="1.5" stroke-linecap="round"/>
<path d="M29.5218 26.0867L29.5218 28.3677" stroke="#3A5BCD" stroke-width="1.5" stroke-linecap="round"/>
</svg>
