<svg width="32" height="32" viewBox="0 0 32 32" fill="none" xmlns="http://www.w3.org/2000/svg">
<circle cx="16" cy="16" r="16" fill="#263238" fill-opacity="0.15"/>
<path d="M20.24 24V23V24ZM12.56 24V25V24ZM10 21.44H9H10ZM10 10.56L11 10.56L10 10.56ZM10.1744 8.87361L9.28338 8.41962L9.28338 8.41962L10.1744 8.87361ZM12.56 8L12.56 9L12.56 8ZM10.8736 8.17439L10.4196 7.28338L10.4196 7.28338L10.8736 8.17439ZM10.8736 23.8256L10.4196 24.7166H10.4196L10.8736 23.8256ZM10.1744 23.1264L11.0654 22.6724H11.0654L10.1744 23.1264ZM21.9264 23.8256L21.4724 22.9346H21.4724L21.9264 23.8256ZM22.8 21.44H23.8H22.8ZM22.6256 23.1264L21.7346 22.6724L22.6256 23.1264ZM23.8 12.8C23.8 12.2477 23.3523 11.8 22.8 11.8C22.2477 11.8 21.8 12.2477 21.8 12.8H23.8ZM18 9C18.5523 9 19 8.55229 19 8C19 7.44772 18.5523 7 18 7V9ZM22.6634 12.6634L23.3705 11.9563L22.6634 12.6634ZM18.1366 8.13657L17.4295 8.84368L17.4295 8.84368L18.1366 8.13657ZM22.6069 12.8V13.8V12.8ZM18.8 12.8V11.8V12.8ZM18 12H19H18ZM18 8.19314L17 8.19314V8.19314H18ZM13.2 15C12.6477 15 12.2 15.4477 12.2 16C12.2 16.5523 12.6477 17 13.2 17V15ZM19.6 17C20.1523 17 20.6 16.5523 20.6 16C20.6 15.4477 20.1523 15 19.6 15V17ZM13.2 11.8C12.6477 11.8 12.2 12.2477 12.2 12.8C12.2 13.3523 12.6477 13.8 13.2 13.8V11.8ZM14.8 13.8C15.3523 13.8 15.8 13.3523 15.8 12.8C15.8 12.2477 15.3523 11.8 14.8 11.8V13.8ZM13.2 18.2C12.6477 18.2 12.2 18.6477 12.2 19.2C12.2 19.7523 12.6477 20.2 13.2 20.2V18.2ZM19.6 20.2C20.1523 20.2 20.6 19.7523 20.6 19.2C20.6 18.6477 20.1523 18.2 19.6 18.2V20.2ZM20.24 23H12.56V25H20.24V23ZM11 21.44L11 10.56L9 10.56L9 21.44H11ZM11 10.56C11 10.0955 11.0008 9.80719 11.0185 9.59055C11.0352 9.38559 11.062 9.33427 11.0654 9.3276L9.28338 8.41962C9.11239 8.75522 9.05197 9.09905 9.02512 9.42769C8.99922 9.74466 9 10.1285 9 10.56L11 10.56ZM12.56 7C12.1285 7 11.7447 6.99922 11.4277 7.02512C11.099 7.05197 10.7552 7.11239 10.4196 7.28338L11.3276 9.0654C11.3343 9.062 11.3856 9.03522 11.5906 9.01848C11.8072 9.00078 12.0955 9 12.56 9L12.56 7ZM11.0654 9.32761C11.1229 9.21471 11.2147 9.12292 11.3276 9.06539L10.4196 7.28338C9.93041 7.53265 9.53266 7.9304 9.28338 8.41962L11.0654 9.32761ZM12.56 23C12.0955 23 11.8072 22.9992 11.5906 22.9815C11.3856 22.9648 11.3343 22.938 11.3276 22.9346L10.4196 24.7166C10.7552 24.8876 11.099 24.948 11.4277 24.9749C11.7447 25.0008 12.1285 25 12.56 25V23ZM9 21.44C9 21.8715 8.99922 22.2553 9.02512 22.5723C9.05197 22.901 9.11239 23.2448 9.28338 23.5804L11.0654 22.6724C11.062 22.6657 11.0352 22.6144 11.0185 22.4094C11.0008 22.1928 11 21.9045 11 21.44H9ZM11.3276 22.9346C11.2147 22.8771 11.1229 22.7853 11.0654 22.6724L9.28338 23.5804C9.53265 24.0696 9.9304 24.4673 10.4196 24.7166L11.3276 22.9346ZM20.24 25C20.6715 25 21.0553 25.0008 21.3723 24.9749C21.701 24.948 22.0448 24.8876 22.3804 24.7166L21.4724 22.9346C21.4657 22.938 21.4144 22.9648 21.2094 22.9815C20.9928 22.9992 20.7045 23 20.24 23V25ZM21.8 21.44C21.8 21.9045 21.7992 22.1928 21.7815 22.4094C21.7648 22.6144 21.738 22.6657 21.7346 22.6724L23.5166 23.5804C23.6876 23.2448 23.748 22.901 23.7749 22.5723C23.8008 22.2553 23.8 21.8715 23.8 21.44H21.8ZM22.3804 24.7166C22.8696 24.4673 23.2673 24.0696 23.5166 23.5804L21.7346 22.6724C21.6771 22.7853 21.5853 22.8771 21.4724 22.9346L22.3804 24.7166ZM21.8 12.8V21.44H23.8V12.8H21.8ZM12.56 9L18 9V7L12.56 7L12.56 9ZM23.3705 11.9563L18.8437 7.42946L17.4295 8.84368L21.9563 13.3705L23.3705 11.9563ZM22.6069 11.8L18.8 11.8V13.8L22.6069 13.8V11.8ZM19 12V8.19314H17V12H19ZM18.8 11.8C18.9105 11.8 19 11.8895 19 12L17 12C17 12.9941 17.8059 13.8 18.8 13.8V11.8ZM18.8437 7.42946C18.1633 6.7491 17 7.23096 17 8.19314L19 8.19314C19 9.01277 18.009 9.42324 17.4295 8.84368L18.8437 7.42946ZM21.9563 13.3705C21.3767 12.791 21.7872 11.8 22.6069 11.8V13.8C23.569 13.8 24.0509 12.6367 23.3705 11.9563L21.9563 13.3705ZM13.2 17H19.6V15H13.2V17ZM13.2 13.8H14.8V11.8H13.2V13.8ZM13.2 20.2H19.6V18.2H13.2V20.2Z" fill="#263238"/>
</svg>
