<svg width="22" height="22" viewBox="0 0 22 22" fill="none" xmlns="http://www.w3.org/2000/svg">
<path d="M17.9161 17.5397C17.5555 16.8332 17.0797 16.1705 16.4885 15.5793C13.4573 12.5481 8.54278 12.5481 5.51157 15.5793C4.92043 16.1705 4.44457 16.8332 4.084 17.5397M1 11C1 5.47715 5.47715 1 11 1C16.5229 1 21 5.47715 21 11C21 16.5228 16.5228 21 11 21C5.47715 21 1 16.5228 1 11ZM14.6364 9.18182C14.6364 11.1901 13.0083 12.8182 11 12.8182C8.99169 12.8182 7.36364 11.1901 7.36364 9.18182C7.36364 7.17351 8.99169 5.54545 11 5.54545C13.0083 5.54545 14.6364 7.17351 14.6364 9.18182Z" stroke="#FFD558" stroke-width="2"/>
</svg>
