<svg width="32" height="32" viewBox="0 0 32 32" fill="none" xmlns="http://www.w3.org/2000/svg">
<circle cx="16" cy="16" r="16" fill="#E75D24" fill-opacity="0.15"/>
<path d="M15.8877 16.1123L18.0389 13.9611M23.7754 16.1123C23.7754 20.4686 20.2439 24 15.8877 24C11.5314 24 8 20.4686 8 16.1123C8 11.7561 11.5314 8.22462 15.8877 8.22462M20.9071 16.1123C20.9071 18.8845 18.6599 21.1317 15.8877 21.1317C13.1155 21.1317 10.8683 18.8845 10.8683 16.1123C10.8683 13.3401 13.1155 11.0929 15.8877 11.0929M18.0389 13.6026V10.4615C18.0389 10.365 18.0778 10.2726 18.1468 10.2051L20.298 8.10283C20.525 7.88097 20.9071 8.04181 20.9071 8.35925V10.7343C20.9071 10.9323 21.0677 11.0929 21.2657 11.0929H23.6408C23.9582 11.0929 24.119 11.475 23.8972 11.702L21.7949 13.8532C21.7274 13.9222 21.635 13.9611 21.5385 13.9611H18.3974C18.1994 13.9611 18.0389 13.8006 18.0389 13.6026Z" stroke="#E75D24" stroke-linecap="round"/>
</svg>
