<svg width="35" height="42" viewBox="0 0 35 42" fill="none" xmlns="http://www.w3.org/2000/svg">
<rect x="1" y="4.98438" width="27.8943" height="35.8642" rx="2" fill="white"/>
<path d="M28.3962 21.2367V7.35937C28.3962 6.25481 27.5008 5.35938 26.3962 5.35938H3C1.89543 5.35938 1 6.2548 1 7.35937V38.8499C1 39.9545 1.89543 40.8499 3 40.8499H26.3962C27.5008 40.8499 28.3962 39.9545 28.3962 38.8499V35.2462" stroke="#E75D24" stroke-width="2" stroke-linecap="round"/>
<rect x="4.57031" y="9.21875" width="4.81321" height="4.81321" rx="2.4066" stroke="#E75D24" stroke-width="0.5"/>
<rect x="4.57031" y="17.1875" width="4.81321" height="4.81321" rx="2.4066" stroke="#E75D24" stroke-width="0.5"/>
<path d="M8.30504 10.9609L6.69051 12.4934C6.60406 12.5754 6.46389 12.5754 6.37743 12.4934L5.64844 11.8014" stroke="#E75D24" stroke-width="0.5" stroke-linecap="round"/>
<path d="M8.30504 18.9297L6.69051 20.4621C6.60406 20.5442 6.46389 20.5442 6.37743 20.4621L5.64844 19.7702" stroke="#E75D24" stroke-width="0.5" stroke-linecap="round"/>
<path d="M8.30504 26.9023L6.69051 28.4348C6.60406 28.5168 6.46389 28.5168 6.37743 28.4348L5.64844 27.7428" stroke="#E75D24" stroke-width="0.5" stroke-linecap="round"/>
<path d="M8.30504 34.8711L6.69051 36.4035C6.60406 36.4856 6.46389 36.4856 6.37743 36.4035L5.64844 35.7116" stroke="#E75D24" stroke-width="0.5" stroke-linecap="round"/>
<rect x="4.57031" y="25.1602" width="4.81321" height="4.81321" rx="2.4066" stroke="#E75D24" stroke-width="0.5"/>
<rect x="4.57031" y="33.1289" width="4.81321" height="4.81321" rx="2.4066" stroke="#E75D24" stroke-width="0.5"/>
<path d="M12.2891 10.2969L24.2438 10.2969" stroke="#E75D24" stroke-linecap="round"/>
<path d="M12.2891 18.2656L24.2438 18.2656" stroke="#E75D24" stroke-linecap="round"/>
<path d="M12.2891 26.2383H20.2589" stroke="#E75D24" stroke-linecap="round"/>
<path d="M12.2891 34.207H24.2438" stroke="#E75D24" stroke-linecap="round"/>
<path d="M12.2891 12.9531L24.2438 12.9531" stroke="#E75D24" stroke-linecap="round"/>
<path d="M12.2891 20.9219L24.2438 20.9219" stroke="#E75D24" stroke-linecap="round"/>
<path d="M12.2891 28.8945H20.2589" stroke="#E75D24" stroke-linecap="round"/>
<path d="M12.2891 36.8633H24.2438" stroke="#E75D24" stroke-linecap="round"/>
<path d="M6.97736 3.65822V3.65822C6.97736 2.19102 8.16676 1.00162 9.63396 1.00162L31 1.00162C32.6569 1.00162 34 2.34477 34 4.00163L34 33.4922C34 35.149 32.6568 36.4922 31 36.4922L30.8868 36.4922" stroke="#E75D24" stroke-width="2" stroke-linecap="round"/>
<circle cx="27.5671" cy="28.2312" r="5.31321" fill="white"/>
<circle cx="27.5671" cy="28.2312" r="5.31321" fill="#E75D24" fill-opacity="0.15"/>
<path d="M27.4715 25.7031C26.0774 25.7031 24.9414 26.8391 24.9414 28.2332C24.9414 29.6273 26.0774 30.7633 27.4715 30.7633C28.8656 30.7633 30.0016 29.6273 30.0016 28.2332C30.0016 26.8391 28.8656 25.7031 27.4715 25.7031ZM28.6809 27.6513L27.2463 29.0859C27.2109 29.1213 27.1628 29.1415 27.1122 29.1415C27.0616 29.1415 27.0136 29.1213 26.9781 29.0859L26.2621 28.3698C26.1887 28.2965 26.1887 28.175 26.2621 28.1017C26.3355 28.0283 26.4569 28.0283 26.5303 28.1017L27.1122 28.6836L28.4127 27.3831C28.4861 27.3097 28.6075 27.3097 28.6809 27.3831C28.7543 27.4565 28.7543 27.5754 28.6809 27.6513Z" fill="#E75D24"/>
</svg>
