<svg width="20" height="25" viewBox="0 0 20 25" fill="none" xmlns="http://www.w3.org/2000/svg">
<path d="M12.3219 3.36328H4.38187C3.18563 3.36328 2.58751 3.36328 2.13225 3.59977C1.7486 3.79906 1.43578 4.11188 1.23649 4.49553C1 4.95079 1 5.54891 1 6.74515V18.8863C1 20.0825 1 20.6806 1.23649 21.1359C1.43578 21.5196 1.7486 21.8324 2.13225 22.0317C2.58751 22.2682 3.18563 22.2682 4.38187 22.2682H7.30162H13.7038C14.8084 22.2682 15.7038 21.3727 15.7038 20.2682V13.3409V6.74515C15.7038 5.54891 15.7038 4.95079 15.4673 4.49553C15.268 4.11188 14.9552 3.79906 14.5715 3.59977C14.1163 3.36328 13.5182 3.36328 12.3219 3.36328Z" fill="#F5F7FC"/>
<path d="M5.20108 16.1409C4.78687 16.1409 4.45108 16.4767 4.45108 16.8909C4.45108 17.3051 4.78687 17.6409 5.20108 17.6409V16.1409ZM7.30162 17.6409C7.71584 17.6409 8.05162 17.3051 8.05162 16.8909C8.05162 16.4767 7.71584 16.1409 7.30162 16.1409V17.6409ZM5.20108 11.9398C4.78687 11.9398 4.45108 12.2756 4.45108 12.6898C4.45108 13.104 4.78687 13.4398 5.20108 13.4398V11.9398ZM11.5027 13.4398C11.9169 13.4398 12.2527 13.104 12.2527 12.6898C12.2527 12.2756 11.9169 11.9398 11.5027 11.9398V13.4398ZM5.20108 7.73874C4.78687 7.73874 4.45108 8.07453 4.45108 8.48874C4.45108 8.90295 4.78687 9.23874 5.20108 9.23874V7.73874ZM11.5027 9.23874C11.9169 9.23874 12.2527 8.90295 12.2527 8.48874C12.2527 8.07453 11.9169 7.73874 11.5027 7.73874V9.23874ZM2.13225 22.0317L1.78651 22.6972H1.78652L2.13225 22.0317ZM1.23649 21.1359L1.90205 20.7902L1.90205 20.7902L1.23649 21.1359ZM14.5715 3.59977L14.2258 4.26533V4.26533L14.5715 3.59977ZM15.4673 4.49553L14.8017 4.84126V4.84126L15.4673 4.49553ZM2.13225 3.59977L1.78651 2.93421L2.13225 3.59977ZM1.23649 4.49553L0.570933 4.1498V4.1498L1.23649 4.49553ZM5.20108 16.8909V17.6409H7.30162V16.8909V16.1409H5.20108V16.8909ZM5.20108 12.6898V13.4398H11.5027V12.6898V11.9398H5.20108V12.6898ZM5.20108 8.48874V9.23874H11.5027V8.48874V7.73874H5.20108V8.48874ZM4.38187 3.36328V4.11328H12.3219V3.36328V2.61328H4.38187V3.36328ZM15.7038 6.74515H14.9538V13.3409H15.7038H16.4538V6.74515H15.7038ZM7.30162 22.2682V21.5182H4.38187V22.2682V23.0182H7.30162V22.2682ZM1 18.8863H1.75V6.74515H1H0.25V18.8863H1ZM4.38187 22.2682V21.5182C3.77116 21.5182 3.35899 21.5175 3.04126 21.4912C2.73251 21.4655 2.58071 21.4195 2.47798 21.3661L2.13225 22.0317L1.78652 22.6972C2.13905 22.8803 2.51394 22.9525 2.91712 22.986C3.31133 23.0188 3.79634 23.0182 4.38187 23.0182V22.2682ZM1 18.8863H0.25C0.25 19.4718 0.249397 19.9568 0.282134 20.351C0.315617 20.7542 0.387808 21.1291 0.570933 21.4816L1.23649 21.1359L1.90205 20.7902C1.84868 20.6874 1.80263 20.5356 1.77699 20.2269C1.7506 19.9092 1.75 19.497 1.75 18.8863H1ZM2.13225 22.0317L2.47798 21.3661C2.23131 21.238 2.03018 21.0368 1.90205 20.7902L1.23649 21.1359L0.570933 21.4816C0.841381 22.0023 1.26589 22.4268 1.78651 22.6972L2.13225 22.0317ZM12.3219 3.36328V4.11328C12.9326 4.11328 13.3448 4.11388 13.6625 4.14027C13.9713 4.16591 14.1231 4.21197 14.2258 4.26533L14.5715 3.59977L14.9173 2.93421C14.5647 2.75109 14.1898 2.6789 13.7867 2.64542C13.3925 2.61268 12.9074 2.61328 12.3219 2.61328V3.36328ZM15.7038 6.74515H16.4538C16.4538 6.15962 16.4544 5.67461 16.4217 5.2804C16.3882 4.87722 16.316 4.50233 16.1329 4.1498L15.4673 4.49553L14.8017 4.84126C14.8551 4.944 14.9012 5.0958 14.9268 5.40455C14.9532 5.72228 14.9538 6.13445 14.9538 6.74515H15.7038ZM14.5715 3.59977L14.2258 4.26533C14.4725 4.39347 14.6736 4.59459 14.8017 4.84126L15.4673 4.49553L16.1329 4.1498C15.8624 3.62916 15.4379 3.20466 14.9173 2.93421L14.5715 3.59977ZM4.38187 3.36328V2.61328C3.79634 2.61328 3.31133 2.61268 2.91712 2.64542C2.51394 2.6789 2.13904 2.75109 1.78651 2.93421L2.13225 3.59977L2.47798 4.26533C2.58071 4.21197 2.73251 4.16591 3.04126 4.14027C3.35899 4.11388 3.77116 4.11328 4.38187 4.11328V3.36328ZM1 6.74515H1.75C1.75 6.13444 1.7506 5.72228 1.77699 5.40455C1.80263 5.09579 1.84868 4.944 1.90205 4.84126L1.23649 4.49553L0.570933 4.1498C0.387808 4.50233 0.315617 4.87722 0.282134 5.28041C0.249397 5.67461 0.25 6.15962 0.25 6.74515H1ZM2.13225 3.59977L1.78651 2.93421C1.26588 3.20466 0.841379 3.62916 0.570933 4.1498L1.23649 4.49553L1.90205 4.84126C2.03019 4.59459 2.23131 4.39347 2.47798 4.26533L2.13225 3.59977ZM7.30162 22.2682V23.0182H13.7038V22.2682V21.5182H7.30162V22.2682ZM15.7038 20.2682H16.4538V13.3409H15.7038H14.9538V20.2682H15.7038ZM13.7038 22.2682V23.0182C15.2226 23.0182 16.4538 21.7869 16.4538 20.2682H15.7038H14.9538C14.9538 20.9585 14.3941 21.5182 13.7038 21.5182V22.2682Z" fill="#9EBE5D"/>
<path d="M12.3438 1L12.3438 4.77745" stroke="#9EBE5D" stroke-width="1.5" stroke-linecap="round"/>
<path d="M5.72656 1L5.72656 4.77745" stroke="#9EBE5D" stroke-width="1.5" stroke-linecap="round"/>
<circle cx="14.9216" cy="20.6794" r="4.32" fill="white"/>
<circle cx="14.9216" cy="20.6794" r="4.32" fill="#9EBE5D" fill-opacity="0.15"/>
<path d="M14.9219 18C13.3722 18 12.1094 19.2628 12.1094 20.8125C12.1094 22.3622 13.3722 23.625 14.9219 23.625C16.4716 23.625 17.7344 22.3622 17.7344 20.8125C17.7344 19.2628 16.4716 18 14.9219 18ZM16.2662 20.1656L14.6716 21.7603C14.6322 21.7997 14.5787 21.8222 14.5225 21.8222C14.4662 21.8222 14.4128 21.7997 14.3734 21.7603L13.5775 20.9644C13.4959 20.8828 13.4959 20.7478 13.5775 20.6662C13.6591 20.5847 13.7941 20.5847 13.8756 20.6662L14.5225 21.3131L15.9681 19.8675C16.0497 19.7859 16.1847 19.7859 16.2662 19.8675C16.3478 19.9491 16.3478 20.0812 16.2662 20.1656Z" fill="#9EBE5D"/>
</svg>
