<svg width="24" height="24" viewBox="0 0 24 24" fill="none" xmlns="http://www.w3.org/2000/svg">
<circle cx="12" cy="12" r="12" fill="#9EBE5D" fill-opacity="0.15"/>
<path d="M9.53687 13.8446C9.12265 13.8446 8.78687 14.1804 8.78687 14.5946C8.78687 15.0088 9.12265 15.3446 9.53687 15.3446V13.8446ZM10.8053 15.3446C11.2195 15.3446 11.5553 15.0088 11.5553 14.5946C11.5553 14.1804 11.2195 13.8446 10.8053 13.8446V15.3446ZM9.53687 11.3077C9.12265 11.3077 8.78687 11.6435 8.78687 12.0577C8.78687 12.4719 9.12265 12.8077 9.53687 12.8077V11.3077ZM13.3422 12.8077C13.7564 12.8077 14.0922 12.4719 14.0922 12.0577C14.0922 11.6435 13.7564 11.3077 13.3422 11.3077V12.8077ZM9.53687 8.77084C9.12265 8.77084 8.78687 9.10663 8.78687 9.52084C8.78687 9.93505 9.12265 10.2708 9.53687 10.2708V8.77084ZM13.3422 10.2708C13.7564 10.2708 14.0922 9.93505 14.0922 9.52084C14.0922 9.10663 13.7564 8.77084 13.3422 8.77084V10.2708ZM7.68372 17.6989L8.02945 17.0333L8.02945 17.0333L7.68372 17.6989ZM7.14281 17.158L6.47725 17.5037L6.47725 17.5037L7.14281 17.158ZM15.1953 6.56859L14.8496 7.23415L14.8496 7.23415L15.1953 6.56859ZM15.7362 7.1095L15.0707 7.45523V7.45523L15.7362 7.1095ZM7.68372 6.56859L7.33799 5.90303L7.68372 6.56859ZM7.14281 7.1095L6.47725 6.76377V6.76377L7.14281 7.1095ZM9.53687 14.5946V15.3446H10.8053V14.5946V13.8446H9.53687V14.5946ZM9.53687 12.0577V12.8077H13.3422V12.0577V11.3077H9.53687V12.0577ZM9.53687 9.52084V10.2708H13.3422V9.52084V8.77084H9.53687V9.52084ZM9.04218 6.42578V7.17578H13.8369V6.42578V5.67578H9.04218V6.42578ZM15.879 8.46796H15.129V12.4508H15.879H16.629V8.46796H15.879ZM10.8053 17.8417V17.0917H9.04218V17.8417V18.5917H10.8053V17.8417ZM7 15.7995H7.75V8.46796H7H6.25V15.7995H7ZM9.04218 17.8417V17.0917C8.66841 17.0917 8.43394 17.0911 8.25723 17.0764C8.08949 17.0625 8.04201 17.0398 8.02945 17.0333L7.68372 17.6989L7.33799 18.3644C7.60034 18.5007 7.87091 18.5495 8.13309 18.5712C8.38628 18.5923 8.69359 18.5917 9.04218 18.5917V17.8417ZM7 15.7995H6.25C6.25 16.1481 6.2494 16.4554 6.27042 16.7086C6.2922 16.9708 6.34097 17.2413 6.47725 17.5037L7.14281 17.158L7.80837 16.8122C7.80184 16.7997 7.77921 16.7522 7.76528 16.5844C7.7506 16.4077 7.75 16.1733 7.75 15.7995H7ZM7.68372 17.6989L8.02945 17.0333C7.93476 16.9841 7.85755 16.9069 7.80837 16.8122L7.14281 17.158L6.47725 17.5037C6.66875 17.8723 6.96934 18.1729 7.33799 18.3644L7.68372 17.6989ZM13.8369 6.42578V7.17578C14.2106 7.17578 14.4451 7.17638 14.6218 7.19106C14.7895 7.20499 14.837 7.22762 14.8496 7.23415L15.1953 6.56859L15.541 5.90303C15.2787 5.76675 15.0081 5.71798 14.7459 5.69621C14.4927 5.67518 14.1854 5.67578 13.8369 5.67578V6.42578ZM15.879 8.46796H16.629C16.629 8.11937 16.6296 7.81206 16.6086 7.55887C16.5868 7.29669 16.5381 7.02612 16.4018 6.76377L15.7362 7.1095L15.0707 7.45523C15.0772 7.46779 15.0998 7.51527 15.1138 7.68301C15.1284 7.85972 15.129 8.09419 15.129 8.46796H15.879ZM15.1953 6.56859L14.8496 7.23415C14.9443 7.28334 15.0215 7.36054 15.0707 7.45523L15.7362 7.1095L16.4018 6.76377C16.2103 6.39511 15.9097 6.09453 15.541 5.90303L15.1953 6.56859ZM9.04218 6.42578V5.67578C8.69358 5.67578 8.38628 5.67518 8.13309 5.69621C7.87091 5.71798 7.60034 5.76675 7.33799 5.90303L7.68372 6.56859L8.02945 7.23415C8.04201 7.22762 8.08949 7.20499 8.25723 7.19106C8.43394 7.17638 8.66841 7.17578 9.04218 7.17578V6.42578ZM7 8.46796H7.75C7.75 8.09419 7.7506 7.85972 7.76528 7.68301C7.77921 7.51527 7.80184 7.46779 7.80837 7.45523L7.14281 7.1095L6.47725 6.76377C6.34097 7.02612 6.2922 7.2967 6.27042 7.55887C6.2494 7.81206 6.25 8.11937 6.25 8.46796H7ZM7.68372 6.56859L7.33799 5.90303C6.96933 6.09453 6.66875 6.39512 6.47725 6.76377L7.14281 7.1095L7.80837 7.45523C7.85756 7.36054 7.93476 7.28334 8.02945 7.23415L7.68372 6.56859ZM10.8053 17.8417V18.5917H14.879V17.8417V17.0917H10.8053V17.8417ZM15.879 16.8417H16.629V12.4508H15.879H15.129V16.8417H15.879ZM14.879 17.8417V18.5917C15.8455 18.5917 16.629 17.8082 16.629 16.8417H15.879H15.129C15.129 16.9797 15.0171 17.0917 14.879 17.0917V17.8417Z" fill="#9EBE5D"/>
<path d="M13.8516 5L13.8516 7.28105" stroke="#9EBE5D" stroke-width="1.5" stroke-linecap="round"/>
<path d="M9.85547 5L9.85547 7.28105" stroke="#9EBE5D" stroke-width="1.5" stroke-linecap="round"/>
</svg>
