<svg width="36" height="40" viewBox="0 0 36 40" fill="none" xmlns="http://www.w3.org/2000/svg">
<path d="M14.7273 2.1233C15.1179 1.73225 15.7517 1.73223 16.1423 2.12327L18.2215 4.20473C18.9471 4.93106 19.9937 5.23593 20.9958 5.01288L23.0565 4.5542C23.6299 4.42656 24.1893 4.81838 24.2653 5.40092L24.5578 7.64215C24.6851 8.61769 25.2826 9.46881 26.1569 9.91995L28.7315 11.2485C29.2028 11.4917 29.4023 12.0604 29.1861 12.5447L27.7697 15.7187C27.3615 16.6335 27.4368 17.6917 27.9704 18.5394L28.9487 20.0936C29.2447 20.5638 29.1007 21.185 28.628 21.477L26.6711 22.6861C26.0363 23.0782 25.5705 23.6928 25.3645 24.41L24.4287 27.6674C24.3056 28.096 23.9135 28.3913 23.4676 28.3913H19.8709C19.1673 28.3913 18.486 28.6386 17.9463 29.09L15.9898 30.7263C15.6381 31.0205 15.1314 31.0377 14.7605 30.7682L12.2777 28.9643C11.7651 28.5919 11.1478 28.3913 10.5143 28.3913H7.402C6.95603 28.3913 6.56396 28.096 6.44086 27.6673L5.50543 24.4102C5.29944 23.6929 4.83352 23.0782 4.19864 22.686L1.98644 21.3194C1.56628 21.0599 1.39852 20.5325 1.5915 20.0779L2.40632 18.1585C2.68019 17.5134 2.71955 16.7928 2.51757 16.1216L1.4002 12.409C1.26968 11.9753 1.44692 11.5081 1.83222 11.27L4.19864 9.8082C4.83352 9.41601 5.29944 8.80128 5.50543 8.08402L6.33714 5.18803C6.48309 4.67983 6.99943 4.37308 7.51554 4.48795L9.87407 5.01289C10.8762 5.23594 11.9228 4.93102 12.6484 4.20463L14.7273 2.1233Z" fill="#F5F7FC" stroke="#65C0DD" stroke-width="2"/>
<path d="M9.64669 28.8692L6.71269 36.1308C6.69789 36.1675 6.72943 36.206 6.76827 36.1987L10.2089 35.5536C10.2281 35.55 10.2476 35.5579 10.2589 35.5738L12.562 38.8125C12.5849 38.8447 12.6343 38.8389 12.6491 38.8023L15.5831 31.5406" stroke="#65C0DD" stroke-width="2"/>
<path d="M16.0535 31.2762L18.8888 38.1951C18.904 38.2322 18.9544 38.2372 18.9767 38.204L21.0289 35.1395C21.039 35.1244 21.0565 35.116 21.0745 35.1175L24.9633 35.4312C25.0004 35.4342 25.0277 35.3969 25.0136 35.3624L22.1735 28.432" stroke="#65C0DD" stroke-width="2"/>
<circle cx="15.3415" cy="16.7158" r="8.31089" stroke="#65C0DD"/>
<path d="M15.0026 11.5053C14.8917 11.5631 14.6282 12.032 14.1429 13.0421L13.4428 14.4922L12.084 14.6942C11.3353 14.8025 10.6282 14.9251 10.5034 14.9612C10.2746 15.0333 10.0875 15.2642 10.0667 15.5023C10.0181 15.928 10.0667 15.9929 11.1759 17.1184L12.2781 18.2367L12.0285 19.7878C11.7998 21.1514 11.779 21.3751 11.8622 21.5699C11.9662 21.844 12.3544 22.0605 12.6109 21.9883C12.7079 21.9667 13.3388 21.642 14.0182 21.2668C14.6975 20.8917 15.2937 20.5814 15.3353 20.5814C15.3769 20.5814 15.98 20.8989 16.6733 21.2813C18.136 22.0893 18.3371 22.1398 18.6698 21.7502C18.9263 21.4544 18.9263 21.3895 18.6282 19.6435L18.3925 18.2367L19.4601 17.1545C20.0494 16.5556 20.5624 15.9857 20.5971 15.8775C20.6872 15.6177 20.5693 15.1993 20.3614 15.055C20.2643 14.99 19.5988 14.853 18.7184 14.7159L17.2418 14.485L16.5485 13.0637C15.9592 11.8444 15.8275 11.6208 15.6404 11.527C15.3839 11.4043 15.2244 11.3971 15.0026 11.5053ZM15.7998 14.7736C16.1187 15.4374 16.2851 15.6971 16.4237 15.7692C16.5346 15.827 17.013 15.9352 17.5052 16.0001C17.9905 16.0723 18.3856 16.1516 18.3856 16.1877C18.3856 16.2165 18.0875 16.5196 17.727 16.8659C16.8813 17.6811 16.8674 17.71 17.0892 18.9798C17.1863 19.5064 17.2418 19.9249 17.214 19.9177C17.1932 19.9033 16.7911 19.694 16.3267 19.4415C15.8553 19.1962 15.4116 18.9942 15.3284 18.9942C15.2452 18.9942 14.7877 19.2034 14.3093 19.4632C13.8379 19.7229 13.4428 19.9321 13.4289 19.9321C13.422 19.9321 13.4844 19.4992 13.5745 18.9726C13.6715 18.4459 13.7201 17.9264 13.6993 17.8038C13.6715 17.6667 13.4289 17.3709 12.9714 16.9092C12.5901 16.534 12.285 16.2093 12.285 16.1805C12.285 16.1516 12.6802 16.0723 13.1724 16.0001C13.6577 15.9352 14.136 15.827 14.2469 15.7692C14.3856 15.6971 14.552 15.4374 14.8709 14.7736C15.1066 14.2758 15.3145 13.8718 15.3353 13.8718C15.3561 13.8718 15.5641 14.2758 15.7998 14.7736Z" fill="#65C0DD"/>
<rect x="20" y="21" width="16" height="15" rx="7.5" fill="#F5F7FC"/>
<path d="M26.0057 30.3529C25.5915 30.3529 25.2557 30.6887 25.2557 31.1029C25.2557 31.5171 25.5915 31.8529 26.0057 31.8529V30.3529ZM27.1352 31.8529C27.5494 31.8529 27.8852 31.5171 27.8852 31.1029C27.8852 30.6887 27.5494 30.3529 27.1352 30.3529V31.8529ZM26.0057 28.0939C25.5915 28.0939 25.2557 28.4297 25.2557 28.8439C25.2557 29.2581 25.5915 29.5939 26.0057 29.5939V28.0939ZM29.3942 29.5939C29.8084 29.5939 30.1442 29.2581 30.1442 28.8439C30.1442 28.4297 29.8084 28.0939 29.3942 28.0939V29.5939ZM26.0057 25.8349C25.5915 25.8349 25.2557 26.1706 25.2557 26.5849C25.2557 26.9991 25.5915 27.3349 26.0057 27.3349V25.8349ZM29.3942 27.3349C29.8084 27.3349 30.1442 26.9991 30.1442 26.5849C30.1442 26.1706 29.8084 25.8349 29.3942 25.8349V27.3349ZM24.3555 33.8672L24.7012 33.2016L24.7012 33.2016L24.3555 33.8672ZM23.8738 33.3855L23.2083 33.7312L23.2083 33.7312L23.8738 33.3855ZM31.0444 23.956L30.6986 24.6215L30.6986 24.6215L31.0444 23.956ZM31.526 24.4376L30.8605 24.7834L30.8605 24.7834L31.526 24.4376ZM24.3555 23.956L24.7012 24.6215H24.7012L24.3555 23.956ZM23.8738 24.4376L23.2083 24.0919V24.0919L23.8738 24.4376ZM26.0057 31.8529H27.1352V30.3529H26.0057V31.8529ZM26.0057 29.5939H29.3942V28.0939H26.0057V29.5939ZM26.0057 27.3349H29.3942V25.8349H26.0057V27.3349ZM25.5652 24.5788H29.8347V23.0788H25.5652V24.5788ZM30.9032 25.6473V29.1939H32.4032V25.6473H30.9032ZM27.1352 33.2443H25.5652V34.7443H27.1352V33.2443ZM24.4967 32.1758V25.6473H22.9967V32.1758H24.4967ZM25.5652 33.2443C25.231 33.2443 25.0262 33.2437 24.873 33.231C24.8016 33.2251 24.7584 33.2176 24.7321 33.2113C24.7196 33.2083 24.7119 33.2058 24.7076 33.2043C24.7035 33.2028 24.7017 33.2019 24.7012 33.2016L24.0098 34.5327C24.2571 34.6612 24.5102 34.7061 24.7489 34.7259C24.9785 34.7449 25.2561 34.7443 25.5652 34.7443V33.2443ZM22.9967 32.1758C22.9967 32.4849 22.9961 32.7625 23.0151 32.9922C23.035 33.2308 23.0798 33.4839 23.2083 33.7312L24.5394 33.0398C24.5391 33.0393 24.5382 33.0375 24.5367 33.0334C24.5352 33.0292 24.5327 33.0214 24.5297 33.0089C24.5234 32.9826 24.5159 32.9394 24.51 32.868C24.4973 32.7148 24.4967 32.51 24.4967 32.1758H22.9967ZM24.7012 33.2016C24.6319 33.1656 24.5754 33.1091 24.5394 33.0398L23.2083 33.7312C23.3866 34.0745 23.6665 34.3544 24.0098 34.5327L24.7012 33.2016ZM29.8347 24.5788C30.1689 24.5788 30.3737 24.5794 30.5269 24.5921C30.5983 24.598 30.6415 24.6055 30.6678 24.6118C30.6803 24.6148 30.688 24.6173 30.6923 24.6189C30.6963 24.6203 30.6981 24.6213 30.6986 24.6215L31.3901 23.2904C31.1428 23.1619 30.8897 23.1171 30.651 23.0973C30.4214 23.0782 30.1437 23.0788 29.8347 23.0788V24.5788ZM32.4032 25.6473C32.4032 25.3383 32.4038 25.0606 32.3847 24.831C32.3649 24.5924 32.3201 24.3392 32.1916 24.0919L30.8605 24.7834C30.8607 24.7839 30.8617 24.7857 30.8631 24.7897C30.8647 24.794 30.8672 24.8017 30.8702 24.8142C30.8765 24.8405 30.884 24.8837 30.8899 24.9551C30.9026 25.1083 30.9032 25.3131 30.9032 25.6473H32.4032ZM30.6986 24.6215C30.768 24.6575 30.8245 24.714 30.8605 24.7834L32.1916 24.0919C32.0133 23.7486 31.7334 23.4687 31.3901 23.2904L30.6986 24.6215ZM25.5652 23.0788C25.2561 23.0788 24.9785 23.0782 24.7489 23.0973C24.5102 23.1171 24.2571 23.1619 24.0098 23.2904L24.7012 24.6215C24.7017 24.6213 24.7035 24.6203 24.7076 24.6189C24.7119 24.6173 24.7196 24.6148 24.7321 24.6118C24.7584 24.6055 24.8016 24.598 24.873 24.5921C25.0262 24.5794 25.231 24.5788 25.5652 24.5788V23.0788ZM24.4967 25.6473C24.4967 25.3131 24.4973 25.1083 24.51 24.9551C24.5159 24.8837 24.5234 24.8405 24.5297 24.8142C24.5327 24.8017 24.5352 24.794 24.5367 24.7897C24.5382 24.7857 24.5391 24.7839 24.5394 24.7834L23.2083 24.0919C23.0798 24.3392 23.035 24.5924 23.0151 24.831C22.9961 25.0606 22.9967 25.3383 22.9967 25.6473H24.4967ZM24.0098 23.2904C23.6665 23.4687 23.3866 23.7486 23.2083 24.0919L24.5394 24.7834C24.5754 24.714 24.6319 24.6575 24.7012 24.6215L24.0098 23.2904ZM27.1352 34.7443H30.6532V33.2443H27.1352V34.7443ZM32.4032 32.9943V29.1939H30.9032V32.9943H32.4032ZM30.6532 34.7443C31.6197 34.7443 32.4032 33.9608 32.4032 32.9943H30.9032C30.9032 33.1324 30.7913 33.2443 30.6532 33.2443V34.7443Z" fill="#65C0DD"/>
<path d="M29.8469 22.5585L29.8469 24.5897" stroke="#65C0DD" stroke-width="1.5" stroke-linecap="round"/>
<path d="M26.288 22.5585L26.288 24.5897" stroke="#65C0DD" stroke-width="1.5" stroke-linecap="round"/>
</svg>
