<svg width="18" height="18" viewBox="0 0 18 18" fill="none" xmlns="http://www.w3.org/2000/svg">
<path d="M5 5L6.09091 6.09091M12.6364 5.36364L11.9091 6.09091M11.9091 11.9091L13 13M6.09091 11.9091L5.36364 12.6364M12.6364 9C12.6364 11.0083 11.0083 12.6364 9 12.6364C6.99169 12.6364 5.36364 11.0083 5.36364 9C5.36364 6.99169 6.99169 5.36364 9 5.36364C11.0083 5.36364 12.6364 6.99169 12.6364 9ZM5.36364 3.18182C5.36364 4.3868 4.3868 5.36364 3.18182 5.36364C1.97683 5.36364 1 4.3868 1 3.18182C1 1.97683 1.97683 1 3.18182 1C4.3868 1 5.36364 1.97683 5.36364 3.18182ZM15.5455 3.90909C15.5455 4.71241 14.8942 5.36364 14.0909 5.36364C13.2876 5.36364 12.6364 4.71241 12.6364 3.90909C12.6364 3.10577 13.2876 2.45455 14.0909 2.45455C14.8942 2.45455 15.5455 3.10577 15.5455 3.90909ZM5.36364 14.0909C5.36364 14.8942 4.71241 15.5455 3.90909 15.5455C3.10577 15.5455 2.45455 14.8942 2.45455 14.0909C2.45455 13.2876 3.10577 12.6364 3.90909 12.6364C4.71241 12.6364 5.36364 13.2876 5.36364 14.0909ZM17 14.8182C17 16.0232 16.0232 17 14.8182 17C13.6132 17 12.6364 16.0232 12.6364 14.8182C12.6364 13.6132 13.6132 12.6364 14.8182 12.6364C16.0232 12.6364 17 13.6132 17 14.8182Z" stroke="#3A5BCD" stroke-width="1.5" stroke-linecap="round"/>
</svg>
