<svg width="25" height="24" viewBox="0 0 25 24" fill="none" xmlns="http://www.w3.org/2000/svg">
<circle cx="12.5" cy="12" r="12" fill="#FFD558" fill-opacity="0.15"/>
<path d="M13.7958 17.5769C13.9289 17.3777 14 17.1435 14 16.9038C14 16.5825 13.8724 16.2744 13.6451 16.0472C13.4179 15.82 13.1098 15.6923 12.7885 15.6923C12.5488 15.6923 12.3146 15.7634 12.1154 15.8965C11.9161 16.0296 11.7608 16.2188 11.6691 16.4402C11.5774 16.6616 11.5535 16.9052 11.6002 17.1402C11.6469 17.3752 11.7623 17.5911 11.9318 17.7605C12.1012 17.93 12.3171 18.0454 12.5521 18.0921C12.7871 18.1389 13.0307 18.1149 13.2521 18.0232C13.4735 17.9315 13.6627 17.7762 13.7958 17.5769Z" fill="#FFD558"/>
<path d="M8.75 9.63461C8.75 7.63053 10.5612 6 12.7885 6C15.0157 6 16.8269 7.63053 16.8269 9.63461C16.8269 11.3893 15.4377 12.8583 13.5962 13.1965V13.2692C13.5962 13.4834 13.5111 13.6889 13.3596 13.8404C13.2081 13.9918 13.0027 14.0769 12.7885 14.0769C12.5742 14.0769 12.3688 13.9918 12.2173 13.8404C12.0659 13.6889 11.9808 13.4834 11.9808 13.2692V12.4615C11.9808 12.2473 12.0659 12.0419 12.2173 11.8904C12.3688 11.7389 12.5742 11.6538 12.7885 11.6538C14.1242 11.6538 15.2115 10.7452 15.2115 9.63461C15.2115 8.52404 14.1242 7.61538 12.7885 7.61538C11.4527 7.61538 10.3654 8.52404 10.3654 9.63461V10.0385C10.3654 10.2527 10.2803 10.4581 10.1288 10.6096C9.97735 10.7611 9.77191 10.8462 9.55769 10.8462C9.34348 10.8462 9.13804 10.7611 8.98657 10.6096C8.8351 10.4581 8.75 10.2527 8.75 10.0385V9.63461Z" fill="#FFD558"/>
</svg>
