<svg width="26" height="26" viewBox="0 0 26 26" fill="none" xmlns="http://www.w3.org/2000/svg">
<path d="M13 25C19.6274 25 25 19.6274 25 13C25 6.37258 19.6274 1 13 1C6.37258 1 1 6.37258 1 13C1 19.6274 6.37258 25 13 25Z" stroke="#E75D24" stroke-width="2" stroke-linecap="round"/>
<path d="M13.7666 19.4417C13.9188 19.214 14 18.9463 14 18.6725C14 18.3053 13.8541 17.9531 13.5945 17.6934C13.3348 17.4337 12.9826 17.2879 12.6154 17.2879C12.3415 17.2879 12.0738 17.3691 11.8461 17.5212C11.6184 17.6734 11.441 17.8896 11.3362 18.1426C11.2314 18.3956 11.2039 18.674 11.2574 18.9426C11.3108 19.2112 11.4427 19.4579 11.6363 19.6515C11.83 19.8452 12.0767 19.9771 12.3453 20.0305C12.6138 20.0839 12.8922 20.0565 13.1453 19.9517C13.3983 19.8469 13.6145 19.6694 13.7666 19.4417Z" fill="#E75D24"/>
<path d="M8 10.3648C8 8.0744 10.07 6.21094 12.6154 6.21094C15.1608 6.21094 17.2308 8.0744 17.2308 10.3648C17.2308 12.3702 15.6431 14.049 13.5385 14.4356V14.5186C13.5385 14.7634 13.4412 14.9982 13.2681 15.1713C13.095 15.3445 12.8602 15.4417 12.6154 15.4417C12.3706 15.4417 12.1358 15.3445 11.9627 15.1713C11.7896 14.9982 11.6923 14.7634 11.6923 14.5186V13.5956C11.6923 13.3507 11.7896 13.1159 11.9627 12.9428C12.1358 12.7697 12.3706 12.6725 12.6154 12.6725C14.1419 12.6725 15.3846 11.634 15.3846 10.3648C15.3846 9.09555 14.1419 8.05709 12.6154 8.05709C11.0888 8.05709 9.84615 9.09555 9.84615 10.3648V10.8263C9.84615 11.0711 9.7489 11.3059 9.57579 11.479C9.40268 11.6521 9.16789 11.7494 8.92308 11.7494C8.67826 11.7494 8.44347 11.6521 8.27036 11.479C8.09725 11.3059 8 11.0711 8 10.8263V10.3648Z" fill="#E75D24"/>
</svg>
