<svg width="32" height="32" viewBox="0 0 32 32" fill="none" xmlns="http://www.w3.org/2000/svg">
<circle cx="16" cy="16" r="16" fill="#E75D24" fill-opacity="0.15"/>
<path d="M24 24.75C24.4142 24.75 24.75 24.4142 24.75 24C24.75 23.5858 24.4142 23.25 24 23.25V24.75ZM8.75 8C8.75 7.58579 8.41421 7.25 8 7.25C7.58579 7.25 7.25 7.58579 7.25 8H8.75ZM9.94137 23.6125L9.60087 24.2807L9.60087 24.2807L9.94137 23.6125ZM8.38753 22.0586L9.05579 21.7181L9.05579 21.7181L8.38753 22.0586ZM11.6944 20.4444C11.6944 20.8587 12.0302 21.1944 12.4444 21.1944C12.8587 21.1944 13.1944 20.8587 13.1944 20.4444H11.6944ZM13.1944 16C13.1944 15.5858 12.8587 15.25 12.4444 15.25C12.0302 15.25 11.6944 15.5858 11.6944 16H13.1944ZM16.1389 20.4444C16.1389 20.8587 16.4747 21.1944 16.8889 21.1944C17.3031 21.1944 17.6389 20.8587 17.6389 20.4444H16.1389ZM17.6389 8C17.6389 7.58579 17.3031 7.25 16.8889 7.25C16.4747 7.25 16.1389 7.58579 16.1389 8L17.6389 8ZM20.5833 20.4444C20.5833 20.8587 20.9191 21.1944 21.3333 21.1944C21.7475 21.1944 22.0833 20.8587 22.0833 20.4444H20.5833ZM22.0833 12.4444C22.0833 12.0302 21.7475 11.6944 21.3333 11.6944C20.9191 11.6944 20.5833 12.0302 20.5833 12.4444H22.0833ZM24 23.25H13.6889V24.75H24V23.25ZM8.75 18.3111V8H7.25V18.3111H8.75ZM13.6889 23.25C12.6809 23.25 11.97 23.2494 11.4147 23.204C10.8682 23.1594 10.5388 23.0751 10.2819 22.9442L9.60087 24.2807C10.1045 24.5373 10.6533 24.6468 11.2925 24.6991C11.9231 24.7506 12.7056 24.75 13.6889 24.75V23.25ZM7.25 18.3111C7.25 19.2944 7.24942 20.0769 7.30093 20.7075C7.35316 21.3467 7.46266 21.8955 7.71928 22.3991L9.05579 21.7181C8.92487 21.4612 8.8406 21.1318 8.79595 20.5853C8.75058 20.03 8.75 19.3191 8.75 18.3111H7.25ZM10.2819 22.9442C9.75396 22.6752 9.32477 22.246 9.05579 21.7181L7.71928 22.3991C8.13207 23.2093 8.79073 23.8679 9.60087 24.2807L10.2819 22.9442ZM13.1944 20.4444V16H11.6944V20.4444H13.1944ZM17.6389 20.4444L17.6389 8L16.1389 8L16.1389 20.4444H17.6389ZM22.0833 20.4444V12.4444H20.5833V20.4444H22.0833Z" fill="#E75D24"/>
</svg>
