<svg width="32" height="32" viewBox="0 0 32 32" fill="none" xmlns="http://www.w3.org/2000/svg">
<circle cx="16" cy="16" r="16" fill="#263238" fill-opacity="0.15"/>
<path d="M8 15.6562V22.3125H9.32812H10.6562V21.6562V21H10H9.34375V15.6562V10.3125H10H10.6562V9.65625V9H9.32812H8V15.6562Z" fill="#263238"/>
<path d="M21.3438 9.65625V10.3125H22H22.6562V15.6562V21H22H21.3438V21.6562V22.3125H22.6719H24V15.6562V9H22.6719H21.3438V9.65625Z" fill="#263238"/>
<path d="M8 15.6562V22.3125H9.32812H10.6562V21.6562V21H10H9.34375V15.6562V10.3125H10H10.6562V9.65625V9H9.32812H8V15.6562Z" fill="#263238"/>
<path d="M21.3438 9.65625V10.3125H22H22.6562V15.6562V21H22H21.3438V21.6562V22.3125H22.6719H24V15.6562V9H22.6719H21.3438V9.65625Z" fill="#263238"/>
<path d="M11.3438 12.3281V13H12H12.6562V12.3281V11.6562H12H11.3438V12.3281Z" fill="#263238"/>
<path d="M15.3438 12.3281V13H16H16.6562V12.3281V11.6562H16H15.3438V12.3281Z" fill="#263238"/>
<path d="M19.3438 12.3281V13H20H20.6562V12.3281V11.6562H20H19.3438V12.3281Z" fill="#263238"/>
<path d="M11.3438 15.6562V16.3125H12H12.6562V15.6562V15H12H11.3438V15.6562Z" fill="#263238"/>
<path d="M15.3438 15.6562V16.3125H16H16.6562V15.6562V15H16H15.3438V15.6562Z" fill="#263238"/>
<path d="M19.3438 15.6562V16.3125H20H20.6562V15.6562V15H20H19.3438V15.6562Z" fill="#263238"/>
<path d="M11.3438 18.9844V19.6562H12H12.6562V18.9844V18.3125H12H11.3438V18.9844Z" fill="#263238"/>
<path d="M15.3438 18.9844V19.6562H16H16.6562V18.9844V18.3125H16H15.3438V18.9844Z" fill="#263238"/>
<path d="M19.3438 18.9844V19.6562H20H20.6562V18.9844V18.3125H20H19.3438V18.9844Z" fill="#263238"/>
</svg>
