<svg width="32" height="32" viewBox="0 0 32 32" fill="none" xmlns="http://www.w3.org/2000/svg">
<circle cx="16" cy="16" r="16" fill="#FFD558" fill-opacity="0.15"/>
<path d="M15.4385 13.7316L16.1409 13.0198V13.0198L15.4385 13.7316ZM18.2986 16.5541L17.5962 17.2658V17.2658L18.2986 16.5541ZM18.9128 16.5541L19.6152 17.2658L19.6152 17.2658L18.9128 16.5541ZM24.5196 12.426C24.9127 12.0381 24.9169 11.4049 24.5289 11.0118C24.141 10.6187 23.5078 10.6145 23.1147 11.0025L24.5196 12.426ZM10.0862 17.0025C9.69308 17.3904 9.68888 18.0236 10.0768 18.4167C10.4647 18.8098 11.0979 18.814 11.491 18.426L10.0862 17.0025ZM14.8244 13.7316L15.5268 14.4434V14.4434L14.8244 13.7316ZM20.3429 9.85711C19.7906 9.85711 19.3429 10.3048 19.3429 10.8571C19.3429 11.4094 19.7906 11.8571 20.3429 11.8571V9.85711ZM23.6857 15.1428C23.6857 15.6951 24.1334 16.1428 24.6857 16.1428C25.238 16.1428 25.6857 15.6951 25.6857 15.1428H23.6857ZM24.6857 23.8571C25.238 23.8571 25.6857 23.4094 25.6857 22.8571C25.6857 22.3048 25.238 21.8571 24.6857 21.8571V23.8571ZM8.3143 9.14282C8.3143 8.59054 7.86659 8.14282 7.3143 8.14282C6.76202 8.14282 6.3143 8.59054 6.3143 9.14282H8.3143ZM9.21129 22.4834L9.66052 21.59L9.21129 22.4834ZM7.69298 20.9851L6.80442 21.4439L7.69298 20.9851ZM14.7361 14.4434L17.5962 17.2658L19.0011 15.8423L16.1409 13.0198L14.7361 14.4434ZM19.6152 17.2658L24.5196 12.426L23.1147 11.0025L18.2104 15.8423L19.6152 17.2658ZM11.491 18.426L15.5268 14.4434L14.1219 13.0198L10.0862 17.0025L11.491 18.426ZM17.5962 17.2658C18.1553 17.8175 19.0562 17.8175 19.6152 17.2658L18.2104 15.8423C18.4302 15.6254 18.7812 15.6254 19.0011 15.8423L17.5962 17.2658ZM16.1409 13.0198C15.5819 12.4681 14.681 12.4681 14.1219 13.0198L15.5268 14.4434C15.3069 14.6603 14.9559 14.6603 14.7361 14.4434L16.1409 13.0198ZM20.3429 11.8571H24.2514V9.85711H20.3429V11.8571ZM23.6857 11.2857V15.1428H25.6857V11.2857H23.6857ZM24.2514 11.8571C23.9515 11.8571 23.6857 11.6137 23.6857 11.2857H25.6857C25.6857 10.4843 25.031 9.85711 24.2514 9.85711V11.8571ZM24.6857 21.8571H12.8732V23.8571H24.6857V21.8571ZM8.3143 17.3714V9.14282H6.3143V17.3714H8.3143ZM12.8732 21.8571C11.884 21.8571 11.2015 21.8564 10.6716 21.8136C10.1531 21.7718 9.86883 21.6947 9.66052 21.59L8.76206 23.3768C9.29695 23.6458 9.87074 23.7555 10.5109 23.8072C11.1397 23.8579 11.9166 23.8571 12.8732 23.8571V21.8571ZM6.3143 17.3714C6.3143 18.3148 6.3135 19.0832 6.36504 19.7058C6.41759 20.3404 6.52957 20.9115 6.80442 21.4439L8.58153 20.5263C8.47771 20.3252 8.40035 20.0496 8.35823 19.5408C8.3151 19.0199 8.3143 18.3482 8.3143 17.3714H6.3143ZM9.66052 21.59C9.19387 21.3554 8.81693 20.9822 8.58153 20.5263L6.80442 21.4439C7.2352 22.2782 7.92126 22.9541 8.76206 23.3768L9.66052 21.59Z" fill="#FFD558"/>
</svg>
