<svg width="89" height="28" viewBox="0 0 89 28" fill="none" xmlns="http://www.w3.org/2000/svg">
<g clip-path="url(#clip0_12275_1411)">
<path d="M35.6023 6.875H36.5718V11.6416H39.7549V12.5682H35.6023V6.875Z" fill="white"/>
<path d="M40.6598 8.86644C40.8587 8.67032 41.1137 8.51683 41.4247 8.40598C41.7385 8.29513 42.0636 8.23828 42.4082 8.23828C42.9518 8.23828 43.3749 8.38893 43.6719 8.69306C43.9689 8.99719 44.1174 9.42354 44.1174 9.9778V12.5643H43.204V12.101C42.8986 12.4421 42.4699 12.6127 41.9123 12.6127C41.4527 12.6127 41.0857 12.4933 40.8111 12.2517C40.5365 12.0101 40.3992 11.6861 40.3992 11.2796C40.3992 10.8305 40.5757 10.4923 40.9316 10.2706C41.2874 10.0489 41.7581 9.93801 42.3466 9.93801C42.694 9.93801 42.9798 9.97496 43.204 10.0517C43.2096 9.73052 43.1423 9.49176 43.0022 9.33543C42.8621 9.1791 42.6324 9.09951 42.3045 9.09951C41.8926 9.09951 41.4948 9.25016 41.1109 9.54576L40.6626 8.8636L40.6598 8.86644ZM43.2012 11.2341V10.8277C42.977 10.7509 42.722 10.714 42.439 10.714C41.7077 10.714 41.3406 10.9016 41.3406 11.2739C41.3406 11.4416 41.4107 11.5724 41.548 11.669C41.6853 11.7628 41.873 11.8111 42.1084 11.8111C42.5847 11.8111 42.9462 11.6178 43.1984 11.2341" fill="white"/>
<path d="M46.6646 6.85156H50.8339V7.77817H47.6368V9.21071H50.6266V10.1032H47.6368V11.6182H50.9152V12.5448H46.6646V6.85156Z" fill="white"/>
<path d="M54.4765 10.3572L56.1521 12.5458H55.0201L53.8909 11.0394L52.7365 12.5458H51.6521L53.3221 10.3743L51.7334 8.31641H52.857L53.9133 9.67505L54.9725 8.31641H56.0709L54.4765 10.3572Z" fill="white"/>
<path d="M60.6017 11.5784C60.4363 11.9081 60.1898 12.1639 59.8647 12.3458C59.5397 12.5278 59.1895 12.6187 58.814 12.6187C58.1415 12.6187 57.5979 12.4169 57.186 12.0161C56.7741 11.6154 56.5696 11.0838 56.5696 10.4216C56.5696 9.7593 56.7713 9.26189 57.1776 8.84407C57.5839 8.42624 58.1135 8.21875 58.7635 8.21875C59.181 8.21875 59.5481 8.30686 59.8647 8.48309C60.1814 8.65931 60.4111 8.88955 60.5512 9.17946L59.8703 9.63424C59.5985 9.26473 59.2427 9.07998 58.8028 9.07998C58.4245 9.07998 58.1135 9.20505 57.8725 9.45517C57.6315 9.7053 57.5111 10.0265 57.5111 10.4216C57.5111 10.8167 57.6371 11.1236 57.8921 11.3766C58.1471 11.6296 58.4805 11.7546 58.898 11.7546C59.3352 11.7546 59.6854 11.5528 59.9488 11.1521L60.5989 11.5756L60.6017 11.5784Z" fill="white"/>
<path d="M64.9868 11.7546C64.5637 12.3288 64.0005 12.6159 63.2943 12.6159C62.5882 12.6159 62.0811 12.4169 61.672 12.019C61.2629 11.621 61.0583 11.0867 61.0583 10.4216C61.0583 9.75646 61.2461 9.24768 61.6244 8.83554C62.0026 8.4234 62.5266 8.21875 63.1991 8.21875C63.7651 8.21875 64.233 8.39498 64.6029 8.75027C64.9727 9.10556 65.1549 9.57455 65.1549 10.1544C65.1549 10.2965 65.1381 10.4926 65.1072 10.7484H62.0138C62.0503 11.0753 62.1876 11.3226 62.4229 11.496C62.6583 11.6694 62.9553 11.7575 63.314 11.7575C63.7847 11.7575 64.1546 11.5699 64.4292 11.1975L64.9896 11.7575L64.9868 11.7546ZM62.4061 9.29032C62.2072 9.44665 62.0811 9.66551 62.0222 9.94121H64.2106C64.1742 9.65414 64.0649 9.43528 63.8828 9.28179C63.7006 9.13114 63.4597 9.0544 63.1627 9.0544C62.8656 9.0544 62.6079 9.13399 62.4089 9.29032" fill="white"/>
<path d="M67.1276 6.60938H66.2141V12.547H67.1276V6.60938Z" fill="white"/>
<path d="M69.2936 6.60938H68.3801V12.547H69.2936V6.60938Z" fill="white"/>
<path d="M74.2783 11.7546C73.8552 12.3288 73.292 12.6159 72.5858 12.6159C71.8797 12.6159 71.3726 12.4169 70.9635 12.019C70.5544 11.621 70.3499 11.0867 70.3499 10.4216C70.3499 9.75646 70.5376 9.24768 70.9159 8.83554C71.2941 8.4234 71.8181 8.21875 72.4906 8.21875C73.0566 8.21875 73.5245 8.39498 73.8944 8.75027C74.2642 9.10556 74.4464 9.57455 74.4464 10.1544C74.4464 10.2965 74.4296 10.4926 74.3987 10.7484H71.3053C71.3418 11.0753 71.4791 11.3226 71.7144 11.496C71.9498 11.6694 72.2468 11.7575 72.6055 11.7575C73.0762 11.7575 73.4461 11.5699 73.7207 11.1975L74.2811 11.7575L74.2783 11.7546ZM71.6976 9.29032C71.4987 9.44665 71.3726 9.66551 71.3137 9.94121H73.5021C73.4657 9.65414 73.3564 9.43528 73.1743 9.28179C72.9921 9.13114 72.7512 9.0544 72.4542 9.0544C72.1571 9.0544 71.8994 9.13399 71.7004 9.29032" fill="white"/>
<path d="M75.5056 8.31858H76.4191V8.7023C76.7329 8.3868 77.1616 8.23047 77.7024 8.23047C78.8204 8.23047 79.378 8.87284 79.378 10.1576V12.548H78.4645V10.2315C78.4645 9.83071 78.3805 9.54079 78.2152 9.36172C78.0498 9.18266 77.7892 9.09454 77.4362 9.09454C77.212 9.09454 77.0103 9.15707 76.8282 9.28498C76.646 9.41289 76.5087 9.58627 76.4191 9.80797V12.548H75.5056V8.31858Z" fill="white"/>
<path d="M84.4466 11.5784C84.2813 11.9081 84.0347 12.1639 83.7097 12.3458C83.3847 12.5278 83.0344 12.6187 82.659 12.6187C81.9865 12.6187 81.4429 12.4169 81.031 12.0161C80.6191 11.6154 80.4146 11.0838 80.4146 10.4216C80.4146 9.7593 80.6163 9.26189 81.0226 8.84407C81.4289 8.42624 81.9585 8.21875 82.6113 8.21875C83.0288 8.21875 83.3959 8.30686 83.7125 8.48309C84.0291 8.65931 84.2589 8.88955 84.399 9.17946L83.7181 9.63424C83.4463 9.26473 83.0905 9.07998 82.6506 9.07998C82.2723 9.07998 81.9613 9.20505 81.7203 9.45517C81.4793 9.7053 81.3588 10.0265 81.3588 10.4216C81.3588 10.8167 81.4849 11.1236 81.7399 11.3766C81.9949 11.6296 82.3283 11.7546 82.7458 11.7546C83.1829 11.7546 83.5332 11.5528 83.7966 11.1521L84.4466 11.5756V11.5784Z" fill="white"/>
<path d="M88.832 11.7546C88.4089 12.3288 87.8457 12.6159 87.1396 12.6159C86.4335 12.6159 85.9235 12.4169 85.5172 12.019C85.1081 11.621 84.9036 11.0867 84.9036 10.4216C84.9036 9.75646 85.0913 9.24768 85.4696 8.83554C85.8478 8.4234 86.3718 8.21875 87.0443 8.21875C87.6103 8.21875 88.0782 8.39498 88.4481 8.75027C88.818 9.10556 89.0001 9.57455 89.0001 10.1544C89.0001 10.2965 88.9833 10.4926 88.9525 10.7484H85.859C85.8955 11.0753 86.0328 11.3226 86.2681 11.496C86.5035 11.6694 86.8005 11.7575 87.1592 11.7575C87.6299 11.7575 87.9998 11.5699 88.2744 11.1975L88.8348 11.7575L88.832 11.7546ZM86.2513 9.29032C86.0524 9.44665 85.9263 9.66551 85.8675 9.94121H88.0558C88.0194 9.65414 87.9101 9.43528 87.728 9.28179C87.5458 9.13114 87.3049 9.0544 87.0079 9.0544C86.7109 9.0544 86.4531 9.13399 86.2541 9.29032" fill="white"/>
<path d="M56.959 16.9297H57.4662L59.1614 20.8464H58.4609L58.0854 19.9795H56.3258L55.9559 20.8464H55.2666L56.9618 16.9297H56.959ZM56.5695 19.3997H57.8388L57.2056 17.9103L56.5723 19.3997H56.5695Z" fill="white"/>
<path d="M62.2353 20.1809C62.1204 20.4082 61.9523 20.5845 61.7281 20.7095C61.504 20.8346 61.263 20.8971 61.0052 20.8971C60.5429 20.8971 60.1674 20.7579 59.8844 20.4821C59.6014 20.2064 59.4585 19.8398 59.4585 19.385C59.4585 18.9302 59.5986 18.5863 59.8788 18.2992C60.159 18.0121 60.5233 17.8672 60.9716 17.8672C61.2574 17.8672 61.5124 17.9269 61.7309 18.0491C61.9495 18.1713 62.1064 18.3305 62.2017 18.5266L61.7337 18.8393C61.546 18.5863 61.3022 18.4584 60.9996 18.4584C60.739 18.4584 60.5261 18.5437 60.3607 18.717C60.1954 18.8876 60.1114 19.1121 60.1114 19.3822C60.1114 19.6522 60.1982 19.8654 60.372 20.0387C60.5457 20.2121 60.7782 20.3002 61.064 20.3002C61.3667 20.3002 61.6076 20.161 61.787 19.8853L62.2353 20.1752V20.1809Z" fill="white"/>
<path d="M62.8376 18.3003C62.9749 18.1667 63.1487 18.0615 63.3644 17.9848C63.5802 17.908 63.8043 17.8711 64.0397 17.8711C64.4152 17.8711 64.7038 17.9763 64.9083 18.1838C65.1129 18.3941 65.2137 18.6868 65.2137 19.0677V20.847H64.5861V20.5287C64.3759 20.7646 64.0789 20.8811 63.6979 20.8811C63.3812 20.8811 63.1291 20.7987 62.9385 20.631C62.748 20.4662 62.6555 20.2416 62.6555 19.9631C62.6555 19.6532 62.7788 19.423 63.0226 19.2695C63.2664 19.116 63.5914 19.0393 63.9977 19.0393C64.2358 19.0393 64.4348 19.0649 64.5889 19.116C64.5917 18.8972 64.5469 18.7323 64.4516 18.6243C64.3563 18.5163 64.1966 18.4623 63.9725 18.4623C63.6895 18.4623 63.4149 18.5646 63.1515 18.7693L62.8433 18.3003H62.8376ZM64.5889 19.929V19.6504C64.4348 19.5992 64.2583 19.5708 64.0649 19.5708C63.5606 19.5708 63.3084 19.6987 63.3084 19.9574C63.3084 20.0739 63.356 20.1649 63.4513 20.2302C63.5466 20.2956 63.6754 20.3269 63.838 20.3269C64.1658 20.3269 64.4152 20.1933 64.5889 19.929Z" fill="white"/>
<path d="M68.1195 20.5268C68.0579 20.6177 67.9542 20.7002 67.8141 20.7769C67.6712 20.8536 67.5059 20.8906 67.3153 20.8906C66.9006 20.8906 66.5644 20.757 66.3122 20.4927C66.0572 20.2283 65.9312 19.8617 65.9312 19.3955C65.9312 18.9294 66.0712 18.5854 66.3486 18.2984C66.626 18.0113 66.9651 17.8663 67.3602 17.8663C67.702 17.8663 67.957 17.9402 68.1223 18.0852V16.7578H68.7528V20.8451H68.1223V20.5268H68.1195ZM67.8533 20.1601C67.9794 20.0692 68.0691 19.964 68.1195 19.8446V18.7816C67.9738 18.5684 67.7525 18.4632 67.4638 18.4632C67.2145 18.4632 67.0043 18.5457 66.8334 18.7133C66.6653 18.8782 66.5784 19.1056 66.5784 19.387C66.5784 19.6684 66.6569 19.8872 66.8138 20.0521C66.9707 20.217 67.1752 20.2994 67.4302 20.2994C67.5843 20.2994 67.7244 20.2539 67.8533 20.1629" fill="white"/>
<path d="M72.1824 20.307C71.891 20.7021 71.5044 20.901 71.0196 20.901C70.5349 20.901 70.1846 20.7646 69.9016 20.4889C69.6214 20.2132 69.4785 19.8465 69.4785 19.3889C69.4785 18.9313 69.6074 18.5817 69.868 18.2974C70.1258 18.0132 70.49 17.8711 70.9524 17.8711C71.3418 17.8711 71.6641 17.9933 71.9191 18.2378C72.174 18.4822 72.3001 18.8034 72.3001 19.2042C72.3001 19.3008 72.2889 19.4372 72.2665 19.6135H70.137C70.1622 19.838 70.2575 20.0085 70.4172 20.1279C70.5797 20.2473 70.7842 20.307 71.0308 20.307C71.3531 20.307 71.6108 20.1791 71.7986 19.9204L72.1852 20.307H72.1824ZM70.406 18.6101C70.2687 18.7181 70.1818 18.8688 70.1398 19.0592H71.6473C71.622 18.8602 71.5464 18.7096 71.4203 18.6073C71.2942 18.5021 71.1289 18.4509 70.9243 18.4509C70.7198 18.4509 70.5433 18.5049 70.406 18.6129" fill="white"/>
<path d="M77.1559 20.8492H76.5255V19.0983C76.5255 18.6804 76.3657 18.4701 76.0463 18.4701C75.7521 18.4701 75.5392 18.6208 75.4047 18.9192V20.8492H74.777V18.9562C74.777 18.8112 74.735 18.6947 74.6537 18.6037C74.5697 18.5156 74.4548 18.4701 74.3091 18.4701C74.155 18.4701 74.0205 18.5184 73.9056 18.6122C73.7907 18.706 73.7094 18.8169 73.6562 18.9448V20.8492H73.0286V17.9386H73.6562V18.1916C73.8019 17.9841 74.0653 17.8789 74.4408 17.8789C74.8162 17.8789 75.06 17.9983 75.2197 18.237C75.4187 17.9983 75.7073 17.8789 76.0855 17.8789C76.4246 17.8789 76.688 17.9642 76.8757 18.1404C77.0634 18.3138 77.1587 18.5753 77.1587 18.922V20.852L77.1559 20.8492Z" fill="white"/>
<path d="M78.3691 21.391C78.4056 21.4137 78.4476 21.4251 78.4952 21.4251C78.669 21.4251 78.8175 21.263 78.9491 20.939L79.0472 20.6747L77.635 17.9375H78.3635L79.3498 19.9016L80.112 17.9375H80.7845L79.6581 20.7628C79.4675 21.2375 79.2882 21.5643 79.1201 21.7463C78.9519 21.9282 78.7502 22.0191 78.5148 22.0191C78.3607 22.0191 78.229 21.9907 78.117 21.9338L78.3663 21.391H78.3691Z" fill="white"/>
<path d="M43.6021 16.7266H44.4791V20.848H43.6021V16.7266Z" fill="white"/>
<path d="M46.7179 16.7266H47.5837L49.3518 20.848H48.4607L48.1862 20.1942H46.1239L45.8493 20.848H44.9526L46.7207 16.7266H46.7179ZM47.9088 19.4979L47.438 18.3211C47.3119 18.0085 47.155 17.5963 47.1494 17.585C47.1438 17.5963 46.9869 18.0113 46.8608 18.3211L46.3901 19.4979H47.906H47.9088Z" fill="white"/>
<path d="M49.66 20.3563L49.9795 19.6684C50.3045 19.91 50.694 20.1204 51.3132 20.1204C51.6523 20.1204 52.0641 19.9612 52.0641 19.6372C52.0641 19.3131 51.6999 19.2364 51.344 19.1483C50.5847 18.9692 49.8029 18.7106 49.8029 17.8522C49.8029 17.0563 50.5371 16.6641 51.3132 16.6641C51.9268 16.6641 52.392 16.8289 52.7983 17.1018L52.4788 17.7896C52.1538 17.5736 51.7279 17.4599 51.3132 17.4599C51.1003 17.4599 50.6996 17.5423 50.6996 17.855C50.6996 18.1222 50.9938 18.2188 51.3945 18.3126C52.1146 18.4832 52.9804 18.7589 52.9804 19.6428C52.9804 20.5268 52.1286 20.9219 51.3132 20.9219C50.3409 20.9219 49.8842 20.5467 49.6572 20.362L49.66 20.3563Z" fill="white"/>
<path d="M41.0803 18.8516H35.6304V19.3092H41.0803V18.8516Z" fill="white"/>
<path d="M88.9999 18.8516H83.55V19.3092H88.9999V18.8516Z" fill="white"/>
<path d="M31.1527 1.01562H30.3794V26.9833H31.1527V1.01562Z" fill="white"/>
<path d="M19.6195 4.75851C18.9695 4.50838 18.2858 4.23267 17.5909 3.93707C16.8456 3.62157 16.1899 3.32881 15.5847 3.04457C15.0943 2.81434 14.5731 2.56421 14.0744 2.27429L13.5784 1.98438L13.0825 2.27429C12.5781 2.56706 12.0597 2.81434 11.5722 3.04457C10.9642 3.32881 10.3085 3.62157 9.56596 3.93707C8.86826 4.23267 8.18737 4.50838 7.53731 4.75851C7.03015 4.95463 6.48656 5.15928 5.92616 5.33835L5.20044 5.57142L5.2901 13.6323H5.53108L5.44421 5.78744L5.9906 5.61122C6.5482 5.43215 7.1002 5.22466 7.61296 5.02853C8.26023 4.77841 8.94672 4.5027 9.65002 4.20425C10.3954 3.88875 11.0538 3.59599 11.6647 3.30891C12.1354 3.08721 12.6818 2.82571 13.1918 2.52726L13.584 2.29988L13.9763 2.52726C14.4891 2.82571 15.0327 3.08721 15.5034 3.30891C16.1086 3.59315 16.7671 3.88591 17.518 4.20425C18.2185 4.49986 18.9022 4.77841 19.5523 5.02853C20.0651 5.22466 20.6171 5.43215 21.1747 5.61122L21.721 5.78744L21.6342 13.5442C21.693 13.5726 21.7771 13.6067 21.8724 13.6409L21.962 5.57142L21.2363 5.33835C20.6787 5.15928 20.1323 4.95179 19.6251 4.75851" fill="white"/>
<path d="M21.2419 5.23609C20.6843 5.05702 20.1407 4.85237 19.6363 4.65625C18.9891 4.40612 18.3082 4.13041 17.6105 3.83481C16.8651 3.51931 16.2123 3.22939 15.6071 2.94515C15.1195 2.71492 14.6011 2.46764 14.1024 2.17772L13.5532 1.85938L13.004 2.17772C12.5052 2.46764 11.9869 2.71492 11.4993 2.94515C10.8941 3.22939 10.2384 3.52215 9.49588 3.83481C8.79538 4.13041 8.1145 4.40612 7.47004 4.65625C6.96568 4.84953 6.42489 5.05418 5.86449 5.23609L5.06592 5.49474L5.15838 13.7404H5.6067L5.51984 5.86709L5.99058 5.71645C6.55098 5.53738 7.10297 5.32989 7.61854 5.13092C8.27421 4.87795 8.9579 4.60224 9.6584 4.30664C10.4065 3.99114 11.0678 3.69553 11.6758 3.40846C12.1494 3.18675 12.6958 2.92526 13.2113 2.62397L13.5532 2.425L13.895 2.62397C14.4134 2.92526 14.9598 3.18675 15.4305 3.40846C16.0358 3.69269 16.697 3.9883 17.448 4.30664C18.1485 4.60224 18.835 4.88079 19.4878 5.13092C20.0006 5.32989 20.5554 5.53738 21.113 5.71645L21.5837 5.86709L21.4969 13.6125L21.5585 13.6409C21.6173 13.6693 21.707 13.7035 21.8051 13.7404L21.9424 13.7916L22.0348 5.49474L21.2363 5.23609H21.2419Z" fill="white"/>
<path d="M21.4157 18.9528L21.3933 19.0296C21.1831 19.7913 20.8413 20.5076 20.3817 21.1585C18.9191 23.2164 16.4982 24.359 14.363 25.3652L13.7522 25.6523L13.1301 25.3595C12.2671 24.953 11.3733 24.5295 10.5187 24.0406C8.00809 22.5996 6.59588 20.9652 6.0719 18.896L6.05229 18.8164H5.58716L5.61798 18.95C5.6516 19.0921 5.69083 19.2342 5.73286 19.3678L5.7805 19.5213H5.76929L5.80571 19.7345H5.85615L5.88137 19.8027C6.57346 21.636 8.0221 23.1652 10.3141 24.4784C11.1828 24.9758 12.0962 25.4078 12.9816 25.8256L13.7522 26.1895L14.4947 25.837C16.8092 24.7456 19.2049 23.6143 20.7348 21.4598C21.1018 20.9453 21.3989 20.3854 21.6202 19.797L21.6987 19.5554C21.7127 19.5043 21.7323 19.4559 21.7575 19.4019L21.7687 19.365C21.7967 19.2769 21.822 19.1802 21.85 19.0807L21.8836 18.9472H21.4185L21.4157 18.9528Z" fill="white"/>
<path fill-rule="evenodd" clip-rule="evenodd" d="M25.7504 17.7448L27.2607 14.7717H24.5091V13.5466H23.4948L23.6041 4.2749L22.5897 3.94803C21.9649 3.74622 21.3457 3.51599 20.732 3.27723C19.9447 2.9731 19.1601 2.65476 18.3811 2.32504C17.6022 1.99533 16.826 1.65425 16.0583 1.29327C15.4727 1.01756 14.8842 0.733326 14.321 0.406456L13.6233 0L12.9256 0.406456C12.3624 0.733326 11.774 1.01756 11.1884 1.29327C10.4206 1.65425 9.64449 1.99533 8.86553 2.32504C8.08658 2.65476 7.30202 2.9731 6.51466 3.27723C5.89821 3.51315 5.28177 3.74622 4.65693 3.94803L3.6426 4.2749L3.75188 13.5466H2.73756V14.7717H0L1.51028 17.7448L0.64446 20.4848H4.35992C5.27897 22.9207 7.22356 24.6403 9.56604 25.9848C10.6784 26.6215 11.8357 27.1558 12.9873 27.7016L13.6205 28L14.2538 27.7016C16.9745 26.414 19.9727 25.061 21.8332 22.4404C22.2703 21.8236 22.6178 21.1698 22.8755 20.4848H26.6134L25.7476 17.7448H25.7504ZM4.40755 4.886L4.86988 4.7382C5.50593 4.53355 6.14199 4.29479 6.76684 4.05604C7.5626 3.74906 8.35277 3.42788 9.14013 3.09532C9.92749 2.76277 10.7149 2.416 11.491 2.05218C12.0934 1.76794 12.7071 1.47234 13.2871 1.13694L13.6233 0.940818L13.9596 1.13694C14.5368 1.47234 15.1532 1.77078 15.7557 2.05502C16.5318 2.41884 17.3164 2.76561 18.1065 3.09816C18.8939 3.43072 19.6841 3.7519 20.4798 4.05888C21.1075 4.30048 21.7407 4.53639 22.3768 4.74104L22.8391 4.88884L22.7354 13.5495H4.51122L4.40755 4.88884V4.886ZM3.26994 14.1265H23.9739V18.5634H3.26994V14.1265ZM1.32815 19.9704L2.04546 17.6965L0.818185 15.2862H2.72915V19.1432H3.97324C4.02928 19.4275 4.09933 19.7032 4.18059 19.9704H1.32815ZM21.228 21.9373C19.4739 24.4101 16.5178 25.729 13.9484 26.9455L13.6205 27.099L13.2927 26.9455C12.1579 26.4083 11.0175 25.8824 9.92189 25.2543C7.44212 23.8331 5.39666 21.9771 4.7606 19.1432H22.4777C22.2507 20.1466 21.8388 21.0789 21.228 21.9373ZM23.2622 19.1432H24.5091V15.2862H26.4397L25.2124 17.6965L25.9297 19.9704H23.0493C23.1333 19.7003 23.2034 19.4246 23.2594 19.1432" fill="white"/>
<path d="M8.9469 20.2109L9.17386 20.7055L9.67822 20.7851L9.31396 21.1688L9.39802 21.7117L8.9469 21.4559L8.49578 21.7117L8.58264 21.1688L8.21558 20.7851L8.72274 20.7055L8.9469 20.2109Z" fill="white"/>
<path d="M18.538 20.2109L18.7621 20.7055L19.2693 20.7851L18.9022 21.1688L18.9891 21.7117L18.538 21.4559L18.084 21.7117L18.1709 21.1688L17.8066 20.7851L18.311 20.7055L18.538 20.2109Z" fill="white"/>
<path d="M15.3326 11.5476V11.5391H11.8778C11.8694 11.5817 11.8638 11.6044 11.861 11.6272C11.8554 11.7295 11.8498 11.7949 11.861 11.8375C11.8442 11.9654 11.8694 12.0848 11.9478 12.207C12.1328 12.4856 12.3345 12.7499 12.5054 13.037C12.5951 13.1905 12.6539 13.3724 12.6819 13.5486C12.6876 13.5799 12.6876 13.6083 12.6904 13.6367H13.0238C13.0238 13.4463 12.9846 13.2502 12.8921 13.054C12.7772 12.8124 12.6091 12.5936 12.4718 12.3633C12.3821 12.2127 12.2953 12.0621 12.2084 11.9114H15.0861C15.0861 11.9114 15.0917 11.9114 15.0945 11.9114C15.0076 12.0621 14.9207 12.2127 14.8311 12.3605C14.6938 12.5936 14.5229 12.8096 14.408 13.0512C14.3155 13.2473 14.2735 13.4434 14.2763 13.6339H14.6097C14.6097 13.6055 14.6097 13.577 14.6181 13.5458C14.6462 13.3695 14.705 13.1876 14.7947 13.0341C14.9628 12.7471 15.1673 12.4827 15.3523 12.2042C15.4924 11.9938 15.4671 11.7835 15.3354 11.5419" fill="white"/>
<path d="M14.6797 13.7142H14.2033V13.6403C14.2005 13.4357 14.2454 13.2282 14.3406 13.0264C14.4163 12.8672 14.5144 12.7165 14.6096 12.5716C14.6629 12.492 14.7161 12.4096 14.7665 12.3271C14.8338 12.2163 14.8982 12.1026 14.9655 11.9889H12.3316C12.3961 12.1026 12.4633 12.2163 12.5306 12.3271C12.5782 12.4096 12.6314 12.4892 12.6847 12.5716C12.7799 12.7165 12.878 12.8672 12.9537 13.0264C13.0489 13.2282 13.0966 13.4328 13.0938 13.6403V13.7142H12.6174V13.6431C12.6174 13.6176 12.6146 13.592 12.609 13.5636C12.5782 13.3788 12.5193 13.2111 12.4409 13.0775C12.3344 12.8985 12.2139 12.7222 12.0962 12.5545C12.0262 12.455 11.9561 12.3527 11.8889 12.2504C11.8048 12.1225 11.7712 11.9889 11.788 11.8439C11.7796 11.7928 11.7824 11.7302 11.788 11.6251C11.788 11.608 11.7936 11.591 11.7964 11.5654L11.816 11.4688H15.4054V11.5313C15.5511 11.807 15.5539 12.0372 15.411 12.2532C15.3438 12.3556 15.2737 12.455 15.2037 12.5574C15.086 12.7251 14.9627 12.9013 14.859 13.0804C14.7806 13.2168 14.7217 13.3845 14.6909 13.5664C14.6881 13.592 14.6853 13.6176 14.6853 13.646V13.717L14.6797 13.7142ZM14.3491 13.5664H14.5396C14.5396 13.5664 14.5396 13.5494 14.5424 13.5408C14.5648 13.3987 14.618 13.1941 14.7273 13.0036C14.8366 12.8189 14.9599 12.6426 15.0804 12.4721C15.1504 12.3726 15.2205 12.2731 15.2877 12.1708C15.397 12.006 15.397 11.8383 15.2849 11.6166H11.9365C11.9365 11.6166 11.9365 11.6308 11.9337 11.6364C11.9281 11.7189 11.9253 11.7928 11.9337 11.824V11.8383V11.8525C11.9169 11.969 11.9421 12.0685 12.0094 12.1708C12.0766 12.2731 12.1467 12.3726 12.2167 12.4721C12.3372 12.6426 12.4605 12.8217 12.5698 13.0065C12.6819 13.1969 12.7323 13.4044 12.7547 13.5437C12.7547 13.5522 12.7547 13.5607 12.7575 13.5692H12.948C12.9396 13.4101 12.8976 13.2509 12.8248 13.0917C12.7547 12.9411 12.6566 12.7961 12.567 12.6569C12.5137 12.5744 12.4577 12.492 12.4073 12.4067C12.3176 12.2561 12.2307 12.1054 12.1439 11.9548L12.0794 11.8439H15.2093L15.156 11.9548C15.0692 12.1054 14.9823 12.2561 14.8926 12.4067C14.8422 12.492 14.789 12.5744 14.7329 12.6569C14.6405 12.7961 14.5452 12.9411 14.4723 13.0917C14.3995 13.2481 14.3575 13.4072 14.3491 13.5692" fill="white"/>
<path d="M14.321 12.332H12.9705V12.5282H14.321V12.332Z" fill="white"/>
<path d="M12.7604 11.4892C12.7127 11.4721 12.6623 11.4608 12.6147 11.438C11.634 10.9861 11.0428 9.9458 11.1212 8.8515C11.1604 8.29724 11.3426 7.80551 11.662 7.35926C11.8777 7.05797 12.0991 6.75953 12.3233 6.46392C12.8304 5.79597 13.1078 5.04843 13.1022 4.19857C13.1022 4.17014 13.1078 4.14456 13.1134 4.08203C13.7215 4.42311 14.1978 4.87789 14.5425 5.4691C14.8871 6.06031 15.0356 6.70552 15.0132 7.39053L15.0608 7.41895C15.1561 7.30242 15.2682 7.19441 15.3382 7.06366C15.4083 6.93575 15.4391 6.78226 15.4951 6.61457C16.0723 7.62644 16.4674 8.65253 16.134 9.82074C15.9154 10.5853 15.4195 11.1254 14.6994 11.4522C14.6713 11.4665 14.6377 11.475 14.5901 11.4636C14.6125 11.438 14.6321 11.4096 14.6573 11.384C15.2093 10.8554 15.3326 10.0964 14.9572 9.41712C14.8311 9.18974 14.6741 8.9794 14.5172 8.76907C14.2146 8.35977 13.9764 7.92489 13.9933 7.38769C13.5337 7.62076 12.9845 8.5701 13.1246 9.80368C12.8248 9.73831 12.6735 9.47681 12.5979 8.87424C12.3233 9.30343 12.186 9.75252 12.1832 10.2329C12.1804 10.7303 12.3905 11.1396 12.7576 11.4778" fill="white"/>
<path d="M19.9138 15.5859H19.6616V17.0668H19.9138V15.5859Z" fill="white"/>
<path d="M20.8022 15.5859H20.9927L21.6344 17.0668H21.3682L21.2253 16.7399H20.5584L20.4183 17.0668H20.1577L20.7994 15.5859H20.8022ZM20.6537 16.5211H21.1328L20.8918 15.9583L20.6509 16.5211H20.6537Z" fill="white"/>
<path d="M22.6822 16.5527C22.6486 16.5214 22.6065 16.4987 22.5533 16.4788C22.5 16.4617 22.4412 16.4447 22.3796 16.4305C22.3151 16.4163 22.2507 16.3992 22.1862 16.3765C22.1218 16.3566 22.0629 16.331 22.0125 16.3026C21.9593 16.2742 21.9172 16.2315 21.8836 16.1775C21.85 16.1235 21.8332 16.061 21.8332 15.9871C21.8332 15.8705 21.8864 15.7711 21.9957 15.6886C22.1022 15.6062 22.2395 15.5664 22.4048 15.5664C22.6458 15.5664 22.8335 15.6375 22.9708 15.7796L22.8335 15.9615C22.7102 15.8592 22.5673 15.808 22.3992 15.808C22.3123 15.808 22.2395 15.8222 22.1806 15.8506C22.1218 15.8791 22.0938 15.9217 22.0938 15.9814C22.0938 16.0269 22.1162 16.0667 22.161 16.0979C22.2058 16.1292 22.2619 16.1519 22.3291 16.1661C22.3964 16.1804 22.4692 16.2003 22.5477 16.223C22.6261 16.2457 22.699 16.2713 22.7634 16.2997C22.8307 16.3282 22.8867 16.3708 22.9316 16.4305C22.9764 16.4902 22.9988 16.5641 22.9988 16.6465C22.9988 16.7744 22.9456 16.8796 22.8363 16.962C22.727 17.0444 22.5953 17.0842 22.4384 17.0842C22.3095 17.0842 22.1862 17.0586 22.0685 17.0075C21.9509 16.9563 21.8584 16.8909 21.7939 16.8142L21.9453 16.6351C22.0769 16.7772 22.2479 16.8483 22.4608 16.8483C22.5477 16.8483 22.6177 16.8313 22.6654 16.8C22.713 16.7687 22.7382 16.7232 22.7382 16.6664C22.7382 16.6209 22.7214 16.584 22.6878 16.5527" fill="white"/>
<path d="M4.12183 15.5781H4.38802V16.8884H5.26224V17.1414H4.12183V15.5781Z" fill="white"/>
<path d="M5.51145 16.1237C5.56468 16.0697 5.63473 16.027 5.7216 15.9986C5.80846 15.9673 5.89812 15.9531 5.99059 15.9531C6.13909 15.9531 6.25678 15.9958 6.33804 16.0782C6.41929 16.1606 6.46132 16.28 6.46132 16.4306V17.1412H6.20914V17.0133C6.12508 17.1071 6.0074 17.1554 5.85329 17.1554C5.7272 17.1554 5.62633 17.1213 5.55067 17.056C5.47502 16.9906 5.43579 16.8996 5.43579 16.7888C5.43579 16.6666 5.48343 16.5728 5.5815 16.5131C5.67957 16.4505 5.80846 16.4221 5.97097 16.4221C6.06624 16.4221 6.1447 16.4335 6.20634 16.4534C6.20634 16.3653 6.18953 16.2999 6.1503 16.2573C6.11107 16.2146 6.04943 16.1919 5.95977 16.1919C5.84769 16.1919 5.73841 16.2317 5.63193 16.3141L5.50864 16.1265L5.51145 16.1237ZM6.20914 16.7746V16.6637C6.1475 16.6438 6.07745 16.6324 5.99899 16.6324C5.79725 16.6324 5.69638 16.6836 5.69638 16.7859C5.69638 16.8314 5.71599 16.8684 5.75242 16.8939C5.79165 16.9195 5.84208 16.9337 5.90653 16.9337C6.03822 16.9337 6.13629 16.8797 6.20634 16.7746" fill="white"/>
<path d="M7.16187 15.5703H8.30788V15.8261H7.42806V16.2184H8.25184V16.4657H7.42806V16.8806H8.3303V17.1364H7.16187V15.5703Z" fill="white"/>
<path d="M9.30827 16.5326L9.7706 17.1352H9.45957L9.14855 16.7202L8.83192 17.1352H8.53491L8.99164 16.5383L8.55453 15.9727H8.86275L9.15415 16.345L9.44556 15.9727H9.74818L9.30827 16.5326Z" fill="white"/>
<path d="M10.9922 16.868C10.9473 16.959 10.8801 17.03 10.7904 17.0783C10.7008 17.1295 10.6055 17.1522 10.5018 17.1522C10.3169 17.1522 10.1684 17.0982 10.0535 16.9874C9.94141 16.8765 9.88257 16.7316 9.88257 16.5497C9.88257 16.3678 9.93861 16.2313 10.0507 16.1148C10.1628 16.0011 10.3085 15.9414 10.4878 15.9414C10.6027 15.9414 10.7036 15.9641 10.7904 16.0153C10.8773 16.0636 10.9417 16.1262 10.9782 16.2057L10.7904 16.3308C10.7148 16.2285 10.6167 16.1802 10.4962 16.1802C10.3925 16.1802 10.3057 16.2143 10.2412 16.2825C10.174 16.3507 10.1432 16.4388 10.1432 16.5497C10.1432 16.6605 10.1768 16.7429 10.2468 16.8112C10.3169 16.8794 10.4093 16.9163 10.5242 16.9163C10.6447 16.9163 10.74 16.8623 10.8128 16.7515L10.9922 16.868Z" fill="white"/>
<path d="M12.1972 16.9174C12.0823 17.0766 11.9254 17.1533 11.732 17.1533C11.5387 17.1533 11.3986 17.0993 11.2865 16.9885C11.1744 16.8804 11.1184 16.7326 11.1184 16.5507C11.1184 16.3688 11.1688 16.2267 11.2725 16.1159C11.3762 16.0022 11.5191 15.9453 11.7068 15.9453C11.8637 15.9453 11.9898 15.9936 12.0935 16.0903C12.1972 16.1869 12.2448 16.3177 12.2448 16.4768C12.2448 16.5166 12.242 16.5706 12.2308 16.6388H11.3818C11.393 16.727 11.4294 16.798 11.4939 16.8435C11.5583 16.8918 11.6396 16.9146 11.7377 16.9146C11.8665 16.9146 11.9674 16.8634 12.0431 16.7611L12.1972 16.9146V16.9174ZM11.4883 16.2409C11.435 16.2836 11.3986 16.3432 11.3818 16.42H11.9842C11.973 16.3404 11.945 16.2807 11.8946 16.2381C11.8441 16.1954 11.7797 16.1755 11.6956 16.1755C11.6116 16.1755 11.5415 16.1983 11.4883 16.2409Z" fill="white"/>
<path d="M12.7883 15.5039H12.5361V17.1354H12.7883V15.5039Z" fill="white"/>
<path d="M13.3823 15.5039H13.1301V17.1354H13.3823V15.5039Z" fill="white"/>
<path d="M14.7526 16.9174C14.6377 17.0766 14.4808 17.1533 14.2875 17.1533C14.0941 17.1533 13.954 17.0993 13.8419 16.9885C13.7299 16.8804 13.6738 16.7326 13.6738 16.5507C13.6738 16.3688 13.7243 16.2267 13.8279 16.1159C13.9316 16.0022 14.0745 15.9453 14.2622 15.9453C14.4192 15.9453 14.5453 15.9936 14.6489 16.0903C14.7526 16.1869 14.8002 16.3177 14.8002 16.4768C14.8002 16.5166 14.7974 16.5706 14.7862 16.6388H13.9372C13.9484 16.727 13.9849 16.798 14.0493 16.8435C14.1137 16.8918 14.195 16.9146 14.2931 16.9146C14.422 16.9146 14.5228 16.8634 14.5985 16.7611L14.7526 16.9146V16.9174ZM14.0437 16.2409C13.9905 16.2836 13.954 16.3432 13.9372 16.42H14.5396C14.5284 16.3404 14.5004 16.2807 14.45 16.2381C14.3995 16.1954 14.3351 16.1755 14.251 16.1755C14.167 16.1755 14.0969 16.1983 14.0437 16.2409Z" fill="white"/>
<path d="M15.0889 15.9748H15.341V16.08C15.4279 15.9947 15.5456 15.9492 15.6941 15.9492C16.0023 15.9492 16.1536 16.1254 16.1536 16.4779V17.1345H15.9014V16.4978C15.9014 16.3869 15.879 16.3074 15.8342 16.259C15.7894 16.2107 15.7165 16.1851 15.6212 16.1851C15.5596 16.1851 15.5036 16.2022 15.4531 16.2391C15.4027 16.2732 15.3663 16.3216 15.341 16.3841V17.1373H15.0889V15.9748Z" fill="white"/>
<path d="M17.5461 16.868C17.5013 16.959 17.434 17.03 17.3444 17.0783C17.2547 17.1295 17.1594 17.1522 17.0558 17.1522C16.8708 17.1522 16.7223 17.0982 16.6074 16.9874C16.4954 16.8765 16.4365 16.7316 16.4365 16.5497C16.4365 16.3678 16.4926 16.2313 16.6046 16.1148C16.7167 16.0011 16.8624 15.9414 17.0418 15.9414C17.1566 15.9414 17.2575 15.9641 17.3444 16.0153C17.4312 16.0636 17.4957 16.1262 17.5321 16.2057L17.3444 16.3308C17.2687 16.2285 17.1706 16.1802 17.0502 16.1802C16.9465 16.1802 16.8596 16.2143 16.7952 16.2825C16.7279 16.3507 16.6971 16.4388 16.6971 16.5497C16.6971 16.6605 16.7307 16.7429 16.8008 16.8112C16.8708 16.8794 16.9633 16.9163 17.0782 16.9163C17.1987 16.9163 17.2939 16.8623 17.3668 16.7515L17.5461 16.868Z" fill="white"/>
<path d="M18.7509 16.9174C18.636 17.0766 18.4791 17.1533 18.2858 17.1533C18.0924 17.1533 17.9523 17.0993 17.8402 16.9885C17.7282 16.8804 17.6721 16.7326 17.6721 16.5507C17.6721 16.3688 17.7226 16.2267 17.8262 16.1159C17.9299 16.0022 18.0756 15.9453 18.2605 15.9453C18.4175 15.9453 18.5435 15.9936 18.6472 16.0903C18.7509 16.1869 18.7985 16.3177 18.7985 16.4768C18.7985 16.5166 18.7957 16.5706 18.7845 16.6388H17.9355C17.9467 16.727 17.9831 16.798 18.0476 16.8435C18.112 16.8918 18.1933 16.9146 18.2914 16.9146C18.4203 16.9146 18.5211 16.8634 18.5968 16.7611L18.7509 16.9146V16.9174ZM18.042 16.2409C17.9887 16.2836 17.9523 16.3432 17.9355 16.42H18.5379C18.5267 16.3404 18.4987 16.2807 18.4483 16.2381C18.3978 16.1954 18.3334 16.1755 18.2493 16.1755C18.1653 16.1755 18.0952 16.1983 18.042 16.2409Z" fill="white"/>
<path d="M13.7354 22.0469L14.1557 22.965L15.0944 23.1128L14.4135 23.8262L14.576 24.8352L13.7354 24.3577L12.8948 24.8352L13.0574 23.8262L12.3765 23.1128L13.3151 22.965L13.7354 22.0469Z" fill="white"/>
<path d="M16.686 20.6278H16.0751V21.2872C16.0079 21.2929 15.963 21.2958 15.9126 21.2986C15.8986 21.2503 15.8874 21.2105 15.8734 21.1622C15.6044 21.2361 15.3858 21.2162 15.3774 20.8467C15.4587 20.7984 15.582 20.7813 15.5371 20.6278H15.2149V21.2872H15.0468C15.0468 21.1906 15.0468 21.0911 15.0468 20.9916C15.0468 20.9121 15.0188 20.8723 14.9347 20.8978C14.8506 21.1309 14.7442 21.219 14.5901 21.1792C14.4331 21.1394 14.3855 21.0229 14.4247 20.7671C14.4612 20.7642 14.5032 20.7614 14.5536 20.7557C14.5592 20.804 14.5676 20.8467 14.5704 20.8893C14.5732 20.9547 14.5732 21.0314 14.6573 21.0229C14.6909 21.0201 14.7246 20.9462 14.7414 20.9007C14.7554 20.8637 14.7498 20.8154 14.7526 20.7785C14.9244 20.7481 15.0216 20.697 15.044 20.625H14.3491C14.3435 20.5653 14.3379 20.5255 14.3323 20.4715H16.6663C16.6439 20.3322 16.5515 20.3095 16.4394 20.3066C16.4366 20.2612 16.4338 20.227 16.431 20.1873C16.4506 20.1787 16.4674 20.1674 16.4842 20.1645C16.5935 20.1588 16.6719 20.2071 16.7448 20.2896C16.8036 20.355 16.8148 20.4743 16.9381 20.4715C16.9381 20.517 16.9437 20.5966 16.9353 20.5994C16.8233 20.625 16.8541 20.7102 16.8541 20.7813C16.8541 20.9462 16.8541 21.1082 16.8541 21.2872C16.8008 21.2901 16.7588 21.2958 16.6944 21.2986V20.8893C16.6243 20.8893 16.5655 20.8723 16.5206 20.8922C16.4702 20.9149 16.4142 20.9632 16.4002 21.0115C16.3889 21.0456 16.4338 21.1281 16.4702 21.1394C16.5543 21.1679 16.5571 21.2133 16.5346 21.2816C16.3469 21.2929 16.2432 21.2219 16.218 21.0712C16.1928 20.9121 16.2685 20.7984 16.4394 20.7557C16.4982 20.7415 16.5627 20.7444 16.6215 20.7273C16.6523 20.7188 16.6719 20.6818 16.7 20.6591C16.6944 20.6477 16.6888 20.6363 16.6832 20.625M15.5315 20.9206C15.5848 21.0343 15.652 21.0797 15.7473 21.0599C15.8454 21.0371 15.8902 20.9689 15.8874 20.8694C15.8874 20.7898 15.8874 20.7102 15.8874 20.6278H15.7361C15.7221 20.7614 15.694 20.8808 15.5315 20.9234" fill="white"/>
<path d="M11.3566 21.2936H11.1969C11.1829 21.2339 11.1661 21.177 11.1493 21.1117C10.9923 21.1429 10.9335 21.3788 10.7262 21.2879C10.8074 21.2111 10.8859 21.1401 10.9671 21.0662C10.9083 20.9752 10.8522 20.961 10.7794 21.0264C10.7121 21.0861 10.6337 21.1145 10.5244 21.0633C10.5917 21.0036 10.6477 20.9553 10.7037 20.907C10.5608 20.7279 10.5468 20.6228 10.6421 20.5233C10.7121 20.4494 10.9027 20.438 10.9895 20.5062C11.0848 20.5801 11.0848 20.6938 10.9811 20.8786C11.0344 20.907 11.0848 20.9354 11.1661 20.9809C11.1689 20.8786 11.1745 20.8018 11.1745 20.7251C11.1745 20.6512 11.1745 20.5745 11.1745 20.4835H12.3962C12.3877 20.5261 12.3849 20.6 12.3653 20.6029C12.2645 20.6256 12.2869 20.7024 12.2869 20.7649C12.2869 20.9354 12.2869 21.1031 12.2869 21.2879C12.2308 21.2907 12.1888 21.2936 12.1244 21.2964V20.9383C12.0683 20.9326 12.0291 20.9297 11.9899 20.9269C11.9086 21.1912 11.8442 21.2509 11.6816 21.2282C11.5668 21.2111 11.4939 21.1259 11.4911 21.0093C11.4911 20.8672 11.5584 20.8075 11.7937 20.7592V20.6285H11.3538V21.2964L11.3566 21.2936ZM10.8354 20.8047C10.9055 20.7478 10.9503 20.691 10.8775 20.6171C10.8607 20.6 10.785 20.6057 10.7682 20.6256C10.7009 20.7109 10.7626 20.7564 10.8354 20.8018M12.1075 20.7507C12.1113 20.6635 12.0702 20.6247 11.9843 20.6341C11.9787 20.7194 12.0197 20.7583 12.1075 20.7507ZM11.8021 20.944C11.7433 20.9127 11.6844 20.8985 11.662 20.9809C11.6564 21.0036 11.6957 21.0662 11.7181 21.069C11.8049 21.0804 11.8133 21.0179 11.8021 20.944Z" fill="white"/>
<path d="M14.1192 20.4716C14.1136 20.5228 14.1192 20.5768 14.1052 20.5824C13.9819 20.6222 14.0071 20.7246 14.0071 20.8127C14.0071 20.969 14.0071 21.1253 14.0071 21.2703C13.8866 21.3414 13.8474 21.2703 13.8194 21.1907C13.626 21.2447 13.5336 21.2277 13.4635 21.1225C13.4019 21.0315 13.3991 20.8866 13.4607 20.7985C13.5588 20.6592 13.6905 20.6791 13.8222 20.7302C13.8586 20.6478 13.8334 20.6109 13.7577 20.6109C13.6036 20.6109 13.4495 20.6109 13.3094 20.6109C13.2674 20.7189 13.2113 20.8013 13.1889 20.8951C13.1721 20.9605 13.1105 20.9491 13.0516 20.9321C12.9311 20.7899 13.1693 20.7558 13.0936 20.6251H12.8919C12.8919 20.7416 12.8863 20.861 12.8919 20.9775C12.9003 21.1196 12.9872 21.1737 13.1077 21.0998C13.1553 21.0713 13.1693 21.06 13.2085 21.0799C13.3766 21.1651 13.1217 21.2589 13.0404 21.2618C12.8695 21.2618 12.763 21.2163 12.7406 21.077C12.7238 20.9775 12.7322 20.8752 12.7266 20.7757C12.7238 20.7047 12.7462 20.6251 12.6453 20.591C12.6257 20.5853 12.6257 20.5171 12.6145 20.4688H14.122L14.1192 20.4716ZM13.7157 21.0855C13.7913 21.0827 13.8474 21.0202 13.839 20.9491C13.8278 20.878 13.7885 20.8411 13.7129 20.8411C13.6288 20.8411 13.5812 20.8837 13.584 20.9633C13.584 21.0457 13.64 21.0827 13.7157 21.0855Z" fill="white"/>
</g>
<defs>
<clipPath id="clip0_12275_1411">
<rect width="89" height="28" fill="white"/>
</clipPath>
</defs>
</svg>
